<?xml version="1.0" encoding="UTF-8"?>
<!DOCTYPE svg PUBLIC "-//W3C//DTD SVG 1.1//EN" "http://www.w3.org/Graphics/SVG/1.1/DTD/svg11.dtd">
<!-- Creator: CorelDRAW 2018 (64-Bit Evaluation Version) -->
<svg xmlns="http://www.w3.org/2000/svg" xml:space="preserve" width="5.61839in" height="5.33852in" version="1.1" style="shape-rendering:geometricPrecision; text-rendering:geometricPrecision; image-rendering:optimizeQuality; fill-rule:evenodd; clip-rule:evenodd"
viewBox="0 0 175.86 167.1"
 xmlns:xlink="http://www.w3.org/1999/xlink">
 <defs>
  <style type="text/css">
   <![CDATA[
    .fil1 {fill:#FFD800}
    .fil0 {fill:#FFD800;fill-rule:nonzero}
   ]]>
  </style>
 </defs>
 <g id="Layer_x0020_1">
  <metadata id="CorelCorpID_0Corel-Layer"/>
  <g id="_1905907174448">
   <path class="fil0" d="M1.52 138.82c0.35,0 0.63,0.09 0.84,0.28 0.21,0.19 0.32,0.43 0.32,0.74l0 11.59 2.32 0 0 -11.59c0,-0.31 0.11,-0.55 0.32,-0.74 0.21,-0.19 0.49,-0.28 0.84,-0.28l1.12 0c0.13,0 0.23,0.04 0.3,0.12 0.07,0.08 0.1,0.18 0.1,0.3l0 27.13c0,0.12 -0.03,0.22 -0.1,0.3 -0.07,0.08 -0.17,0.12 -0.3,0.12l-1.12 0c-0.39,0 -0.67,-0.11 -0.87,-0.33 -0.19,-0.22 -0.29,-0.5 -0.29,-0.85l0 -11.95 -2.32 0 0 11.95c0,0.35 -0.09,0.63 -0.29,0.85 -0.19,0.22 -0.49,0.33 -0.87,0.33l-1.12 0c-0.13,0 -0.23,-0.04 -0.3,-0.12 -0.07,-0.08 -0.1,-0.18 -0.1,-0.3l0 -27.13c0,-0.12 0.03,-0.22 0.1,-0.3 0.07,-0.08 0.17,-0.12 0.3,-0.12l1.12 0zm19.97 0c0.12,0 0.22,0.03 0.3,0.1 0.08,0.07 0.12,0.17 0.12,0.3l0 0.68c0,0.35 -0.09,0.63 -0.28,0.84 -0.19,0.21 -0.43,0.32 -0.74,0.32l-2.46 0 0 10.75 2.66 0c0.12,0 0.22,0.03 0.3,0.1 0.08,0.07 0.12,0.17 0.12,0.3l0 0.68c0,0.35 -0.09,0.63 -0.28,0.84 -0.19,0.21 -0.43,0.32 -0.74,0.32l-2.06 0 0 10.51 2.46 0c0.31,0 0.55,0.11 0.74,0.32 0.19,0.21 0.28,0.49 0.28,0.84l0 0.68c0,0.13 -0.04,0.23 -0.12,0.3 -0.08,0.07 -0.18,0.1 -0.3,0.1l-5.33 0c-0.13,0 -0.23,-0.04 -0.3,-0.12 -0.07,-0.08 -0.1,-0.18 -0.1,-0.3l0 -27.13c0,-0.12 0.03,-0.22 0.1,-0.3 0.07,-0.08 0.17,-0.12 0.3,-0.12l5.33 0zm8.34 27.97c-0.13,0 -0.23,-0.04 -0.3,-0.12 -0.07,-0.08 -0.1,-0.18 -0.1,-0.3l0 -27.13c0,-0.12 0.03,-0.22 0.1,-0.3 0.07,-0.08 0.17,-0.12 0.3,-0.12l1.12 0c0.35,0 0.63,0.09 0.84,0.28 0.21,0.19 0.32,0.43 0.32,0.74l0 24.71 2.46 0c0.31,0 0.55,0.11 0.74,0.32 0.19,0.21 0.28,0.49 0.28,0.84l0 0.68c0,0.13 -0.04,0.23 -0.12,0.3 -0.08,0.07 -0.18,0.1 -0.3,0.1l-5.33 0zm17.11 -27.97c1.17,0 2.1,0.31 2.8,0.93 0.69,0.62 1.04,1.46 1.04,2.51l0 21.09c0,1.07 -0.33,1.9 -1.01,2.52 -0.67,0.61 -1.62,0.92 -2.83,0.92l-3.44 0c-0.13,0 -0.23,-0.04 -0.3,-0.12 -0.07,-0.08 -0.1,-0.18 -0.1,-0.3l0 -27.13c0,-0.12 0.03,-0.22 0.1,-0.3 0.07,-0.08 0.17,-0.12 0.3,-0.12l3.44 0zm1.16 3.44c0,-0.35 -0.09,-0.63 -0.27,-0.86 -0.18,-0.23 -0.48,-0.34 -0.89,-0.34l-1.16 0 0 23.49 1.16 0c0.4,0 0.69,-0.11 0.88,-0.34 0.19,-0.23 0.28,-0.51 0.28,-0.86l0 -21.09zm16.49 -3.44c0.12,0 0.22,0.03 0.3,0.1 0.08,0.07 0.12,0.17 0.12,0.3l0 0.68c0,0.35 -0.09,0.63 -0.28,0.84 -0.19,0.21 -0.43,0.32 -0.74,0.32l-2.46 0 0 10.75 2.66 0c0.12,0 0.22,0.03 0.3,0.1 0.08,0.07 0.12,0.17 0.12,0.3l0 0.68c0,0.35 -0.09,0.63 -0.28,0.84 -0.19,0.21 -0.43,0.32 -0.74,0.32l-2.06 0 0 10.51 2.46 0c0.31,0 0.55,0.11 0.74,0.32 0.19,0.21 0.28,0.49 0.28,0.84l0 0.68c0,0.13 -0.04,0.23 -0.12,0.3 -0.08,0.07 -0.18,0.1 -0.3,0.1l-5.33 0c-0.13,0 -0.23,-0.04 -0.3,-0.12 -0.07,-0.08 -0.1,-0.18 -0.1,-0.3l0 -27.13c0,-0.12 0.03,-0.22 0.1,-0.3 0.07,-0.08 0.17,-0.12 0.3,-0.12l5.33 0zm15.21 0c0.13,0 0.23,0.04 0.3,0.12 0.07,0.08 0.1,0.18 0.1,0.3l0 27.13c0,0.12 -0.03,0.22 -0.1,0.3 -0.07,0.08 -0.17,0.12 -0.3,0.12l-1.12 0c-0.35,0 -0.61,-0.09 -0.8,-0.25 -0.19,-0.17 -0.3,-0.39 -0.34,-0.67 0,-0.16 -0.05,-0.53 -0.15,-1.12 -0.1,-0.59 -0.23,-1.3 -0.38,-2.13 -0.15,-0.83 -0.33,-1.74 -0.51,-2.74 -0.19,-1 -0.37,-2 -0.56,-3.01 -0.19,-1.01 -0.36,-1.96 -0.53,-2.88 -0.17,-0.92 -0.31,-1.71 -0.41,-2.38l0.2 14c0.01,0.35 -0.08,0.63 -0.28,0.85 -0.2,0.22 -0.49,0.33 -0.88,0.33l-1.12 0c-0.13,0 -0.23,-0.04 -0.3,-0.12 -0.07,-0.08 -0.1,-0.18 -0.1,-0.3l0 -27.13c0,-0.12 0.03,-0.22 0.1,-0.3 0.07,-0.08 0.17,-0.12 0.3,-0.12l1.12 0c0.33,0 0.61,0.09 0.81,0.27 0.21,0.18 0.32,0.42 0.35,0.71 0.03,0.21 0.09,0.65 0.18,1.31 0.09,0.66 0.21,1.44 0.36,2.36 0.15,0.91 0.31,1.9 0.48,2.98 0.17,1.07 0.35,2.12 0.53,3.16 0.18,1.03 0.35,2 0.52,2.89 0.17,0.89 0.31,1.62 0.45,2.2l-0.2 -14.84c0,-0.31 0.11,-0.55 0.32,-0.74 0.21,-0.19 0.49,-0.28 0.84,-0.28l1.12 0zm15.99 4.08c0.09,-0.92 0.21,-1.65 0.34,-2.19 0.13,-0.54 0.28,-0.95 0.44,-1.23 0.16,-0.28 0.33,-0.46 0.52,-0.54 0.19,-0.08 0.37,-0.12 0.56,-0.12l1.52 0c0.13,0 0.23,0.04 0.3,0.12 0.07,0.08 0.1,0.18 0.1,0.3l0 27.13c0,0.12 -0.03,0.22 -0.1,0.3 -0.07,0.08 -0.17,0.12 -0.3,0.12l-1.12 0c-0.39,0 -0.68,-0.11 -0.88,-0.33 -0.2,-0.22 -0.29,-0.5 -0.28,-0.85l0.6 -19.58 -2.06 19.76c-0.03,0.28 -0.18,0.51 -0.46,0.71 -0.28,0.19 -0.59,0.29 -0.92,0.29l-0.04 0c-0.33,0 -0.64,-0.1 -0.92,-0.29 -0.28,-0.19 -0.43,-0.43 -0.46,-0.71l-2.08 -19.8 0.6 19.62c0.01,0.35 -0.08,0.63 -0.28,0.85 -0.2,0.22 -0.49,0.33 -0.88,0.33l-1.12 0c-0.13,0 -0.23,-0.04 -0.3,-0.12 -0.07,-0.08 -0.1,-0.18 -0.1,-0.3l0 -27.13c0,-0.12 0.03,-0.22 0.1,-0.3 0.07,-0.08 0.17,-0.12 0.3,-0.12l1.36 0c0.19,0 0.39,0.03 0.59,0.11 0.21,0.07 0.4,0.25 0.59,0.53 0.19,0.28 0.36,0.69 0.51,1.23 0.15,0.54 0.27,1.28 0.37,2.21l1.74 16.9 1.76 -16.9zm16.85 -4.08c0.13,0 0.23,0.04 0.3,0.12 0.07,0.08 0.11,0.17 0.12,0.28l2.4 27.07c0.01,0.12 -0.02,0.23 -0.11,0.34 -0.09,0.11 -0.23,0.16 -0.41,0.16l-0.98 0c-0.33,0 -0.61,-0.1 -0.83,-0.29 -0.22,-0.19 -0.35,-0.43 -0.37,-0.71l-0.23 -3.82 -2.05 0 -0.22 3.82c-0.03,0.28 -0.15,0.51 -0.37,0.71 -0.22,0.19 -0.5,0.29 -0.83,0.29l-0.98 0c-0.19,0 -0.32,-0.05 -0.41,-0.16 -0.09,-0.11 -0.13,-0.22 -0.11,-0.34l2.4 -27.07c0.01,-0.11 0.05,-0.2 0.12,-0.28 0.07,-0.08 0.16,-0.12 0.28,-0.12l2.28 0zm-2.04 20.91l1.8 0 -0.91 -14.94 -0.89 14.94zm17.41 -4c0,-0.35 0.09,-0.63 0.28,-0.85 0.19,-0.22 0.47,-0.33 0.84,-0.35l1.16 0c0.13,0 0.23,0.04 0.3,0.12 0.07,0.08 0.1,0.18 0.1,0.3l0 8.71c0,1.07 -0.33,1.9 -1.01,2.52 -0.67,0.61 -1.62,0.92 -2.83,0.92 -0.59,0 -1.11,-0.08 -1.58,-0.24 -0.47,-0.16 -0.87,-0.39 -1.21,-0.69 -0.34,-0.3 -0.6,-0.66 -0.78,-1.08 -0.18,-0.42 -0.27,-0.89 -0.27,-1.42l0 -21.73c0,-1.07 0.34,-1.9 1.01,-2.52 0.67,-0.61 1.61,-0.92 2.82,-0.92 0.57,0 1.1,0.08 1.57,0.24 0.47,0.16 0.88,0.39 1.22,0.69 0.34,0.3 0.6,0.66 0.78,1.08 0.18,0.42 0.27,0.9 0.27,1.43l0 8.95c0,0.12 -0.03,0.22 -0.1,0.3 -0.07,0.08 -0.17,0.12 -0.3,0.12l-1.12 0c-0.39,0 -0.67,-0.11 -0.87,-0.33 -0.19,-0.22 -0.29,-0.5 -0.29,-0.85l0 -8.19c0,-0.36 -0.09,-0.65 -0.28,-0.87 -0.19,-0.22 -0.48,-0.33 -0.88,-0.33 -0.39,0 -0.67,0.11 -0.87,0.33 -0.19,0.22 -0.29,0.51 -0.29,0.87l0 21.73c0,0.36 0.09,0.65 0.28,0.87 0.19,0.22 0.48,0.33 0.88,0.33 0.39,0 0.68,-0.11 0.87,-0.33 0.19,-0.22 0.29,-0.51 0.29,-0.87l0 -7.93zm12.28 -16.92c0.35,0 0.63,0.09 0.84,0.28 0.21,0.19 0.32,0.43 0.32,0.74l0 11.59 2.32 0 0 -11.59c0,-0.31 0.11,-0.55 0.32,-0.74 0.21,-0.19 0.49,-0.28 0.84,-0.28l1.12 0c0.13,0 0.23,0.04 0.3,0.12 0.07,0.08 0.1,0.18 0.1,0.3l0 27.13c0,0.12 -0.03,0.22 -0.1,0.3 -0.07,0.08 -0.17,0.12 -0.3,0.12l-1.12 0c-0.39,0 -0.67,-0.11 -0.87,-0.33 -0.19,-0.22 -0.29,-0.5 -0.29,-0.85l0 -11.95 -2.32 0 0 11.95c0,0.35 -0.09,0.63 -0.29,0.85 -0.19,0.22 -0.49,0.33 -0.87,0.33l-1.12 0c-0.13,0 -0.23,-0.04 -0.3,-0.12 -0.07,-0.08 -0.1,-0.18 -0.1,-0.3l0 -27.13c0,-0.12 0.03,-0.22 0.1,-0.3 0.07,-0.08 0.17,-0.12 0.3,-0.12l1.12 0zm19.97 0c0.12,0 0.22,0.03 0.3,0.1 0.08,0.07 0.12,0.17 0.12,0.3l0 0.68c0,0.35 -0.09,0.63 -0.28,0.84 -0.19,0.21 -0.43,0.32 -0.74,0.32l-2.46 0 0 10.75 2.66 0c0.12,0 0.22,0.03 0.3,0.1 0.08,0.07 0.12,0.17 0.12,0.3l0 0.68c0,0.35 -0.09,0.63 -0.28,0.84 -0.19,0.21 -0.43,0.32 -0.74,0.32l-2.06 0 0 10.51 2.46 0c0.31,0 0.55,0.11 0.74,0.32 0.19,0.21 0.28,0.49 0.28,0.84l0 0.68c0,0.13 -0.04,0.23 -0.12,0.3 -0.08,0.07 -0.18,0.1 -0.3,0.1l-5.33 0c-0.13,0 -0.23,-0.04 -0.3,-0.12 -0.07,-0.08 -0.1,-0.18 -0.1,-0.3l0 -27.13c0,-0.12 0.03,-0.22 0.1,-0.3 0.07,-0.08 0.17,-0.12 0.3,-0.12l5.33 0zm11.82 0c0.57,0 1.09,0.08 1.56,0.25 0.47,0.17 0.87,0.4 1.2,0.69 0.33,0.29 0.59,0.65 0.77,1.08 0.18,0.43 0.27,0.9 0.27,1.42l0 9.47c0,0.59 -0.11,1.07 -0.35,1.44 -0.23,0.37 -0.56,0.67 -0.97,0.9 0.41,0.23 0.74,0.52 0.97,0.89 0.23,0.37 0.35,0.84 0.35,1.41l0 10.01c0,0.12 -0.03,0.22 -0.1,0.3 -0.07,0.08 -0.17,0.12 -0.3,0.12l-1.12 0c-0.39,0 -0.67,-0.11 -0.87,-0.33 -0.19,-0.22 -0.29,-0.5 -0.29,-0.85l0 -9.25c0,-0.36 -0.09,-0.65 -0.27,-0.87 -0.18,-0.22 -0.48,-0.33 -0.89,-0.33l-1.16 0 0 10.45c0,0.35 -0.09,0.63 -0.29,0.85 -0.19,0.22 -0.49,0.33 -0.87,0.33l-1.12 0c-0.13,0 -0.23,-0.04 -0.3,-0.12 -0.07,-0.08 -0.1,-0.18 -0.1,-0.3l0 -27.13c0,-0.12 0.03,-0.22 0.1,-0.3 0.07,-0.08 0.17,-0.12 0.3,-0.12l3.48 0zm-1.2 2.24l0 11.87 1.16 0c0.4,0 0.69,-0.11 0.88,-0.34 0.19,-0.23 0.28,-0.51 0.28,-0.86l0 -9.47c0,-0.35 -0.09,-0.63 -0.29,-0.86 -0.19,-0.23 -0.49,-0.34 -0.87,-0.34l-1.16 0z"/>
   <g>
    <path class="fil0" d="M103.4 10.43c7.64,2.37 14.54,6.44 20.23,11.77l-3.52 5.26c-5.13,-5.02 -11.44,-8.86 -18.46,-11.05l1.75 -5.99zm32.78 29.85c2.57,6.18 3.99,12.95 3.99,20.06 0,14.43 -5.85,27.49 -15.3,36.94 -9.1,9.1 -21.55,14.86 -35.33,15.28l1.88 -6.34c11.31,-0.85 21.49,-5.79 29.04,-13.34 8.32,-8.32 13.47,-19.83 13.47,-32.53 0,-3.18 -0.32,-6.29 -0.94,-9.3l3.18 -10.77zm-64.6 69.69c-7.05,-2.32 -13.43,-6.1 -18.79,-10.98l2.02 -6.73c0.2,0.21 0.4,0.41 0.6,0.62 4.98,4.98 11.11,8.83 17.95,11.11l-1.77 5.98zm-32 -29.82c-2.5,-6.11 -3.89,-12.8 -3.89,-19.81 0,-14.43 5.85,-27.49 15.3,-36.94 8.88,-8.88 20.94,-14.58 34.33,-15.24l-1.89 6.39c-10.91,1.06 -20.7,5.93 -28.03,13.26 -8.32,8.32 -13.47,19.83 -13.47,32.53 0,3.07 0.3,6.06 0.87,8.96l-3.22 10.84z"/>
    <polygon class="fil1" points="39.62,93.73 59.29,26.96 70.32,26.96 61.92,55.17 61.43,56.87 74.83,56.87 91.52,0 102.42,0 74.96,93.73 64.06,93.73 72.36,65.44 58.9,65.44 50.59,93.73 "/>
    <polygon class="fil0" points="104.1,50.29 82.95,121.16 72.05,121.16 99.98,26.96 110.82,26.96 112.69,45.31 124.97,26.96 136.24,26.96 116.45,93.73 105.55,93.73 118.4,50.29 106.41,66.69 "/>
   </g>
  </g>
 </g>
</svg>
