<svg xmlns="http://www.w3.org/2000/svg" width="268" height="255" viewBox="0 0 268 255">
  <g fill="#FFD800" fill-rule="evenodd">
    <path fill-rule="nonzero" d="M2.31454545,211.535238 C2.8475,211.535238 3.27386364,211.672381 3.59363636,211.961905 C3.91340909,212.251429 4.08090909,212.617143 4.08090909,213.089524 L4.08090909,230.750476 L7.61363636,230.750476 L7.61363636,213.089524 C7.61363636,212.617143 7.78113636,212.251429 8.10090909,211.961905 C8.42068182,211.672381 8.84704545,211.535238 9.38,211.535238 L11.0854545,211.535238 C11.2834091,211.535238 11.4356818,211.59619 11.5422727,211.718095 C11.6488636,211.84 11.6945455,211.992381 11.6945455,212.175238 L11.6945455,253.51619 C11.6945455,253.699048 11.6488636,253.851429 11.5422727,253.973333 C11.4356818,254.095238 11.2834091,254.15619 11.0854545,254.15619 L9.38,254.15619 C8.78613636,254.15619 8.35977273,253.988571 8.05522727,253.653333 C7.76590909,253.318095 7.61363636,252.891429 7.61363636,252.358095 L7.61363636,234.148571 L4.08090909,234.148571 L4.08090909,252.358095 C4.08090909,252.891429 3.94386364,253.318095 3.63931818,253.653333 C3.35,253.988571 2.89318182,254.15619 2.31454545,254.15619 L0.609090909,254.15619 C0.411136364,254.15619 0.258863636,254.095238 0.152272727,253.973333 C0.0456818182,253.851429 0,253.699048 0,253.51619 L0,212.175238 C0,211.992381 0.0456818182,211.84 0.152272727,211.718095 C0.258863636,211.59619 0.411136364,211.535238 0.609090909,211.535238 L2.31454545,211.535238 Z M32.7234091,211.535238 C32.9061364,211.535238 33.0584091,211.580952 33.1802273,211.687619 C33.3020455,211.794286 33.3629545,211.946667 33.3629545,212.144762 L33.3629545,213.180952 C33.3629545,213.714286 33.2259091,214.140952 32.9365909,214.460952 C32.6472727,214.780952 32.2818182,214.948571 31.8097727,214.948571 L28.0638636,214.948571 L28.0638636,231.329524 L32.1143182,231.329524 C32.2970455,231.329524 32.4493182,231.375238 32.5711364,231.481905 C32.6929545,231.588571 32.7538636,231.740952 32.7538636,231.939048 L32.7538636,232.975238 C32.7538636,233.508571 32.6168182,233.935238 32.3275,234.255238 C32.0381818,234.575238 31.6727273,234.742857 31.2006818,234.742857 L28.0638636,234.742857 L28.0638636,250.758095 L31.8097727,250.758095 C32.2818182,250.758095 32.6472727,250.925714 32.9365909,251.245714 C33.2259091,251.565714 33.3629545,251.992381 33.3629545,252.525714 L33.3629545,253.561905 C33.3629545,253.76 33.3020455,253.912381 33.1802273,254.019048 C33.0584091,254.125714 32.9061364,254.171429 32.7234091,254.171429 L24.6072727,254.171429 C24.4093182,254.171429 24.2570455,254.110476 24.1504545,253.988571 C24.0438636,253.866667 23.9981818,253.714286 23.9981818,253.531429 L23.9981818,212.190476 C23.9981818,212.007619 24.0438636,211.855238 24.1504545,211.733333 C24.2570455,211.611429 24.4093182,211.550476 24.6072727,211.550476 L32.7234091,211.550476 L32.7234091,211.535238 Z M45.4229545,254.15619 C45.225,254.15619 45.0727273,254.095238 44.9661364,253.973333 C44.8595455,253.851429 44.8138636,253.699048 44.8138636,253.51619 L44.8138636,212.175238 C44.8138636,211.992381 44.8595455,211.84 44.9661364,211.718095 C45.0727273,211.59619 45.225,211.535238 45.4229545,211.535238 L47.1284091,211.535238 C47.6613636,211.535238 48.0877273,211.672381 48.4075,211.961905 C48.7272727,212.251429 48.8947727,212.617143 48.8947727,213.089524 L48.8947727,250.742857 L52.6406818,250.742857 C53.1127273,250.742857 53.4781818,250.910476 53.7675,251.230476 C54.0568182,251.550476 54.1938636,251.977143 54.1938636,252.510476 L54.1938636,253.546667 C54.1938636,253.744762 54.1329545,253.897143 54.0111364,254.00381 C53.8893182,254.110476 53.7370455,254.15619 53.5543182,254.15619 L45.4381818,254.15619 L45.4229545,254.15619 Z M71.4768182,211.535238 C73.2584091,211.535238 74.6745455,212.007619 75.7404545,212.952381 C76.7911364,213.897143 77.3240909,215.177143 77.3240909,216.777143 L77.3240909,248.914286 C77.3240909,250.544762 76.8215909,251.809524 75.7861364,252.754286 C74.7659091,253.68381 73.3193182,254.15619 71.4768182,254.15619 L66.2386364,254.15619 C66.0406818,254.15619 65.8884091,254.095238 65.7818182,253.973333 C65.6752273,253.851429 65.6295455,253.699048 65.6295455,253.51619 L65.6295455,212.175238 C65.6295455,211.992381 65.6752273,211.84 65.7818182,211.718095 C65.8884091,211.59619 66.0406818,211.535238 66.2386364,211.535238 L71.4768182,211.535238 L71.4768182,211.535238 Z M73.2431818,216.777143 C73.2431818,216.24381 73.1061364,215.817143 72.8320455,215.466667 C72.5579545,215.11619 72.1011364,214.948571 71.4768182,214.948571 L69.7104545,214.948571 L69.7104545,250.742857 L71.4768182,250.742857 C72.0859091,250.742857 72.5275,250.575238 72.8168182,250.224762 C73.1061364,249.874286 73.2431818,249.447619 73.2431818,248.914286 L73.2431818,216.777143 L73.2431818,216.777143 Z M98.3529545,211.535238 C98.5356818,211.535238 98.6879545,211.580952 98.8097727,211.687619 C98.9315909,211.794286 98.9925,211.946667 98.9925,212.144762 L98.9925,213.180952 C98.9925,213.714286 98.8554545,214.140952 98.5661364,214.460952 C98.2768182,214.780952 97.9113636,214.948571 97.4393182,214.948571 L93.6934091,214.948571 L93.6934091,231.329524 L97.7438636,231.329524 C97.9265909,231.329524 98.0788636,231.375238 98.2006818,231.481905 C98.3225,231.588571 98.3834091,231.740952 98.3834091,231.939048 L98.3834091,232.975238 C98.3834091,233.508571 98.2463636,233.935238 97.9570455,234.255238 C97.6677273,234.575238 97.3022727,234.742857 96.8302273,234.742857 L93.6934091,234.742857 L93.6934091,250.758095 L97.4393182,250.758095 C97.9113636,250.758095 98.2768182,250.925714 98.5661364,251.245714 C98.8554545,251.565714 98.9925,251.992381 98.9925,252.525714 L98.9925,253.561905 C98.9925,253.76 98.9315909,253.912381 98.8097727,254.019048 C98.6879545,254.125714 98.5356818,254.171429 98.3529545,254.171429 L90.2368182,254.171429 C90.0388636,254.171429 89.8865909,254.110476 89.78,253.988571 C89.6734091,253.866667 89.6277273,253.714286 89.6277273,253.531429 L89.6277273,212.190476 C89.6277273,212.007619 89.6734091,211.855238 89.78,211.733333 C89.8865909,211.611429 90.0388636,211.550476 90.2368182,211.550476 L98.3529545,211.550476 L98.3529545,211.535238 Z M121.513636,211.535238 C121.711591,211.535238 121.863864,211.59619 121.970455,211.718095 C122.077045,211.84 122.122727,211.992381 122.122727,212.175238 L122.122727,253.51619 C122.122727,253.699048 122.077045,253.851429 121.970455,253.973333 C121.863864,254.095238 121.711591,254.15619 121.513636,254.15619 L119.808182,254.15619 C119.275227,254.15619 118.879318,254.019048 118.59,253.775238 C118.300682,253.51619 118.133182,253.180952 118.072273,252.754286 C118.072273,252.510476 117.996136,251.946667 117.843864,251.047619 C117.691591,250.148571 117.493636,249.066667 117.265227,247.801905 C117.036818,246.537143 116.762727,245.150476 116.488636,243.626667 C116.199318,242.102857 115.925227,240.579048 115.635909,239.04 C115.346591,237.500952 115.087727,236.053333 114.828864,234.651429 C114.57,233.249524 114.356818,232.045714 114.204545,231.024762 L114.509091,252.358095 C114.524318,252.891429 114.387273,253.318095 114.082727,253.653333 C113.778182,253.988571 113.336591,254.15619 112.742727,254.15619 L111.037273,254.15619 C110.839318,254.15619 110.687045,254.095238 110.580455,253.973333 C110.473864,253.851429 110.428182,253.699048 110.428182,253.51619 L110.428182,212.175238 C110.428182,211.992381 110.473864,211.84 110.580455,211.718095 C110.687045,211.59619 110.839318,211.535238 111.037273,211.535238 L112.742727,211.535238 C113.245227,211.535238 113.671591,211.672381 113.976136,211.946667 C114.295909,212.220952 114.463409,212.586667 114.509091,213.028571 C114.554773,213.348571 114.646136,214.019048 114.783182,215.024762 C114.920227,216.030476 115.102955,217.219048 115.331364,218.620952 C115.559773,220.007619 115.803409,221.51619 116.062273,223.161905 C116.321136,224.792381 116.595227,226.392381 116.869318,227.977143 C117.143409,229.546667 117.402273,231.024762 117.661136,232.380952 C117.92,233.737143 118.133182,234.849524 118.346364,235.733333 L118.041818,213.12 C118.041818,212.647619 118.209318,212.281905 118.529091,211.992381 C118.848864,211.702857 119.275227,211.565714 119.808182,211.565714 L121.513636,211.565714 L121.513636,211.535238 Z M145.862045,217.752381 C145.999091,216.350476 146.181818,215.238095 146.379773,214.415238 C146.577727,213.592381 146.806136,212.967619 147.049773,212.540952 C147.293409,212.114286 147.552273,211.84 147.841591,211.718095 C148.130909,211.59619 148.405,211.535238 148.694318,211.535238 L151.008864,211.535238 C151.206818,211.535238 151.359091,211.59619 151.465682,211.718095 C151.572273,211.84 151.617955,211.992381 151.617955,212.175238 L151.617955,253.51619 C151.617955,253.699048 151.572273,253.851429 151.465682,253.973333 C151.359091,254.095238 151.206818,254.15619 151.008864,254.15619 L149.303409,254.15619 C148.709545,254.15619 148.267955,253.988571 147.963409,253.653333 C147.658864,253.318095 147.521818,252.891429 147.537045,252.358095 L148.450682,222.521905 L145.313864,252.632381 C145.268182,253.059048 145.039773,253.409524 144.613409,253.714286 C144.187045,254.00381 143.715,254.15619 143.2125,254.15619 L143.151591,254.15619 C142.649091,254.15619 142.177045,254.00381 141.750682,253.714286 C141.324318,253.424762 141.095909,253.059048 141.050227,252.632381 L137.882955,222.460952 L138.796591,252.358095 C138.811818,252.891429 138.674773,253.318095 138.370227,253.653333 C138.065682,253.988571 137.624091,254.15619 137.030227,254.15619 L135.324773,254.15619 C135.126818,254.15619 134.974545,254.095238 134.867955,253.973333 C134.761364,253.851429 134.715682,253.699048 134.715682,253.51619 L134.715682,212.175238 C134.715682,211.992381 134.761364,211.84 134.867955,211.718095 C134.974545,211.59619 135.126818,211.535238 135.324773,211.535238 L137.395682,211.535238 C137.685,211.535238 137.989545,211.580952 138.294091,211.702857 C138.613864,211.809524 138.903182,212.08381 139.1925,212.510476 C139.481818,212.937143 139.740682,213.561905 139.969091,214.384762 C140.1975,215.207619 140.380227,216.335238 140.5325,217.752381 L143.182045,243.504762 L145.862045,217.752381 Z M171.52,211.535238 C171.717955,211.535238 171.870227,211.59619 171.976818,211.718095 C172.083409,211.84 172.144318,211.977143 172.159545,212.144762 L175.814091,253.394286 C175.829318,253.577143 175.783636,253.744762 175.646591,253.912381 C175.509545,254.08 175.296364,254.15619 175.022273,254.15619 L173.53,254.15619 C173.0275,254.15619 172.601136,254.00381 172.266136,253.714286 C171.931136,253.424762 171.733182,253.059048 171.702727,252.632381 L171.3525,246.811429 L168.230909,246.811429 L167.895909,252.632381 C167.850227,253.059048 167.6675,253.409524 167.3325,253.714286 C166.9975,254.00381 166.571136,254.15619 166.068636,254.15619 L164.576364,254.15619 C164.287045,254.15619 164.089091,254.08 163.952045,253.912381 C163.815,253.744762 163.754091,253.577143 163.784545,253.394286 L167.439091,212.144762 C167.454318,211.977143 167.515227,211.84 167.621818,211.718095 C167.728409,211.59619 167.865455,211.535238 168.048182,211.535238 L171.52,211.535238 L171.52,211.535238 Z M168.413636,243.398095 L171.154545,243.398095 L169.768864,220.632381 L168.413636,243.398095 Z M194.924318,237.302857 C194.924318,236.769524 195.061364,236.342857 195.350682,236.007619 C195.64,235.672381 196.066364,235.504762 196.629773,235.474286 L198.396136,235.474286 C198.594091,235.474286 198.746364,235.535238 198.852955,235.657143 C198.959545,235.779048 199.005227,235.931429 199.005227,236.114286 L199.005227,249.386667 C199.005227,251.017143 198.502727,252.281905 197.467273,253.226667 C196.447045,254.15619 195.000455,254.628571 193.157955,254.628571 C192.259545,254.628571 191.467727,254.506667 190.752045,254.262857 C190.036364,254.019048 189.427273,253.668571 188.909545,253.211429 C188.391818,252.754286 187.995909,252.205714 187.721818,251.565714 C187.447727,250.925714 187.310682,250.209524 187.310682,249.401905 L187.310682,216.289524 C187.310682,214.659048 187.828409,213.394286 188.848636,212.449524 C189.868864,211.52 191.300227,211.047619 193.142727,211.047619 C194.010682,211.047619 194.817727,211.169524 195.533409,211.413333 C196.249091,211.657143 196.873409,212.007619 197.391136,212.464762 C197.908864,212.921905 198.304773,213.470476 198.578864,214.110476 C198.852955,214.750476 198.99,215.481905 198.99,216.289524 L198.99,229.927619 C198.99,230.110476 198.944318,230.262857 198.837727,230.384762 C198.731136,230.506667 198.578864,230.567619 198.380909,230.567619 L196.675455,230.567619 C196.081591,230.567619 195.655227,230.4 195.350682,230.064762 C195.061364,229.729524 194.909091,229.302857 194.909091,228.769524 L194.909091,216.289524 C194.909091,215.740952 194.772045,215.299048 194.482727,214.96381 C194.193409,214.628571 193.751818,214.460952 193.142727,214.460952 C192.548864,214.460952 192.1225,214.628571 191.817955,214.96381 C191.528636,215.299048 191.376364,215.740952 191.376364,216.289524 L191.376364,249.401905 C191.376364,249.950476 191.513409,250.392381 191.802727,250.727619 C192.092045,251.062857 192.533636,251.230476 193.142727,251.230476 C193.736591,251.230476 194.178182,251.062857 194.4675,250.727619 C194.756818,250.392381 194.909091,249.950476 194.909091,249.401905 L194.909091,237.318095 L194.924318,237.302857 Z M213.623409,211.52 C214.156364,211.52 214.582727,211.657143 214.9025,211.946667 C215.222273,212.23619 215.389773,212.601905 215.389773,213.074286 L215.389773,230.735238 L218.9225,230.735238 L218.9225,213.074286 C218.9225,212.601905 219.09,212.23619 219.409773,211.946667 C219.729545,211.657143 220.155909,211.52 220.688864,211.52 L222.394318,211.52 C222.592273,211.52 222.744545,211.580952 222.851136,211.702857 C222.957727,211.824762 223.003409,211.977143 223.003409,212.16 L223.003409,253.500952 C223.003409,253.68381 222.957727,253.83619 222.851136,253.958095 C222.744545,254.08 222.592273,254.140952 222.394318,254.140952 L220.688864,254.140952 C220.095,254.140952 219.668636,253.973333 219.364091,253.638095 C219.074773,253.302857 218.9225,252.87619 218.9225,252.342857 L218.9225,234.133333 L215.389773,234.133333 L215.389773,252.342857 C215.389773,252.87619 215.252727,253.302857 214.948182,253.638095 C214.658864,253.973333 214.202045,254.140952 213.623409,254.140952 L211.917955,254.140952 C211.72,254.140952 211.567727,254.08 211.461136,253.958095 C211.354545,253.83619 211.308864,253.68381 211.308864,253.500952 L211.308864,212.16 C211.308864,211.977143 211.354545,211.824762 211.461136,211.702857 C211.567727,211.580952 211.72,211.52 211.917955,211.52 L213.623409,211.52 Z M244.032273,211.52 C244.215,211.52 244.367273,211.565714 244.489091,211.672381 C244.610909,211.779048 244.671818,211.931429 244.671818,212.129524 L244.671818,213.165714 C244.671818,213.699048 244.534773,214.125714 244.245455,214.445714 C243.956136,214.765714 243.590682,214.933333 243.118636,214.933333 L239.372727,214.933333 L239.372727,231.314286 L243.423182,231.314286 C243.605909,231.314286 243.758182,231.36 243.88,231.466667 C244.001818,231.573333 244.062727,231.725714 244.062727,231.92381 L244.062727,232.96 C244.062727,233.493333 243.925682,233.92 243.636364,234.24 C243.347045,234.56 242.981591,234.727619 242.509545,234.727619 L239.372727,234.727619 L239.372727,250.742857 L243.118636,250.742857 C243.590682,250.742857 243.956136,250.910476 244.245455,251.230476 C244.534773,251.550476 244.671818,251.977143 244.671818,252.510476 L244.671818,253.546667 C244.671818,253.744762 244.610909,253.897143 244.489091,254.00381 C244.367273,254.110476 244.215,254.15619 244.032273,254.15619 L235.916136,254.15619 C235.718182,254.15619 235.565909,254.095238 235.459318,253.973333 C235.352727,253.851429 235.307045,253.699048 235.307045,253.51619 L235.307045,212.175238 C235.307045,211.992381 235.352727,211.84 235.459318,211.718095 C235.565909,211.59619 235.718182,211.535238 235.916136,211.535238 L244.032273,211.535238 L244.032273,211.52 Z M262.030909,211.52 C262.898864,211.52 263.690682,211.641905 264.406364,211.900952 C265.122045,212.16 265.731136,212.510476 266.233636,212.952381 C266.736136,213.394286 267.132045,213.942857 267.406136,214.598095 C267.680227,215.253333 267.817273,215.969524 267.817273,216.761905 L267.817273,231.192381 C267.817273,232.091429 267.649773,232.822857 267.284318,233.386667 C266.934091,233.950476 266.431591,234.407619 265.807273,234.758095 C266.431591,235.108571 266.934091,235.550476 267.284318,236.114286 C267.634545,236.678095 267.817273,237.394286 267.817273,238.262857 L267.817273,253.51619 C267.817273,253.699048 267.771591,253.851429 267.665,253.973333 C267.558409,254.095238 267.406136,254.15619 267.208182,254.15619 L265.502727,254.15619 C264.908864,254.15619 264.4825,253.988571 264.177955,253.653333 C263.888636,253.318095 263.736364,252.891429 263.736364,252.358095 L263.736364,238.262857 C263.736364,237.714286 263.599318,237.272381 263.325227,236.937143 C263.051136,236.601905 262.594318,236.434286 261.97,236.434286 L260.203636,236.434286 L260.203636,252.358095 C260.203636,252.891429 260.066591,253.318095 259.762045,253.653333 C259.472727,253.988571 259.015909,254.15619 258.437273,254.15619 L256.731818,254.15619 C256.533864,254.15619 256.381591,254.095238 256.275,253.973333 C256.168409,253.851429 256.122727,253.699048 256.122727,253.51619 L256.122727,212.175238 C256.122727,211.992381 256.168409,211.84 256.275,211.718095 C256.381591,211.59619 256.533864,211.535238 256.731818,211.535238 L262.030909,211.535238 L262.030909,211.52 Z M260.203636,214.933333 L260.203636,233.020952 L261.97,233.020952 C262.579091,233.020952 263.020682,232.853333 263.31,232.502857 C263.599318,232.152381 263.736364,231.725714 263.736364,231.192381 L263.736364,216.761905 C263.736364,216.228571 263.599318,215.801905 263.294773,215.451429 C263.005455,215.100952 262.548636,214.933333 261.97,214.933333 L260.203636,214.933333 L260.203636,214.933333 Z"/>
    <g transform="translate(53.295)">
      <path fill-rule="nonzero" d="M104.154545,15.8933333 C115.788182,19.5047619 126.295,25.7066667 134.959318,33.8285714 L129.599318,41.8438095 C121.787727,34.1942857 112.179318,28.3428571 101.489773,25.0057143 L104.154545,15.8780952 L104.154545,15.8933333 Z M154.069545,61.3790476 C157.982955,70.7961905 160.145227,81.112381 160.145227,91.9466667 C160.145227,113.935238 151.237273,133.83619 136.8475,148.23619 C122.990682,162.102857 104.032727,170.88 83.0495455,171.52 L85.9122727,161.859048 C103.134318,160.56381 118.635682,153.03619 130.132273,141.531429 C142.801364,128.853333 150.643409,111.314286 150.643409,91.9619048 C150.643409,87.1161905 150.156136,82.3771429 149.212045,77.7904762 L154.054318,61.3790476 L154.069545,61.3790476 Z M55.7013636,167.573333 C44.9661364,164.038095 35.2511364,158.278095 27.0893182,150.841905 L30.1652273,140.586667 C30.4697727,140.906667 30.7743182,141.211429 31.0788636,141.531429 C38.6620455,149.12 47.9963636,154.986667 58.4118182,158.460952 L55.7165909,167.573333 L55.7013636,167.573333 Z M6.97409091,122.133333 C3.16727273,112.822857 1.05068182,102.628571 1.05068182,91.9466667 C1.05068182,69.9580952 9.95863636,50.0571429 24.3484091,35.6571429 C37.8702273,22.1257143 56.2343182,13.44 76.6236364,12.4342857 L73.7456818,22.1714286 C57.1327273,23.7866667 42.2252273,31.207619 31.0636364,42.3771429 C18.3945455,55.0552381 10.5525,72.5942857 10.5525,91.9466667 C10.5525,96.6247619 11.0093182,101.180952 11.8772727,105.6 L6.97409091,122.118095 L6.97409091,122.133333 Z"/>
      <polygon points="7.035 142.827 36.987 41.082 53.783 41.082 40.992 84.069 40.246 86.659 60.65 86.659 86.065 0 102.662 0 60.848 142.827 44.25 142.827 56.889 99.718 36.393 99.718 23.739 142.827"/>
      <polygon fill-rule="nonzero" points="105.22 76.632 73.015 184.625 56.417 184.625 98.947 41.082 115.453 41.082 118.301 69.044 137 41.082 154.161 41.082 124.026 142.827 107.428 142.827 126.995 76.632 108.738 101.623"/>
    </g>
  </g>
</svg>
