<svg xmlns="http://www.w3.org/2000/svg" width="320" height="254" viewBox="0 0 320 254">
  <g fill="none" fill-rule="evenodd">
    <path fill="#122337" d="M130.844,13.543 C130.844,20.922 124.859,26.91 117.5,26.91 C110.098,26.91 104.113,20.922 104.113,13.543 C104.113,6.16 110.098,0.176 117.5,0.176 C124.859,0.176 130.844,6.16 130.844,13.543 Z"/>
    <polygon fill="#122337" points="187.059 124.277 217.977 124.277 217.977 36.934 187.059 36.934 151.125 86.484 159.797 95.555 187.059 68.316"/>
    <polygon fill="#122337" points="154.656 66.879 132.938 36.934 102.02 36.934 102.02 124.277 132.938 124.277 132.938 68.316 145.312 80.668"/>
    <path fill="#122337" d="M215.883,13.543 C215.883,20.922 209.875,26.91 202.516,26.91 C195.113,26.91 189.152,20.922 189.152,13.543 C189.152,6.16 195.113,0.176 202.516,0.176 C209.898,0.176 215.883,6.16 215.883,13.543 Z"/>
    <polygon fill="#122337" points="44.094 208.488 43.945 182.625 31.383 203.688 25.25 203.688 12.773 183.32 12.773 208.488 0 208.488 0 159.68 11.379 159.68 28.527 187.848 45.277 159.68 56.637 159.68 56.785 208.488"/>
    <path fill="#122337" d="M99.27 199.016L78.609 199.016 74.781 208.488 60.695 208.488 82.246 159.68 95.844 159.68 117.457 208.488 103.098 208.488 99.27 199.016zM95.211 188.82L88.93 173.191 82.668 188.82 95.211 188.82zM145.016 209.484C139.898 209.484 135.309 208.383 131.246 206.227 127.164 204.07 123.973 201.066 121.645 197.195 119.32 193.348 118.156 188.969 118.156 184.082 118.156 179.199 119.32 174.82 121.645 170.973 123.973 167.102 127.164 164.098 131.246 161.941 135.309 159.785 139.898 158.684 145.016 158.684 149.477 158.684 153.516 159.488 157.09 161.074 160.664 162.641 163.645 164.922 166.016 167.906L157.238 175.855C154.066 172.027 150.238 170.125 145.711 170.125 143.07 170.125 140.699 170.719 138.629 171.879 136.578 173.043 134.969 174.672 133.828 176.785 132.684 178.902 132.113 181.332 132.113 184.082 132.113 186.832 132.684 189.266 133.828 191.379 134.969 193.496 136.578 195.121 138.629 196.285 140.699 197.449 143.07 198.043 145.711 198.043 150.238 198.043 154.066 196.137 157.238 192.309L166.016 200.262C163.645 203.242 160.664 205.527 157.09 207.094 153.516 208.68 149.477 209.484 145.016 209.484z"/>
    <polygon fill="#122337" points="218.609 159.68 218.609 208.488 204.801 208.488 204.801 189.453 185.957 189.453 185.957 208.488 172.148 208.488 172.148 159.68 185.957 159.68 185.957 178.016 204.801 178.016 204.801 159.68"/>
    <polygon fill="#122337" points="267.57 197.828 267.57 208.488 228.383 208.488 228.383 159.68 266.68 159.68 266.68 170.336 242.043 170.336 242.043 178.562 263.742 178.562 263.742 188.906 242.043 188.906 242.043 197.828"/>
    <path fill="#122337" d="M296.605,195.523 L289.055,195.523 L289.055,208.488 L275.246,208.488 L275.246,159.68 L297.578,159.68 C302,159.68 305.828,160.398 309.082,161.855 C312.34,163.336 314.855,165.43 316.613,168.137 C318.391,170.867 319.277,174.059 319.277,177.738 C319.277,181.27 318.453,184.359 316.781,186.98 C315.133,189.602 312.785,191.656 309.719,193.156 L320.25,208.488 L305.445,208.488 L296.605,195.523 Z M305.32,177.738 C305.32,175.453 304.602,173.699 303.16,172.43 C301.703,171.184 299.566,170.547 296.734,170.547 L289.055,170.547 L289.055,184.844 L296.734,184.844 C299.566,184.844 301.703,184.23 303.16,183.004 C304.602,181.777 305.32,180.023 305.32,177.738 Z"/>
    <polygon fill="#122337" points="16.602 253.113 16.582 240.359 10.258 250.996 9.094 250.996 2.77 240.445 2.77 253.113 .379 253.113 .379 235.621 2.434 235.621 9.727 247.91 16.918 235.621 18.969 235.621 18.992 253.113"/>
    <path fill="#122337" d="M50.461,248.734 L41.156,248.734 L39.23,253.113 L36.672,253.113 L44.582,235.621 L47.055,235.621 L55.008,253.113 L52.383,253.113 L50.461,248.734 Z M49.594,246.746 L45.809,238.16 L42.043,246.746 L49.594,246.746 Z"/>
    <polygon fill="#122337" points="87.723 235.621 87.723 253.113 85.672 253.113 75.184 240.062 75.184 253.113 72.688 253.113 72.688 235.621 74.719 235.621 85.227 248.672 85.227 235.621"/>
    <path fill="#122337" d="M115.281,253.324 C112.953,253.324 111.133,252.645 109.844,251.312 C108.535,249.98 107.879,248.059 107.879,245.562 L107.879,235.621 L110.395,235.621 L110.395,245.457 C110.395,249.219 112.023,251.082 115.301,251.082 C116.91,251.082 118.137,250.617 118.98,249.707 C119.828,248.777 120.25,247.359 120.25,245.457 L120.25,235.621 L122.684,235.621 L122.684,245.562 C122.684,248.078 122.027,250.004 120.734,251.336 C119.426,252.645 117.629,253.324 115.281,253.324 Z"/>
    <polygon fill="#122337" points="145.375 237.801 145.375 243.891 154.152 243.891 154.152 246.047 145.375 246.047 145.375 253.113 142.879 253.113 142.879 235.621 155.23 235.621 155.23 237.801"/>
    <path fill="#122337" d="M184.16,248.734 L174.855,248.734 L172.93,253.113 L170.352,253.113 L178.281,235.621 L180.754,235.621 L188.707,253.113 L186.086,253.113 L184.16,248.734 Z M183.273,246.746 L179.508,238.16 L175.742,246.746 L183.273,246.746 Z"/>
    <polygon fill="#122337" points="212.074 245.328 208.863 248.586 208.863 253.113 206.367 253.113 206.367 235.621 208.863 235.621 208.863 245.391 218.379 235.621 221.211 235.621 213.746 243.488 221.699 253.113 218.758 253.113"/>
    <polygon fill="#122337" points="241.812 237.801 235.805 237.801 235.805 235.621 250.27 235.621 250.27 237.801 244.285 237.801 244.285 253.113 241.812 253.113"/>
    <path fill="#122337" d="M274.992 253.324C272.668 253.324 270.848 252.645 269.535 251.312 268.246 249.98 267.59 248.059 267.59 245.562L267.59 235.621 270.086 235.621 270.086 245.457C270.086 249.219 271.734 251.082 275.012 251.082 276.621 251.082 277.848 250.617 278.695 249.707 279.539 248.777 279.961 247.359 279.961 245.457L279.961 235.621 282.395 235.621 282.395 245.562C282.395 248.078 281.738 250.004 280.449 251.336 279.137 252.645 277.32 253.324 274.992 253.324zM314.285 253.113L310.5 247.738C310.035 247.781 309.676 247.781 309.402 247.781L305.086 247.781 305.086 253.113 302.57 253.113 302.57 235.621 309.402 235.621C311.664 235.621 313.461 236.152 314.75 237.25 316.043 238.328 316.695 239.809 316.695 241.711 316.695 243.066 316.359 244.207 315.703 245.16 315.027 246.113 314.098 246.809 312.848 247.23L316.992 253.113 314.285 253.113zM309.336 245.668C310.902 245.668 312.129 245.328 312.953 244.633 313.777 243.953 314.203 242.98 314.203 241.711 314.203 240.445 313.777 239.473 312.953 238.793 312.129 238.137 310.902 237.801 309.336 237.801L305.086 237.801 305.086 245.668 309.336 245.668z"/>
  </g>
</svg>
