<svg xmlns="http://www.w3.org/2000/svg" width="408" height="101" viewBox="0 0 408 101">
  <g fill="#122337" fill-rule="evenodd">
    <path d="M23.246,10.781 C23.246,16.738 18.414,21.559 12.48,21.559 C6.512,21.559 1.691,16.738 1.691,10.781 C1.695,4.836 6.512,0.004 12.48,0.004 C18.418,0.004 23.246,4.836 23.246,10.781 Z"/>
    <polygon points="68.559 100.066 93.492 100.066 93.492 29.633 68.559 29.633 39.59 69.598 46.59 76.91 68.559 54.945"/>
    <polygon points="42.441 53.781 24.934 29.633 0 29.633 0 100.066 24.934 100.066 24.934 54.945 34.898 64.91"/>
    <path d="M91.801,10.781 C91.801,16.738 86.969,21.559 81.035,21.559 C75.07,21.559 70.25,16.738 70.25,10.781 C70.254,4.836 75.07,0.004 81.035,0.004 C86.977,0.004 91.801,4.836 91.801,10.781 Z"/>
    <polygon points="132.371 100.312 132.348 88.617 126.547 98.363 125.492 98.363 119.688 88.688 119.688 100.312 117.488 100.312 117.488 84.258 119.367 84.258 126.062 95.543 132.668 84.258 134.551 84.258 134.57 100.312"/>
    <path d="M163.438,96.301 L154.906,96.301 L153.141,100.312 L150.781,100.312 L158.051,84.258 L160.32,84.258 L167.613,100.312 L165.203,100.312 L163.438,96.301 Z M162.637,94.465 L159.172,86.598 L155.711,94.465 L162.637,94.465 Z"/>
    <polygon points="197.629 84.258 197.629 100.312 195.746 100.312 186.113 88.34 186.113 100.312 183.82 100.312 183.82 84.258 185.703 84.258 195.332 96.23 195.332 84.258"/>
    <path d="M222.918,100.496 C220.777,100.496 219.109,99.883 217.918,98.66 C216.727,97.438 216.129,95.68 216.129,93.387 L216.129,84.258 L218.422,84.258 L218.422,93.297 C218.422,96.734 219.926,98.453 222.938,98.453 C224.406,98.453 225.531,98.031 226.312,97.184 C227.09,96.332 227.48,95.039 227.48,93.297 L227.48,84.258 L229.703,84.258 L229.703,93.387 C229.703,95.695 229.109,97.457 227.914,98.672 C226.723,99.887 225.059,100.496 222.918,100.496 Z"/>
    <polygon points="250.523 86.254 250.523 91.852 258.57 91.852 258.57 93.824 250.523 93.824 250.523 100.312 248.23 100.312 248.23 84.258 259.559 84.258 259.559 86.254"/>
    <path d="M286.109,96.301 L277.578,96.301 L275.812,100.312 L273.449,100.312 L280.719,84.258 L282.988,84.258 L290.281,100.312 L287.875,100.312 L286.109,96.301 Z M285.305,94.465 L281.844,86.598 L278.379,94.465 L285.305,94.465 Z"/>
    <polygon points="311.719 93.18 308.785 96.16 308.785 100.312 306.492 100.312 306.492 84.258 308.785 84.258 308.785 93.227 317.5 84.258 320.113 84.258 313.258 91.484 320.551 100.312 317.867 100.312"/>
    <polygon points="339.004 86.254 333.5 86.254 333.5 84.258 346.781 84.258 346.781 86.254 341.273 86.254 341.273 100.312 339.004 100.312"/>
    <path d="M369.457 100.496C367.316 100.496 365.648 99.883 364.457 98.66 363.262 97.438 362.668 95.68 362.668 93.387L362.668 84.258 364.961 84.258 364.961 93.297C364.961 96.734 366.465 98.453 369.477 98.453 370.945 98.453 372.07 98.031 372.852 97.184 373.629 96.332 374.02 95.039 374.02 93.297L374.02 84.258 376.242 84.258 376.242 93.387C376.242 95.695 375.648 97.457 374.453 98.672 373.262 99.887 371.598 100.496 369.457 100.496zM405.5 100.312L402.039 95.383C401.609 95.414 401.273 95.43 401.027 95.43L397.062 95.43 397.062 100.312 394.77 100.312 394.77 84.258 401.027 84.258C403.109 84.258 404.742 84.758 405.938 85.75 407.129 86.742 407.727 88.113 407.727 89.855 407.727 91.094 407.418 92.148 406.809 93.02 406.195 93.891 405.324 94.527 404.191 94.922L408 100.312 405.5 100.312zM400.961 93.477C402.414 93.477 403.52 93.164 404.285 92.539 405.051 91.91 405.43 91.016 405.43 89.855 405.43 88.691 405.051 87.801 404.285 87.184 403.52 86.562 402.414 86.254 400.961 86.254L397.062 86.254 397.062 93.477 400.961 93.477z"/>
    <polygon points="157.484 75.34 157.355 51.867 145.965 70.977 140.398 70.977 129.07 52.5 129.07 75.34 117.492 75.34 117.492 31.047 127.805 31.047 143.371 56.609 158.559 31.047 168.871 31.047 169 75.34"/>
    <path d="M207.535 66.734L188.805 66.734 185.324 75.34 172.543 75.34 192.094 31.047 204.434 31.047 224.047 75.34 211.016 75.34 207.535 66.734zM203.863 57.496L198.168 43.324 192.473 57.496 203.863 57.496zM249.043 76.227C244.402 76.227 240.238 75.246 236.547 73.285 232.855 71.324 229.953 68.594 227.844 65.09 225.734 61.59 224.68 57.625 224.68 53.195 224.68 48.766 225.734 44.801 227.844 41.297 229.953 37.797 232.855 35.066 236.547 33.105 240.238 31.145 244.402 30.16 249.043 30.16 253.094 30.16 256.742 30.879 259.988 32.312 263.238 33.746 265.938 35.812 268.09 38.516L260.117 45.727C257.246 42.27 253.766 40.539 249.676 40.539 247.27 40.539 245.129 41.066 243.254 42.121 241.375 43.176 239.922 44.664 238.887 46.582 237.852 48.5 237.336 50.707 237.336 53.195 237.336 55.684 237.852 57.887 238.887 59.809 239.922 61.727 241.375 63.215 243.254 64.27 245.129 65.324 247.27 65.852 249.676 65.852 253.766 65.852 257.246 64.121 260.117 60.66L268.09 67.875C265.938 70.574 263.238 72.641 259.988 74.074 256.742 75.512 253.094 76.227 249.043 76.227z"/>
    <polygon points="315.797 31.047 315.797 75.34 303.27 75.34 303.27 58.066 286.184 58.066 286.184 75.34 273.656 75.34 273.656 31.047 286.184 31.047 286.184 47.688 303.27 47.688 303.27 31.047"/>
    <polygon points="360.219 65.66 360.219 75.34 324.656 75.34 324.656 31.047 359.395 31.047 359.395 40.73 337.059 40.73 337.059 48.195 356.738 48.195 356.738 57.559 337.059 57.559 337.059 65.66"/>
    <path d="M386.543,63.57 L379.707,63.57 L379.707,75.34 L367.18,75.34 L367.18,31.047 L387.426,31.047 C391.434,31.047 394.914,31.711 397.867,33.043 C400.82,34.371 403.098,36.27 404.699,38.734 C406.305,41.203 407.105,44.105 407.105,47.438 C407.105,50.645 406.355,53.438 404.859,55.82 C403.363,58.203 401.223,60.07 398.438,61.422 L407.992,75.34 L394.578,75.34 L386.543,63.57 Z M394.449,47.438 C394.449,45.371 393.797,43.766 392.488,42.629 C391.18,41.488 389.242,40.918 386.668,40.918 L379.707,40.918 L379.707,53.891 L386.668,53.891 C389.242,53.891 391.18,53.332 392.488,52.215 C393.797,51.098 394.449,49.504 394.449,47.438 Z"/>
  </g>
</svg>
