<svg xmlns="http://www.w3.org/2000/svg" width="364" height="256" viewBox="0 0 364 256">
  <g fill="none" fill-rule="evenodd">
    <path fill="#343F33" d="M119.024348 209.85661C123.931652 209.328762 123.665043 211.432838 123.665043 217.490286L123.665043 240.485181 126.998261 240.485181 126.998261 221.176686C126.998261 214.332952 131.201913 209.7664 138.041217 209.7664 144.879304 209.7664 146.890435 214.857143 146.890435 221.176686L146.890435 240.485181 150.223652 240.485181 150.223652 221.176686C150.223652 214.419505 154.166783 209.7664 161.00487 209.681067 167.576348 209.681067 169.502261 214.77181 169.502261 220.737829L169.502261 232.938057C169.502261 238.990629 171.081217 241.800533 177.567478 240.571733L177.567478 237.93859C172.48487 238.818743 172.745391 236.362362 172.745391 232.500419L172.745391 220.824381C172.745391 213.4528 170.382435 206.957714 161.880174 206.957714 155.830957 206.957714 150.923652 209.7664 149.082957 214.947352 147.945913 210.205257 144.879304 206.957714 138.915304 206.957714 133.132696 206.957714 129.015478 209.328762 126.822957 213.980648 126.822957 209.243429 124.892174 206.343314 119.109565 207.570895L119.109565 210.028495 119.024348 209.85661zM213.062957 210.028495C209.034609 208.099962 204.74087 206.957714 200.355826 206.957714 189.837565 206.957714 182.566087 213.100495 182.389565 223.723276 182.389565 232.938057 187.473391 241.009371 197.374435 241.009371 203.161913 241.009371 207.893913 238.376229 210.346957 232.938057L210.346957 234.519162C210.346957 239.342933 212.102435 241.361676 217.533217 240.661943L217.446783 237.761829C213.153043 238.290895 213.238261 236.1856 213.238261 232.671086L213.238261 210.118705 213.153043 210.118705 213.062957 210.028495zM209.99513 223.895162C209.99513 232.148114 205.52487 237.852038 197.901565 237.852038 189.927652 237.852038 185.632696 231.356952 185.632696 223.723276 185.809217 214.857143 191.76713 209.681067 200.270609 209.681067 203.24713 209.681067 206.752 210.47101 209.99513 212.047238L209.99513 223.895162zM254.871826 216.700343C252.680522 210.118705 246.454783 206.871162 240.058609 206.871162 231.47113 206.780952 222.530609 212.661638 222.530609 223.985371 222.530609 235.304229 231.119304 241.099581 239.621565 241.099581 246.193043 241.099581 252.941043 237.499733 255.133565 230.214705L251.805217 230.214705C249.697913 235.48099 244.790609 238.0288 239.706783 238.0288 232.873565 238.0288 225.683652 233.200152 225.683652 223.895162 225.683652 214.595048 233.050087 209.7664 239.973391 209.7664 244.790609 209.7664 249.437391 212.047238 251.453391 216.61379L254.781739 216.61379 254.781739 216.700343 254.871826 216.700343zM266.965391 221.090133C266.965391 214.332952 271.435652 209.590857 278.273739 209.590857 285.720522 209.590857 289.054957 213.100495 289.054957 220.824381L289.054957 234.166857C289.054957 239.605029 291.417913 241.623771 297.115304 240.485181L297.02887 237.761829C292.820348 238.55299 292.383304 236.885333 292.383304 233.990095L292.383304 220.91459C292.383304 212.047238 287.736522 206.780952 278.797217 206.780952 274.150435 206.780952 269.594957 208.714362 266.965391 213.100495L266.965391 190.548114 263.637043 190.548114 263.637043 240.571733 267.055478 240.571733 267.055478 221.266895 266.965391 221.266895 266.965391 221.090133zM331.035478 235.747962C327.530609 237.32419 323.583826 238.114133 319.993739 238.114133 310.173043 238.114133 304.21513 232.323657 305.180522 222.933333 308.770609 225.828571 314.643304 226.88061 319.28887 226.88061 325.162783 226.88061 332.00087 224.509562 332.614435 217.752381 333.398435 210.205257 325.514609 206.871162 319.028348 206.871162 309.736 206.957714 303.163304 212.31421 302.197913 221.704533 300.885565 233.814552 307.895304 241.276343 319.902435 241.276343 323.673913 241.276343 327.530609 240.571733 331.120696 238.990629L331.120696 235.747962 331.035478 235.747962zM305.532348 219.861333C306.929913 213.100495 312.013739 209.7664 318.937043 209.7664 323.75913 209.7664 329.808348 211.871695 329.194783 217.404952 328.842957 222.495695 323.145565 223.723276 318.851826 223.723276 314.558087 223.723276 308.598957 222.666362 305.532348 219.861333zM345.320348 211.961905C345.320348 208.099962 343.042609 206.780952 337.783478 207.662324L337.868696 210.47101C341.992 209.943162 342.077217 211.961905 342.077217 215.209448L342.077217 240.571733 345.406783 240.571733 345.406783 219.248152C345.406783 213.713676 350.142435 210.205257 355.049739 210.205257 357.680522 210.205257 360.395304 210.909867 362.587826 212.486095L363.723652 209.681067C361.537217 208.099962 358.554609 207.133257 355.311478 207.047924 351.546087 206.780952 347.51287 208.185295 345.320348 212.047238L345.320348 211.961905z"/>
    <path fill="#82C745" d="M55.0394783 213.013943C55.3913043 213.366248 55.4765217 213.713676 55.306087 214.0672 55.2147826 214.419505 55.1295652 214.77181 55.0394783 215.119238 55.0394783 215.209448 55.0394783 215.294781 54.9542609 215.294781 54.8629565 215.38621 54.8629565 215.38621 54.7777391 215.471543L53.1987826 218.104686C52.9370435 218.633752 52.6765217 219.07139 52.3234783 219.509029 52.0629565 219.947886 51.7963478 220.385524 51.4493913 220.91459 51.1827826 221.352229 50.9210435 221.791086 50.6593043 222.228724 50.3975652 222.666362 50.1321739 223.018667 49.8704348 223.547733 49.6086957 223.985371 49.4321739 224.337676 49.1667826 224.776533 48.9050435 225.214171 48.7285217 225.566476 48.4667826 226.090667 48.2914783 226.352762 48.2062609 226.528305 48.2062609 226.795276 48.1149565 227.057371 48.0297391 227.319467 47.9396522 227.585219 47.768 227.671771 47.5926957 227.671771 47.4161739 227.671771 47.5026087 227.933867 47.5026087 228.10941 47.5026087 228.286171 47.5026087 228.461714 47.5026087 228.72381 47.5026087 228.900571 47.5026087 228.985905 47.4161739 229.076114 47.326087 229.161448 47.1544348 229.252876 47.0643478 229.33821 47.0643478 229.428419 46.8890435 229.775848 46.7125217 230.042819 46.6273043 230.390248 46.5408696 230.742552 46.2754783 231.004648 45.9285217 231.18141 45.8372174 231.271619 45.8372174 231.356952 45.8372174 231.442286 45.8372174 231.619048 45.8372174 231.709257 45.8372174 231.886019 45.5766957 232.40899 45.3149565 232.938057 45.0483478 233.462248 44.7866087 233.990095 44.5248696 234.519162 44.3495652 235.133562 44.1730435 235.48099 44.0878261 235.747962 43.9977391 236.010057 43.9113043 236.270933 43.8212174 236.623238 43.736 236.885333L43.736 237.237638C43.3841739 237.499733 43.2076522 237.852038 43.2076522 238.204343 43.2076522 238.6432 43.1224348 238.990629 42.945913 239.342933 42.7706087 239.872 42.594087 240.309638 42.4187826 240.833829 42.2422609 241.361676 42.0718261 241.890743 41.8953043 242.328381 41.72 242.767238 41.6286957 243.204876 41.5434783 243.642514 41.4582609 244.081371 41.3669565 244.523886 41.2817391 245.048076 41.1916522 245.308952 41.1916522 245.485714 41.1064348 245.752686 41.0151304 246.014781 41.0151304 246.190324 41.0151304 246.452419 40.929913 246.627962 41.0151304 246.804724 41.1064348 247.152152 41.0151304 247.242362 40.929913 247.242362 40.8446957 247.328914 40.7546087 247.419124 40.6681739 247.419124 40.578087 247.504457 40.6681739 248.118857 40.7546087 248.733257 40.8446957 249.437867 40.929913 250.052267 40.7546087 250.752 40.4027826 251.3664 40.578087 251.543162 40.6681739 251.628495 40.7546087 251.805257 40.8446957 251.9808 40.8446957 252.242895 40.578087 252.509867 40.4928696 252.68541 40.4928696 252.771962 40.4928696 253.032838 40.578087 253.2096 40.7546087 253.385143 41.0151304 253.471695 41.1916522 253.561905 41.3669565 253.647238 41.4582609 253.738667 41.6286957 253.91421 41.72 253.999543 41.8052174 254.086095 41.8052174 254.261638 41.72 254.351848 41.6286957 254.4384 41.4582609 254.52861 41.3669565 254.613943 41.2817391 254.705371 41.1916522 254.790705 41.1064348 254.876038 41.0151304 254.966248 40.929913 255.0528 40.929913 255.228343 41.0151304 255.490438 40.578087 255.405105 40.2311304 255.318552 39.7892174 255.228343 39.3509565 255.14301 39.004 255.0528 38.8286957 254.790705 38.3003478 254.351848 37.8633043 253.91421 37.5102609 253.385143 37.0732174 252.857295 36.7213913 252.418438 36.4596522 251.805257 36.197913 251.281067 36.0226087 250.843429 35.9325217 250.229029 35.7608696 249.699962 35.6707826 249.170895 35.4942609 248.647924 35.3189565 248.033524 35.3189565 247.419124 35.3189565 246.804724 35.3189565 245.752686 35.3189565 244.785981 35.4090435 243.819276 35.4942609 242.852571 35.5843478 241.890743 35.846087 240.924038 35.9325217 240.747276 35.846087 240.571733 35.7608696 240.394971 35.6707826 240.219429 35.6707826 240.047543 35.6707826 239.872 35.846087 239.518476 35.9325217 239.166171 36.1078261 238.728533 36.2843478 238.376229 36.3744348 237.93859 36.546087 237.589943 36.6361739 237.32419 36.7213913 237.062095 36.8114783 236.70979 36.897913 236.447695 36.988 236.09539 37.0732174 235.833295 37.4250435 234.86659 37.7768696 233.899886 38.0386087 232.847848 38.3904348 231.886019 38.6521739 230.919314 39.004 229.866057 39.4410435 228.72381 39.7892174 227.671771 40.2311304 226.528305 40.6681739 225.476267 41.1064348 224.337676 41.5434783 223.110095 42.4187826 220.824381 43.2977391 218.45699 44.3495652 216.085943 44.7866087 215.119238 45.2236522 214.15741 45.752 213.190705 46.1890435 212.224 46.7125217 211.257295 47.1544348 210.205257 47.2408696 210.028495 47.326087 209.85661 47.326087 209.7664 47.326087 209.504305 47.2408696 209.414095 47.1544348 209.328762 46.9791304 209.243429 46.8890435 209.243429 46.7125217 209.504305 46.1890435 209.943162 45.752 210.3808 45.2236522 210.819657 44.7013913 211.257295 44.2582609 211.69981 43.645913 212.138667 42.7706087 212.92861 41.9805217 213.805105 41.2817391 214.857143 41.1916522 214.947352 41.1916522 214.947352 41.1064348 214.947352 41.0151304 214.947352 41.0151304 215.033905 40.929913 215.033905 40.4928696 215.294781 40.1410435 215.647086 39.7892174 216.00061 39.5274783 216.348038 39.2657391 216.790552 38.913913 217.137981 38.7373913 217.404952 38.6521739 217.575619 38.4756522 217.667048 38.3003478 217.84259 38.1238261 218.019352 37.9485217 218.190019 37.6867826 218.542324 37.5102609 218.804419 37.2497391 219.156724 36.988 219.509029 36.8114783 219.771124 36.546087 220.123429 36.3744348 220.30019 36.3744348 220.385524 36.4596522 220.385524 36.6361739 220.737829 36.546087 220.999924 36.2843478 221.266895 36.0226087 221.52899 35.846087 221.704533 35.6707826 221.966629 35.4090435 222.318933 35.2325217 222.581029 34.972 222.843124 34.7053913 223.110095 34.5337391 223.370971 34.2671304 223.723276 34.0066087 223.985371 33.830087 224.247467 33.7448696 224.599771 33.5683478 224.952076 33.3930435 225.214171 33.2165217 225.476267 32.8646957 226.005333 32.6029565 226.442971 32.2511304 226.967162 31.9041739 227.49501 31.6375652 227.933867 31.2906087 228.461714 31.024 228.814019 30.8535652 229.076114 30.6770435 229.428419 30.5017391 229.775848 30.24 230.042819 30.0634783 230.390248 29.9733913 230.480457 29.9733913 230.480457 29.9733913 230.480457 29.9733913 230.480457 29.9733913 230.56701 29.8881739 230.56701 29.449913 231.004648 29.098087 231.533714 28.8375652 232.056686 28.5709565 232.585752 28.3092174 233.114819 28.0474783 233.63779 27.6956522 234.166857 27.433913 234.604495 27.1673043 235.218895 26.9067826 235.747962 26.5537391 236.270933 26.2932174 236.8 25.9413913 237.4144 25.6796522 237.93859 25.417913 238.466438 25.1561739 238.990629 24.8043478 239.518476 24.5426087 240.047543 24.3673043 240.394971 24.1907826 240.747276 24.1006957 241.099581 23.9290435 241.451886 23.7537391 241.800533 23.5772174 242.066286 23.3106087 242.413714 23.1401739 242.680686 22.8735652 242.942781 22.6118261 243.204876 22.350087 243.466971 22.0846957 243.733943 21.9982609 243.819276 21.9982609 243.909486 21.9982609 243.994819 21.9982609 244.081371 21.9130435 244.171581 21.8229565 244.256914L21.8229565 244.347124C21.7365217 244.523886 21.6464348 244.609219 21.5612174 244.785981 21.4711304 244.961524 21.2994783 245.138286 21.2093913 245.308952 21.0328696 245.223619 20.7711304 245.223619 20.5106087 245.223619 20.244 245.223619 19.9822609 245.138286 19.8069565 244.961524 19.4587826 244.695771 19.1069565 244.433676 18.8452174 244.171581 18.4933913 243.819276 18.318087 243.557181 18.1415652 243.204876 17.9662609 242.767238 17.7897391 242.328381 17.528 241.800533 17.2674783 241.361676 17.3526957 240.833829 17.7045217 240.309638L17.1761739 240.309638C17.0909565 240.047543 17.0909565 239.872 17.0909565 239.695238 17.0909565 239.518476 17.0909565 239.342933 17.0909565 239.166171 17.0909565 238.905295 17.0909565 238.728533 17.0909565 238.466438 17.0909565 238.204343 17.0909565 238.0288 17.1761739 237.761829 17.2674783 237.4144 17.2674783 237.147429 17.3526957 236.885333 17.4427826 236.623238 17.4427826 236.270933 17.528 236.010057 17.6193043 235.747962 17.7045217 235.48099 17.7045217 235.133562 17.7045217 234.781257 17.7897391 234.519162 17.8810435 234.25219 18.318087 232.847848 18.669913 231.442286 19.1069565 230.042819 19.5452174 228.638476 19.8970435 227.232914 20.334087 225.828571 20.4193043 225.65181 20.5958261 225.299505 20.7711304 224.861867 21.1241739 223.985371 21.4711304 223.110095 21.8229565 222.228724 22.1747826 221.352229 22.5266087 220.475733 22.8735652 219.595581 23.2253913 218.804419 23.4871304 218.104686 23.8389565 217.404952 24.1907826 216.700343 24.4525217 215.909181 24.8043478 215.209448 25.3278261 214.15741 25.7697391 213.013943 26.2932174 211.961905 26.8203478 210.819657 27.3438261 209.7664 27.7808696 208.714362 28.224 207.9232 28.5709565 207.133257 29.008 206.343314 29.449913 205.552152 29.798087 204.767086 30.24 203.975924 30.6770435 203.185981 31.024 202.394819 31.4671304 201.604876 31.9041739 200.813714 32.3412174 200.023771 32.6930435 199.233829 32.7794783 199.061943 32.8646957 198.885181 33.0412174 198.709638 33.2165217 198.532876 33.3066087 198.357333 33.3930435 198.180571 33.5683478 197.833143 33.6547826 197.566171 33.6547826 197.305295 33.1313043 197.566171 32.7794783 197.918476 32.4276522 198.272 32.0806957 198.709638 31.7276522 199.061943 31.3758261 199.586133 31.2906087 199.499581 31.2906087 199.499581 31.2906087 199.499581 31.2906087 199.499581 31.2005217 199.499581 31.2005217 199.409371 31.2906087 199.233829 31.3758261 199.061943 31.4671304 198.885181 31.5523478 198.709638 31.6375652 198.532876 31.814087 198.357333 32.3412174 197.833143 32.8646957 197.390629 33.3930435 196.866438 33.9201739 196.33859 34.4436522 195.8144 34.972 195.285333 35.2325217 195.023238 35.4090435 194.847695 35.4942609 194.49539 35.6707826 194.233295 35.7608696 193.9712 35.9325217 193.618895 36.197913 193.181257 36.4596522 193.004495 36.8114783 193.091048 37.0732174 193.181257 37.3349565 193.26659 37.6015652 193.3568 37.8633043 193.443352 38.2151304 193.528686 38.562087 193.618895 38.913913 193.3568 39.2657391 193.443352 39.4410435 193.704229 39.7027826 193.9712 39.9645217 194.233295 40.2311304 194.49539 40.578087 194.933029 40.929913 195.285333 41.3669565 195.637638 41.5434783 195.8144 41.5434783 195.899733 41.5434783 195.899733 41.72 196.604343 41.8953043 197.218743 42.2422609 197.742933 42.594087 198.357333 42.6841739 198.971733 42.594087 199.761676 42.4187826 200.200533 42.2422609 200.638171 41.8953043 201.080686 41.6286957 201.428114 41.3669565 201.780419 41.0151304 202.132724 40.7546087 202.481371 40.4928696 202.833676 40.2311304 203.185981 39.9645217 203.538286 39.7892174 203.800381 39.6175652 204.152686 39.4410435 204.500114 39.2657391 204.767086 39.004 205.114514 38.913913 205.290057 38.8286957 205.381486 38.7373913 205.552152 38.6521739 205.728914 38.562087 205.819124 38.4756522 205.904457 38.0386087 206.166552 37.7768696 206.433524 37.6015652 206.780952 37.5102609 207.133257 37.4250435 207.570895 37.3349565 207.9232 37.3349565 208.099962 37.2497391 208.185295 37.1633043 208.276724 36.8114783 208.5376 36.6361739 208.714362 36.4596522 209.066667 36.2843478 209.328762 36.197913 209.681067 36.0226087 209.943162 35.846087 210.295467 35.5843478 210.642895 35.3189565 210.9952 35.0572174 211.347505 34.7954783 211.69981 34.6201739 212.047238 34.3584348 212.399543 34.181913 212.751848 34.0066087 213.190705 33.830087 213.54301 33.6547826 213.980648 33.4782609 214.332952 33.2165217 214.77181 33.0412174 215.119238 32.8646957 215.561752 32.6930435 216.00061 32.4276522 216.438248 32.2511304 216.875886 32.165913 216.962438 32.165913 217.052648 32.165913 217.137981 32.165913 217.22819 32.0806957 217.22819 32.0806957 217.314743 31.7276522 217.575619 31.4671304 217.752381 31.3758261 218.104686 31.2906087 218.366781 31.2005217 218.633752 31.1153043 218.981181 31.024 219.07139 30.8535652 219.248152 30.5017391 219.509029 30.5869565 219.595581 30.5869565 219.68579 30.5869565 219.771124 30.5869565 219.861333 30.6770435 219.947886 30.6770435 220.033219 30.5869565 220.209981 30.5017391 220.30019 30.3252174 220.475733 30.149913 220.647619 30.0634783 220.824381 29.9733913 220.999924 29.8881739 221.090133 29.8881739 221.176686 29.798087 221.352229 29.7116522 221.52899 29.7116522 221.614324 29.7116522 221.704533 29.6215652 221.966629 29.5363478 222.14339 29.449913 222.404267 29.3598261 222.666362 29.1845217 222.666362 28.8375652 222.581029 29.1845217 223.195429 29.008 223.723276 28.3944348 224.162133 28.3092174 224.247467 28.224 224.424229 28.224 224.599771 28.224 224.776533 28.1326957 224.952076 28.0474783 225.123962 27.9573913 225.299505 27.8721739 225.390933 27.7808696 225.566476 27.6956522 225.738362 27.6104348 225.828571 27.5191304 225.828571 27.1673043 225.738362 26.9968696 225.738362 26.9968696 225.913905 26.9968696 226.090667 26.9968696 226.180876 27.082087 226.352762 26.9067826 226.442971 26.7302609 226.528305 26.5537391 226.618514 26.3833043 226.705067 26.2932174 226.795276 26.1166957 226.88061 26.2932174 226.967162 26.3833043 227.057371 26.4685217 227.142705 26.5537391 227.232914 26.7302609 227.319467 26.8203478 227.409676 26.7302609 227.49501 26.7302609 227.585219 26.6450435 227.757105 26.5537391 227.933867 26.5537391 228.10941 26.4685217 228.286171L26.3833043 228.286171C26.2932174 228.286171 26.2932174 228.286171 26.2932174 228.286171 26.2932174 228.286171 26.2067826 228.286171 26.2067826 228.286171 25.9413913 228.461714 25.8549565 228.547048 25.7697391 228.547048 25.7697391 228.638476 25.7697391 228.638476 25.7697391 228.72381 25.7697391 228.814019 25.8549565 228.900571 25.9413913 228.900571 26.2932174 229.161448 26.2932174 229.428419 25.9413913 229.775848 25.5932174 230.042819 25.417913 230.390248 25.3278261 230.742552 25.2413913 231.18141 25.1561739 231.533714 25.066087 231.886019 24.9808696 231.971352 24.9808696 232.056686 24.9808696 232.233448 24.9808696 232.40899 24.8895652 232.500419 24.8043478 232.585752 24.4525217 232.847848 24.1907826 233.200152 24.1006957 233.552457 24.0154783 233.899886 23.8389565 234.3424 23.6636522 234.691048 23.5772174 234.781257 23.6636522 234.86659 23.8389565 235.133562 24.0154783 234.86659 24.1006957 234.691048 24.1907826 234.604495 24.276 234.428952 24.3673043 234.25219 24.4525217 234.076648 24.7142609 233.728 24.8895652 233.462248 24.9808696 233.200152 25.1561739 232.938057 25.3278261 232.585752 25.5031304 232.323657 25.7697391 231.971352 25.9413913 231.619048 26.2067826 231.271619 26.4685217 230.919314 26.7302609 230.56701 26.9067826 230.214705 27.082087 229.95261 27.2586087 229.775848 27.3438261 229.600305 27.433913 229.428419 27.6104348 229.161448 27.6956522 228.985905 27.9573913 228.547048 28.1326957 228.199619 28.3092174 227.671771 28.4845217 227.232914 28.7462609 226.88061 29.098087 226.618514 29.449913 226.26621 29.7116522 225.913905 29.798087 225.566476 29.8881739 225.214171 30.149913 224.861867 30.4104348 224.509562 30.6770435 224.162133 30.9387826 223.809829 31.2005217 223.457524 31.4671304 223.110095 31.7276522 222.756571 31.9893913 222.404267 32.0806957 222.228724 32.2511304 222.14339 32.4276522 221.966629 32.6029565 221.791086 32.7794783 221.881295 33.0412174 222.14339 33.1313043 222.228724 33.2165217 222.228724 33.3930435 222.14339 33.5683478 222.051962 33.5683478 222.051962 33.5683478 221.966629 33.6547826 221.704533 33.830087 221.52899 34.0066087 221.352229 34.181913 221.176686 34.3584348 220.999924 34.6201739 220.824381 34.8806957 220.562286 35.1473043 220.385524 35.3189565 220.033219 35.4942609 219.771124 35.7608696 219.509029 35.9325217 219.156724 36.0226087 219.07139 36.0226087 219.07139 36.0226087 218.981181 36.0226087 218.894629 36.1078261 218.894629 36.197913 218.804419 36.3744348 218.542324 36.4596522 218.45699 36.6361739 218.366781 36.8114783 218.281448 37.0732174 218.45699 37.3349565 218.804419 36.988 218.45699 36.897913 218.190019 37.0732174 217.929143 37.2497391 217.667048 37.4250435 217.490286 37.6867826 217.22819 38.2151304 216.700343 38.7373913 216.261486 39.2657391 215.733638 39.7892174 215.209448 40.3163478 214.680381 40.8446957 214.15741 41.1916522 213.805105 41.4582609 213.4528 41.8052174 213.190705 42.1570435 212.8384 42.4187826 212.576305 42.7706087 212.224 42.945913 212.047238 43.0323478 211.961905 43.2076522 211.871695 43.3841739 211.785143 43.5594783 211.6096 43.736 211.524267 43.9113043 211.432838 44.0878261 211.257295 44.3495652 210.9952 44.4347826 210.909867 44.5248696 210.819657 44.6113043 210.733105 44.7013913 210.642895 44.8718261 210.642895 45.1384348 210.819657 45.1384348 210.819657 45.3149565 210.733105 45.5766957 210.642895 45.4853913 210.557562 45.4001739 210.47101 45.3149565 210.47101 45.2236522 210.3808 45.1384348 210.3808 45.0483478 210.295467 45.1384348 210.205257 45.3149565 210.028495 45.4853913 209.7664 45.4001739 209.681067 45.3149565 209.681067 45.2236522 209.681067 45.1384348 209.681067 45.0483478 209.590857 44.8718261 209.504305L46.3655652 209.504305C46.4507826 209.414095 46.4507826 209.414095 46.4507826 209.328762 46.1890435 209.152 45.9285217 208.976457 45.752 208.889905 45.8372174 208.799695 45.9285217 208.799695 46.0137391 208.714362 46.0989565 208.629029 46.1890435 208.629029 46.2754783 208.714362 46.6273043 208.799695 46.8890435 208.714362 47.1544348 208.5376 47.326087 208.362057 47.5926957 208.099962 47.768 207.9232 48.2062609 207.395352 48.7285217 207.223467 49.342087 207.485562 49.5186087 207.570895 49.8704348 207.570895 50.3074783 207.662324 50.3975652 207.747657 50.484 207.747657 50.5692174 207.747657 50.6593043 207.747657 50.7457391 207.837867 50.6593043 208.099962 50.6593043 208.185295 50.7457391 208.185295 50.8358261 208.276724 50.9210435 208.362057 51.0111304 208.362057 51.0975652 208.276724 51.6246957 208.185295 51.9716522 208.276724 52.2382609 208.5376 52.5 208.799695 52.7617391 209.066667 53.1135652 209.243429 53.3753043 209.504305 53.5506087 209.681067 53.6370435 210.028495 53.8123478 210.295467 53.9888696 210.557562 54.1641739 210.819657 54.6024348 211.257295 54.7777391 211.6096 54.8629565 212.138667 54.9542609 212.576305 54.9542609 213.100495 55.0394783 213.54301 55.0394783 213.805105 55.0394783 213.890438 55.0394783 213.890438L55.0394783 213.013943zM19.0168696 237.852038C19.1933913 237.32419 19.2834783 236.8 19.4587826 236.270933 19.1069565 236.270933 18.9316522 236.270933 18.7551304 236.362362 18.669913 236.362362 18.669913 236.447695 18.5798261 236.533029 18.4933913 236.623238 18.4933913 236.70979 18.4933913 236.8 18.4033043 237.147429 18.318087 237.499733 18.318087 237.93859 18.318087 238.290895 18.2328696 238.728533 18.2328696 239.166171 18.5798261 239.080838 18.669913 238.905295 18.7551304 238.6432 18.7551304 238.376229 18.8452174 238.204343 18.9316522 237.93859L19.0168696 237.852038zM20.5106087 232.056686C20.8575652 231.79581 20.8575652 231.442286 20.334087 231.094857 20.1587826 231.356952 20.0723478 231.533714 20.0723478 231.533714 20.1587826 231.79581 20.1587826 231.886019 19.9822609 232.056686 19.8069565 232.148114 19.7205217 232.323657 19.6304348 232.40899 19.3686957 232.671086 19.2834783 232.938057 19.2834783 233.375695 19.2834783 233.728 19.1933913 233.990095 19.1069565 234.25219 19.0168696 234.519162 18.9316522 234.781257 18.8452174 235.133562 18.8452174 235.218895 18.8452174 235.304229 18.9316522 235.395657 19.0168696 235.48099 19.0168696 235.656533 19.1069565 235.833295 19.3686957 235.48099 19.4587826 235.304229 19.6304348 235.043352 19.7205217 234.86659 19.8069565 234.604495 19.8970435 234.428952 19.8970435 234.428952 19.8970435 234.3424 19.8970435 234.166857 19.8970435 233.814552 19.8970435 233.462248 19.8970435 233.02339 19.8970435 232.671086 20.0723478 232.323657 20.4193043 231.971352L20.5106087 232.056686zM21.2093913 228.814019C21.4711304 228.638476 21.5612174 228.547048 21.6464348 228.547048 21.8229565 228.199619 21.9130435 227.933867 21.9982609 227.585219 21.9982609 227.49501 21.9130435 227.319467 21.8229565 227.057371 21.7365217 227.057371 21.6464348 227.057371 21.6464348 227.142705L21.0328696 228.371505C20.9476522 228.461714 21.0328696 228.638476 21.2093913 228.814019zM22.0846957 234.86659C22.1747826 234.604495 22.26 234.428952 22.350087 234.3424 22.4365217 234.166857 22.5266087 234.076648 22.6118261 233.899886 22.6118261 233.899886 22.5266087 233.814552 22.26 233.552457 22.1747826 233.728 22.0846957 233.814552 21.9982609 233.990095 21.9130435 234.166857 21.8229565 234.25219 21.7365217 234.428952 21.8229565 234.428952 21.9130435 234.604495 21.9982609 234.86659L22.0846957 234.86659zM23.6636522 230.042819C23.8389565 229.775848 23.9290435 229.513752 24.0154783 229.33821 24.1006957 229.076114 24.1907826 228.900571 24.276 228.638476 23.4871304 228.814019 23.2253913 229.252876 23.5772174 230.042819L23.6636522 230.042819zM16.3873043 219.595581C16.4773913 219.595581 16.7391304 219.68579 17.0909565 219.771124 16.7391304 220.123429 16.4773913 220.475733 16.2156522 220.91459 15.9502609 221.266895 15.6885217 221.704533 15.3366957 222.051962 15.2502609 222.228724 15.2502609 222.318933 15.2502609 222.495695 15.2502609 222.666362 15.2502609 222.756571 15.1601739 222.933333 14.8984348 223.457524 14.6366957 223.895162 14.3761739 224.337676 14.1095652 224.776533 13.8478261 225.214171 13.496 225.738362 13.4107826 226.005333 13.3194783 226.180876 13.1490435 226.352762 12.9725217 226.528305 12.8824348 226.705067 12.7071304 226.967162 12.4453913 227.319467 12.2688696 227.585219 12.1836522 227.847314 12.0071304 228.10941 11.8318261 228.461714 11.6553043 228.72381 11.0417391 229.775848 10.4281739 230.742552 9.8146087 231.79581 9.20226087 232.847848 8.58869565 233.814552 7.97513043 234.86659 7.62330435 235.48099 7.36156522 236.010057 7.00973913 236.362362 6.66278261 236.70979 6.13443478 237.062095 5.52086957 237.32419 5.43565217 237.4144 5.34556522 237.4144 5.25913043 237.32419 5.16904348 237.237638 5.08382609 237.237638 4.9973913 237.147429 4.82208696 237.062095 4.64556522 237.062095 4.55547826 236.976762 4.38504348 236.885333 4.29373913 236.885333 4.11843478 236.8 3.77147826 236.623238 3.50486957 236.447695 3.41965217 236.09539 3.24313043 235.747962 3.15304348 235.48099 3.06782609 235.133562 2.89130435 234.781257 2.71478261 234.519162 2.45426087 234.25219 2.27773913 234.076648 2.27773913 233.899886 2.27773913 233.63779 2.27773913 233.375695 2.27773913 233.114819 2.27773913 232.762514 2.10243478 232.671086 2.016 232.500419 1.92591304 232.233448 1.84069565 231.971352 1.57895652 231.971352 1.22713043 232.148114L1.0506087 231.971352C.965391304 231.886019.965391304 231.79581.875304348 231.619048.788869565 231.442286.698782609 231.271619.698782609 231.094857.613565217 230.919314.613565217 230.742552.528347826 230.56701.437043478 230.390248.437043478 230.304914.351826087 230.128152.26173913 229.95261.26173913 229.866057.351826087 229.775848.613565217 228.985905.875304348 228.286171 1.14191304 227.585219 1.40243478 226.88061 1.66417391 226.180876 1.84069565 225.390933 2.10243478 224.599771 2.27773913 223.895162 2.53947826 223.195429 2.80608696 222.495695 2.9813913 221.791086 3.24313043 220.999924 3.50486957 220.209981 3.68017391 219.509029 3.85669565 218.804419 4.032 218.104686 4.20852174 217.314743 4.38504348 216.61379 4.64556522 215.209448 4.90730435 213.713676 5.16904348 212.31421 5.43565217 210.819657 5.6973913 209.414095 5.87269565 208.014629 6.13443478 206.166552 6.22452174 204.238019 6.13443478 202.219276 6.13443478 201.428114 6.04921739 200.728381 5.87269565 200.023771 5.6973913 199.324038 5.25913043 198.709638 4.55547826 198.272 4.11843478 197.918476 4.032 197.480838 4.29373913 196.866438 4.64556522 196.866438 4.90730435 196.866438 5.08382609 196.951771 5.34556522 197.0432 5.61095652 197.128533 5.95913043 197.128533 6.22452174 197.128533 6.57147826 197.128533 6.83808696 197.128533 7.18504348 197.218743 7.53686957 197.390629 7.88869565 197.566171 8.23686957 197.742933 8.58869565 197.918476 8.94052174 198.095238 9.11582609 198.180571 9.37756522 198.357333 9.63930435 198.532876 9.7293913 198.532876 9.8146087 198.532876 9.8146087 198.619429 10.1676522 199.233829 10.6046957 199.761676 11.1330435 200.200533 11.6553043 200.728381 11.921913 201.342781 12.0071304 202.132724 12.0071304 202.481371 12.0935652 202.833676 12.1836522 203.185981 12.2688696 203.538286 12.3589565 203.885714 12.4453913 204.238019 12.5354783 204.767086 12.6206957 205.204724 12.6206957 205.728914 12.7071304 206.256762 12.7071304 206.780952 12.7972174 207.223467 12.8824348 207.662324 12.8824348 208.014629 12.8824348 208.362057 12.8824348 208.714362 12.8824348 209.152 12.8824348 209.504305 12.8824348 209.7664 12.8824348 209.943162 12.8824348 210.118705 12.8824348 210.295467 12.7972174 210.557562 12.7972174 210.733105 12.7071304 211.171962 12.6206957 211.6096 12.6206957 212.047238 12.5354783 212.486095 12.5354783 212.92861 12.4453913 213.276038 12.4453913 213.4528 12.3589565 213.54301 12.2688696 213.54301 11.8318261 213.628343 11.6553043 213.713676 11.7453913 213.890438 11.8318261 214.0672 11.8318261 214.242743 11.921913 214.504838 12.0071304 214.77181 11.921913 215.119238 11.8318261 215.561752 11.8318261 215.647086 11.8318261 215.647086 11.8318261 215.647086 11.8318261 215.647086 11.8318261 215.733638 11.8318261 215.733638 12.0071304 216.085943 11.921913 216.348038 11.7453913 216.438248 11.570087 216.523581 11.3083478 216.61379 11.0417391 216.700343 11.3935652 217.052648 11.570087 217.314743 11.570087 217.575619 11.570087 217.84259 11.48 218.190019 11.3083478 218.542324 11.2182609 218.719086 11.1330435 218.804419 11.1330435 218.981181 11.1330435 219.156724 11.0417391 219.248152 11.0417391 219.418819 10.9565217 219.595581 10.8664348 219.771124 10.78 219.947886 10.6947826 220.123429 10.6046957 220.385524 10.5194783 220.647619 10.4281739 220.91459 10.3429565 221.266895 10.3429565 221.704533 10.4281739 222.404267 10.2528696 223.110095 9.90591304 223.633067 9.63930435 223.985371 9.55408696 224.337676 9.46278261 224.685105 9.37756522 225.123962 9.37756522 225.476267 9.29234783 225.828571 9.37756522 225.913905 9.37756522 225.913905 9.46278261 225.913905 9.55408696 225.913905 9.55408696 225.913905 9.63930435 226.005333 9.99113043 225.566476 10.2528696 225.214171 10.5194783 224.861867 11.0417391 224.071924 11.48 223.370971 12.0071304 222.581029 12.5354783 221.791086 13.0589565 221.090133 13.496 220.30019 13.8478261 219.68579 14.1996522 219.156724 14.5466087 218.633752 14.8984348 218.104686 15.2502609 217.490286 15.602087 216.962438 15.9502609 216.523581 16.2156522 216.085943 16.4773913 215.647086 16.7391304 215.209448 17.0057391 214.77181 17.3526957 214.332952 17.4427826 214.242743 17.528 214.15741 17.528 214.15741 17.6193043 214.0672 17.6193043 214.0672 17.7045217 213.980648 17.7897391 214.0672 17.8810435 214.15741 17.8810435 214.15741 17.3526957 214.947352 16.9156522 215.647086 16.3873043 216.438248 15.8638261 217.22819 15.4267826 218.019352 14.8132174 218.804419 14.9885217 218.719086 15.1601739 218.633752 15.4267826 218.45699 15.6885217 218.281448 15.8638261 218.019352 16.1255652 217.752381 16.302087 217.490286 16.4773913 217.314743 16.653913 217.052648 16.8292174 216.790552 16.9156522 216.61379 16.9156522 216.523581 17.0057391 216.348038 17.0909565 216.261486 17.1761739 216.085943 17.2674783 215.909181 17.3526957 215.823848 17.4427826 215.647086 17.7045217 215.294781 17.9662609 214.947352 18.2328696 214.680381 18.4933913 214.419505 18.7551304 214.0672 18.9316522 213.713676 19.1933913 213.366248 19.3686957 213.100495 19.6304348 212.8384 19.8970435 212.576305 20.0723478 212.224 20.334087 211.871695 20.4193043 211.69981 20.5106087 211.6096 20.685913 211.432838 20.8575652 211.257295 20.9476522 211.171962 21.1241739 210.9952 21.2994783 210.733105 21.4711304 210.557562 21.5612174 210.295467 21.7365217 210.028495 21.8229565 209.85661 21.9982609 209.590857 22.350087 209.152 22.6982609 208.714362 22.9636522 208.276724 23.3106087 207.837867 23.5772174 207.485562 23.9290435 206.957714 24.3673043 206.433524 24.7142609 205.904457 25.066087 205.381486 25.417913 204.852419 25.8549565 204.323352 26.2067826 203.800381 26.3833043 203.708952 26.5537391 203.623619 26.6450435 203.538286 26.8203478 203.448076 26.9968696 203.361524 27.082087 203.185981 27.433913 202.747124 27.7808696 202.309486 28.224 201.866971 28.5709565 201.428114 29.008 200.990476 29.3598261 200.552838L30.3252174 199.324038C30.4104348 199.233829 30.5017391 199.147276 30.5869565 199.147276 30.6770435 199.147276 30.7634783 199.147276 30.8535652 199.061943 30.8535652 199.147276 30.9387826 199.233829 31.024 199.233829 30.8535652 199.499581 30.7634783 199.676343 30.5869565 199.848229 30.4104348 200.023771 30.3252174 200.200533 30.149913 200.376076 29.7116522 200.905143 29.3598261 201.342781 28.9227826 201.866971 28.4845217 202.394819 28.0474783 202.923886 27.6956522 203.361524 27.2586087 203.885714 26.9067826 204.414781 26.4685217 204.937752 26.0314783 205.466819 25.6796522 205.994667 25.1561739 206.518857 24.8895652 206.871162 24.7142609 207.223467 24.4525217 207.570895 24.1907826 207.9232 23.9290435 208.276724 23.7537391 208.629029 23.3106087 209.243429 22.8735652 209.85661 22.5266087 210.47101 22.1747826 211.08541 21.7365217 211.6096 21.3846957 212.31421 21.1241739 212.661638 20.8575652 213.013943 20.5106087 213.4528 20.244 213.805105 19.9822609 214.242743 19.6304348 214.595048 19.5452174 214.77181 19.3686957 214.947352 19.1933913 215.294781 18.7551304 215.909181 18.4033043 216.523581 17.9662609 217.137981 17.528 217.752381 17.0909565 218.366781 16.653913 218.981181L16.3873043 219.595581zM34.972 218.104686C35.1473043 217.84259 35.3189565 217.667048 35.4942609 217.490286 35.6707826 217.314743 35.9325217 217.137981 36.197913 216.875886 36.1078261 217.052648 36.1078261 217.137981 36.1078261 217.314743 36.1078261 217.490286 36.0226087 217.575619 35.9325217 217.667048 35.7608696 217.929143 35.5843478 218.104686 35.3189565 218.190019 35.0572174 218.366781 34.8806957 218.542324 34.7053913 218.719086 34.4436522 219.07139 34.2671304 219.333486 34.0066087 219.68579 33.7448696 220.033219 33.5683478 220.30019 33.3066087 220.647619 33.2165217 220.824381 33.0412174 220.91459 32.8646957 220.999924 32.8646957 220.824381 32.8646957 220.737829 32.8646957 220.737829 33.2165217 220.30019 33.5683478 219.861333 33.830087 219.418819 34.0918261 218.981181 34.4436522 218.542324 34.7954783 218.104686L34.972 218.104686zM37.5102609 215.119238C37.4250435 216.085943 36.988 216.523581 36.197913 216.523581 36.4596522 216.261486 36.7213913 216.00061 36.897913 215.823848 37.0732174 215.561752 37.2497391 215.38621 37.5102609 215.119238zM39.3509565 213.805105C39.2657391 213.713676 39.1756522 213.628343 39.1756522 213.54301 39.4410435 213.366248 39.6175652 213.276038 39.7027826 213.100495 39.8793043 212.92861 40.0546087 212.8384 40.2311304 212.661638L40.4027826 212.8384C40.2311304 213.013943 40.0546087 213.190705 39.8793043 213.276038 39.7027826 213.4528 39.5274783 213.54301 39.3509565 213.713676L39.3509565 213.805105zM17.9662609 213.4528C17.8810435 213.366248 17.8810435 213.366248 17.8810435 213.366248 17.8810435 213.366248 17.8810435 213.276038 17.7897391 213.276038 17.9662609 213.100495 18.1415652 212.92861 18.318087 212.751848 18.4933913 212.576305 18.669913 212.399543 18.8452174 212.138667 18.8452174 212.138667 18.9316522 212.224 19.0168696 212.31421L18.0563478 213.54301 17.9662609 213.4528zM81.2462609 217.84259C81.6845217 217.404952 82.0363478 217.052648 82.4733913 216.700343 82.9104348 216.348038 83.2634783 215.909181 83.7906087 215.561752 84.1375652 215.209448 84.4893913 214.857143 84.8412174 214.504838 85.1893913 214.15741 85.5412174 213.805105 85.8930435 213.4528L86.0683478 213.628343C85.6313043 214.15741 85.1893913 214.595048 84.7511304 215.119238 84.314087 215.647086 83.8758261 216.176152 83.3486957 216.61379 83.524 216.790552 83.7005217 216.875886 83.7906087 216.790552 83.8758261 216.700343 83.9622609 216.61379 84.0523478 216.523581 84.1375652 216.438248 84.2288696 216.348038 84.314087 216.261486 84.4041739 216.176152 84.5758261 216.176152 84.665913 216.261486 83.9622609 216.962438 83.3486957 217.667048 82.7351304 218.366781 82.1215652 219.07139 81.4227826 219.68579 80.7191304 220.209981 80.5474783 220.475733 80.4573913 220.647619 80.3721739 220.737829 80.2808696 220.91459 80.1956522 221.090133 80.1055652 221.266895L79.3203478 222.495695C79.1450435 222.666362 79.0549565 222.756571 78.8784348 222.933333 78.7067826 223.110095 78.6166957 223.280762 78.4413913 223.457524 78.2648696 223.633067 78.1796522 223.809829 78.0031304 223.985371 77.8278261 224.162133 77.7413913 224.337676 77.566087 224.509562 77.3043478 224.776533 77.1278261 225.038629 76.8673043 225.299505 76.6006957 225.566476 76.4241739 225.738362 76.1624348 226.005333 75.9871304 226.180876 75.901913 226.26621 75.8106087 226.442971 75.6353043 227.057371 75.4636522 227.585219 75.0217391 227.933867 74.6747826 228.371505 74.3229565 228.72381 73.9711304 229.252876 73.6241739 229.775848 73.2723478 230.214705 72.9193043 230.657219 72.5674783 231.094857 72.2205217 231.533714 71.8686957 232.056686 71.5168696 232.585752 71.169913 233.02339 70.818087 233.462248 70.4662609 233.899886 70.1144348 234.3424 69.7674783 234.86659 69.2391304 235.5712 68.7107826 236.270933 68.1885217 236.976762 67.6601739 237.676495 67.1366957 238.376229 66.5243478 238.990629 65.9107826 239.780571 65.2972174 240.571733 64.6836522 241.361676 64.070087 242.238171 63.3664348 242.942781 62.5763478 243.557181 62.3158261 243.819276 62.054087 243.994819 61.7022609 244.171581 61.3504348 244.347124 61.0886957 244.523886 60.7368696 244.695771 60.5603478 244.785981 60.3886957 244.785981 60.0368696 244.695771 59.6850435 244.695771 59.3332174 244.695771 59.0714783 244.695771 58.8109565 244.695771 58.4591304 244.609219 58.106087 244.609219 58.0208696 244.609219 57.9356522 244.609219 57.8455652 244.609219 57.7591304 244.609219 57.7591304 244.609219 57.6690435 244.609219 56.6184348 243.909486 55.7431304 243.119543 54.9542609 242.238171 54.1641739 241.361676 53.8123478 240.219429 53.8123478 238.905295 53.7271304 238.290895 53.8123478 237.676495 53.9024348 237.062095 53.9888696 236.533029 54.0789565 235.918629 54.1641739 235.304229 54.2493913 234.691048 54.3406957 234.076648 54.425913 233.462248 54.516 232.847848 54.6925217 232.233448 54.8629565 231.619048 55.2147826 230.480457 55.5678261 229.428419 55.9196522 228.286171 56.2666087 227.232914 56.6184348 226.090667 56.9702609 224.952076 57.232 224.247467 57.4073043 223.547733 57.6690435 222.843124 57.9356522 222.14339 58.1973913 221.437562 58.4591304 220.737829 58.8109565 220.033219 59.0714783 219.418819 59.3332174 218.719086 59.5998261 218.019352 59.9467826 217.314743 60.2986087 216.61379 60.9121739 215.209448 61.6158261 213.890438 62.2293913 212.486095 62.9281739 211.08541 63.5417391 209.7664 64.2453913 208.362057 64.9453913 206.957714 65.5589565 205.552152 66.2577391 204.152686 66.9613913 202.747124 67.6601739 201.428114 68.2737391 199.938438 68.3638261 199.676343 68.4502609 199.499581 68.6255652 199.324038 68.802087 199.147276 68.8873043 198.971733 69.0626087 198.794971 69.3243478 198.532876 69.5909565 198.447543 69.8526957 198.532876 70.1144348 198.619429 70.3798261 198.709638 70.6415652 198.885181 70.818087 198.971733 70.9933913 199.061943 71.3415652 199.061943 71.6069565 198.971733 71.7834783 198.971733 71.953913 198.971733 72.1304348 198.971733 72.2205217 199.147276 72.3069565 199.499581 72.3970435 199.761676 72.5674783 199.848229 72.9193043 199.848229 73.0958261 199.938438 73.2723478 199.938438 73.4476522 199.848229 73.6241739 199.761676 73.7946087 199.761676 73.9711304 199.848229 74.5846957 199.938438 75.1118261 200.290743 75.550087 200.813714 75.9871304 201.342781 76.2488696 201.957181 76.3389565 202.571581 76.4241739 203.185981 76.4241739 203.708952 76.2488696 204.152686 76.0772174 204.675657 75.901913 205.114514 75.7253913 205.642362 75.4636522 206.256762 75.1982609 206.871162 74.850087 207.485562 74.4982609 208.099962 74.1464348 208.629029 73.7946087 209.328762 73.4476522 209.943162 73.0958261 210.47101 72.6587826 210.9952 72.2205217 211.524267 71.8686957 212.138667 71.5168696 212.661638 71.3415652 212.92861 71.169913 213.100495 70.9933913 213.366248 70.818087 213.628343 70.6415652 213.890438 70.5563478 214.15741 70.4662609 214.504838 70.2897391 214.77181 70.1144348 214.947352 69.937913 215.209448 69.8526957 215.471543 69.937913 215.823848 69.937913 216.00061 69.8526957 216.085943 69.7674783 216.176152 69.153913 216.61379 68.802087 217.137981 68.6255652 217.84259 68.4502609 218.45699 68.0984348 219.07139 67.6601739 219.509029 67.3132174 219.947886 67.0466087 220.385524 66.7848696 220.91459 66.6095652 221.437562 66.3478261 221.966629 65.9107826 222.404267 65.8194783 222.581029 65.7342609 222.666362 65.7342609 222.843124 65.7342609 223.018667 65.6441739 223.195429 65.5589565 223.370971 65.2972174 223.895162 65.1206957 224.424229 64.8589565 224.952076 64.5935652 225.476267 64.4170435 226.005333 64.1553043 226.442971 64.070087 226.618514 63.98 226.795276 63.98 226.88061L62.9281739 228.985905 63.28 229.33821C63.1046957 229.600305 63.0146087 229.866057 62.8429565 230.128152 62.6676522 230.390248 62.5763478 230.742552 62.4010435 231.004648 62.3158261 231.094857 62.3158261 231.18141 62.2293913 231.18141 62.1393043 231.271619 62.1393043 231.271619 62.1393043 231.356952 62.3158261 231.79581 62.2293913 232.148114 61.9627826 232.40899 61.7022609 232.762514 61.5257391 233.02339 61.4405217 233.375695 60.4751304 235.395657 59.8615652 237.32419 59.6850435 239.342933 59.5998261 239.605029 59.5998261 239.957333 59.5097391 240.309638 59.4233043 240.661943 59.3332174 240.924038 59.248 241.276343 59.1627826 241.361676 59.1627826 241.451886 59.248 241.623771 59.248 241.800533 59.248 241.890743 59.248 241.976076 59.3332174 241.890743 59.4233043 241.800533 59.5097391 241.800533 59.5998261 241.800533 59.6850435 241.713981 59.7763478 241.623771 60.6504348 240.485181 61.5257391 239.433143 62.4010435 238.290895 63.28 237.237638 64.1553043 236.09539 65.0306087 235.043352 65.8194783 233.990095 66.6095652 233.02339 67.3984348 232.056686 68.1885217 231.094857 68.9773913 230.128152 69.7674783 229.252876 70.4662609 228.371505 71.169913 227.585219 71.8686957 226.795276 72.5674783 226.005333 73.2723478 225.214171 73.9711304 224.424229 74.1464348 224.162133 74.3229565 223.985371 74.4081739 223.809829 74.5846957 223.633067 74.6747826 223.370971 74.850087 223.195429 74.9365217 223.280762 74.9365217 223.280762 75.0217391 223.280762 75.1118261 223.280762 75.1118261 223.370971 75.1982609 223.370971 74.9365217 223.723276 74.76 224.071924 74.4982609 224.337676 74.2365217 224.685105 73.9711304 224.952076 73.7946087 225.299505L73.9711304 225.476267C74.1464348 225.299505 74.3229565 225.214171 74.4982609 225.123962 74.6747826 225.038629 74.850087 224.861867 75.0217391 224.685105 75.2883478 224.337676 75.550087 224.071924 75.7253913 223.723276 75.901913 223.370971 76.1624348 223.018667 76.3389565 222.756571 76.6006957 222.495695 76.776 222.228724 77.0377391 222.051962 77.3043478 221.791086 77.566087 221.614324 77.7413913 221.352229 78.0932174 220.999924 78.4413913 220.647619 78.7067826 220.30019 78.9685217 219.947886 79.2302609 219.595581 79.582087 219.248152 79.8438261 218.981181 80.0191304 218.804419 80.1055652 218.542324 80.2808696 218.281448 80.4573913 218.104686 80.6326957 217.84259L81.2462609 217.84259zM72.6587826 228.10941C72.9193043 227.671771 73.0958261 227.232914 73.3575652 226.88061 73.6241739 226.528305 74.0612174 226.26621 74.6747826 226.26621 74.4081739 226.090667 74.2365217 225.913905 74.1464348 225.828571 73.9711304 225.738362 73.7946087 225.738362 73.6241739 226.005333 73.3575652 226.26621 73.1810435 226.442971 73.0106087 226.618514 72.834087 226.795276 72.6587826 227.057371 72.4822609 227.232914 72.1304348 227.585219 72.2205217 227.847314 72.6587826 228.10941zM60.0368696 222.933333C60.1233043 223.110095 60.2133913 223.195429 60.3886957 223.195429 60.5603478 223.280762 60.6504348 223.110095 60.7368696 222.843124 60.9121739 222.495695 61.0022609 222.14339 61.173913 221.704533 61.3504348 221.266895 61.4405217 220.91459 61.6158261 220.562286 61.6158261 220.475733 61.6158261 220.475733 61.5257391 220.385524 61.4405217 220.30019 61.4405217 220.30019 61.3504348 220.209981 61.0886957 220.737829 60.9121739 221.176686 60.7368696 221.614324 60.5603478 222.051962 60.2986087 222.495695 60.1233043 222.933333L60.0368696 222.933333zM59.3332174 225.828571C59.1627826 225.828571 59.0714783 225.828571 59.0714783 225.738362 58.7196522 226.090667 58.5492174 226.528305 58.3726957 227.057371 58.1973913 227.585219 58.1973913 228.024076 58.3726957 228.286171 58.5492174 227.847314 58.7196522 227.409676 58.8961739 226.967162 59.0714783 226.528305 59.248 226.180876 59.4233043 225.738362L59.3332174 225.828571zM83.6153043 244.523886C83.2634783 244.433676 83.0017391 244.347124 82.7351304 244.256914 82.4733913 244.171581 82.2116522 244.081371 81.9450435 243.994819 81.4227826 243.642514 81.0709565 243.204876 80.8092174 242.590476 80.5474783 242.066286 80.2808696 241.451886 80.0191304 240.924038 79.582087 239.957333 79.4067826 238.990629 79.4067826 237.93859 79.492 236.976762 79.492 235.918629 79.582087 234.9568 79.8438261 232.056686 80.5474783 229.252876 81.6845217 226.442971 82.0363478 225.65181 82.298087 224.952076 82.4733913 224.162133 82.7351304 223.370971 83.0017391 222.666362 83.2634783 221.881295 83.6153043 220.824381 84.0523478 219.861333 84.4041739 218.804419 84.8412174 217.752381 85.2794783 216.790552 85.7165217 215.733638 85.8017391 215.647086 85.8017391 215.561752 85.7165217 215.38621 85.7165217 215.209448 85.7165217 215.033905 85.7165217 214.857143 85.8017391 214.680381 85.8930435 214.504838 86.0683478 214.242743 86.2448696 213.980648 86.330087 213.805105 86.5066087 213.54301 86.5918261 213.366248 86.681913 213.190705 86.681913 213.100495 86.7671304 212.92861 86.8584348 212.751848 86.8584348 212.661638 86.681913 212.661638 86.5066087 212.661638 86.4153043 212.751848 86.1547826 212.751848 85.8017391 212.8384 85.3646957 212.92861 85.2794783 212.8384 85.2794783 212.751848 85.2794783 212.576305L86.0683478 212.399543C85.8930435 212.047238 85.9782609 211.785143 86.2448696 211.69981 86.5066087 211.524267 86.681913 211.432838 86.8584348 211.257295 87.2954783 210.909867 87.7325217 210.557562 88.0843478 210.205257 88.4325217 209.85661 88.7843478 209.414095 88.9596522 208.889905 89.2213913 208.014629 89.7497391 207.570895 90.5386087 207.570895 90.7151304 207.570895 90.8003478 207.570895 90.8855652 207.485562 90.9756522 207.395352 91.062087 207.395352 91.1521739 207.310019 91.3286957 207.310019 91.4991304 207.310019 91.6756522 207.223467 91.8509565 207.133257 91.9410435 207.223467 92.0274783 207.310019 92.2892174 207.395352 92.5546087 207.570895 92.8163478 207.747657 93.078087 207.9232 93.3398261 208.099962 93.6064348 208.185295 93.8669565 208.362057 94.0434783 208.452267 94.3052174 208.5376 94.5669565 208.629029 94.7422609 208.799695 94.9187826 208.976457 95.2706087 209.328762 95.6224348 209.681067 95.9693913 210.028495 96.3212174 210.3808 96.5829565 210.733105 96.8495652 211.171962 97.0248696 211.524267 97.1113043 211.961905 97.1113043 212.31421 97.1113043 212.751848 97.0248696 213.100495 96.9347826 213.4528 96.8495652 213.980648 96.6730435 214.419505 96.4064348 214.857143 96.145913 215.294781 95.8841739 215.733638 95.6224348 216.085943 95.3558261 216.61379 95.094087 217.052648 94.7422609 217.404952 94.3953043 217.84259 94.22 218.281448 94.1286957 218.894629 94.0434783 219.07139 93.9533913 219.156724 93.7817391 219.248152 93.6064348 219.333486 93.3398261 219.418819 93.1681739 219.509029 92.3793043 220.999924 91.6756522 222.495695 90.8855652 224.071924 90.0966957 225.566476 89.397913 227.057371 88.6078261 228.638476 88.6078261 228.638476 88.6078261 228.638476 88.5226087 228.547048 88.5226087 228.900571 88.5226087 229.161448 88.4325217 229.33821 88.346087 229.690514 88.1707826 229.95261 87.9942609 230.128152 87.8189565 230.390248 87.8189565 230.657219 87.9090435 231.004648 87.9090435 231.004648 87.9090435 231.004648 87.8189565 231.094857 87.2954783 231.442286 87.0288696 231.79581 87.0288696 232.323657 87.0288696 232.847848 86.9436522 233.285486 86.7671304 233.814552 86.4153043 234.428952 86.1547826 235.133562 86.0683478 235.918629 85.9782609 236.70979 85.8017391 237.4144 85.5412174 238.114133 85.3646957 238.466438 85.2794783 238.818743 85.2794783 239.166171 85.1893913 239.518476 85.1893913 239.872 85.1029565 240.219429 85.0177391 240.571733 85.0177391 240.924038 84.9276522 241.276343 84.8412174 241.623771 84.665913 241.890743 84.4041739 242.152838 83.8758261 242.680686 83.7005217 243.204876 83.7906087 243.909486 83.7906087 244.081371 83.7005217 244.171581 83.6153043 244.347124 83.524 244.523886 83.4387826 244.609219 83.4387826 244.695771L83.6153043 244.523886zM81.2462609 217.752381C81.0709565 217.84259 80.8944348 217.929143 80.7191304 218.019352 80.5474783 218.104686 80.3721739 218.190019 80.1055652 218.281448 79.933913 218.366781 79.7586087 218.45699 79.492 218.542324 80.0191304 218.019352 80.4573913 217.575619 80.8944348 217.137981 81.3326957 216.700343 81.7746087 216.261486 82.2116522 215.733638 82.298087 215.733638 82.298087 215.733638 82.3881739 215.823848 82.2116522 216.085943 82.0363478 216.261486 81.8598261 216.438248 81.6845217 216.61379 81.508 216.790552 81.3326957 217.052648 81.2462609 217.137981 81.2462609 217.314743 81.2462609 217.667048L81.2462609 217.752381zM77.3895652 221.352229C77.1278261 221.614324 76.9525217 221.881295 76.6907826 222.14339 76.4241739 222.404267 76.1624348 222.666362 75.901913 222.933333L75.7253913 222.756571C75.9871304 222.495695 76.1624348 222.228724 76.4241739 221.966629 76.6907826 221.704533 76.9525217 221.437562 77.2142609 221.176686L77.3895652 221.352229zM79.492 218.633752C79.4067826 219.156724 79.1450435 219.595581 78.7932174 219.947886 78.4413913 220.30019 78.0932174 220.562286 77.7413913 220.91459 77.6513043 220.91459 77.566087 220.824381 77.566087 220.737829 77.917913 220.385524 78.1796522 220.033219 78.5314783 219.68579 78.8784348 219.333486 79.1450435 218.981181 79.492 218.633752z"/>
    <path fill="#82C745" d="M108.856696,189.671619 C108.590087,189.229105 108.328348,189.142552 107.891304,189.229105 C107.454261,189.404648 107.102435,189.494857 106.925913,189.58141 C106.574087,189.756952 106.22713,189.842286 105.875304,189.933714 C105.523478,190.019048 105.176522,190.019048 104.823478,190.109257 C104.562957,190.19581 104.296348,190.19581 104.034609,190.286019 C103.77287,190.371352 103.506261,190.456686 103.245739,190.548114 C103.069217,190.633448 102.893913,190.723657 102.807478,190.723657 C101.932174,190.548114 101.053217,190.633448 100.26313,190.900419 C99.4791304,191.161295 98.5989565,191.338057 97.7236522,191.42339 C97.2866087,191.514819 96.8495652,191.514819 96.4064348,191.600152 C95.9693913,191.685486 95.5323478,191.514819 95.094087,191.161295 C95.0088696,190.985752 94.9187826,190.985752 94.6570435,191.071086 C93.7817391,191.338057 92.9015652,191.514819 92.0274783,191.775695 C91.1521739,192.03779 90.272,192.214552 89.397913,192.476648 C88.7843478,192.65219 88.1707826,192.7424 87.5572174,192.828952 C86.9436522,192.914286 86.330087,193.004495 85.7165217,193.091048 C85.1893913,193.181257 84.7511304,193.26659 84.314087,193.3568 C83.8758261,193.443352 83.4387826,193.528686 82.9104348,193.618895 L82.2116522,192.914286 C82.7351304,191.685486 83.524,190.80899 84.4893913,190.109257 C85.4547826,189.494857 86.5066087,188.96701 87.7325217,188.614705 C88.6078261,188.35261 89.397913,188.090514 90.272,187.73821 C91.062087,187.476114 91.9410435,187.209143 92.8163478,186.947048 C93.9533913,186.594743 95.1805217,186.333867 96.3212174,186.157105 C97.4631304,185.89501 98.6890435,185.719467 99.826087,185.457371 C100.706261,185.28061 101.490261,185.105067 102.370435,184.928305 C103.159304,184.752762 104.034609,184.580876 104.909913,184.405333 C105.78887,184.228571 106.664174,184.05181 107.454261,183.966476 C108.24313,183.876267 109.118435,183.699505 109.993739,183.523962 C110.872696,183.352076 111.748,183.176533 112.623304,182.999771 C113.497391,182.824229 114.377565,182.647467 115.25287,182.471924 C115.689913,182.385371 116.041739,182.123276 116.218261,181.680762 L120.597217,171.590705 C120.950261,170.976305 121.210783,170.361905 121.562609,169.657295 C121.915652,169.042895 122.176174,168.343162 122.528,167.728762 C122.789739,167.289905 123.051478,167.024152 123.318087,166.852267 C123.665043,166.762057 124.01687,166.762057 124.368696,166.852267 C124.720522,166.9376 125.067478,167.024152 125.505739,167.024152 C125.857565,167.114362 126.294609,167.114362 126.646435,167.199695 C126.73287,167.289905 126.822957,167.289905 126.908174,167.289905 C126.998261,167.289905 127.084696,167.376457 127.174783,167.466667 C127.611826,167.814095 128.050087,168.081067 128.572348,168.343162 C129.015478,168.605257 129.452522,168.957562 129.714261,169.3952 C129.889565,169.657295 129.976,169.832838 130.151304,170.09981 C130.327826,170.361905 130.50313,170.538667 130.589565,170.799543 C130.679652,171.061638 130.76487,171.2384 130.76487,171.590705 C130.76487,171.8528 130.679652,172.205105 130.417913,172.4672 C130.417913,172.4672 130.417913,172.55741 130.417913,172.728076 C130.76487,173.257143 130.854957,173.694781 130.589565,174.133638 C130.327826,174.576152 129.976,174.923581 129.537739,175.275886 C129.537739,175.275886 129.452522,175.275886 129.362435,175.362438 C129.015478,175.975619 128.663652,176.590019 128.310609,177.204419 C127.958783,177.818819 127.611826,178.347886 127.26,179.047619 C126.998261,179.576686 126.646435,180.104533 126.209391,180.54339 C126.119304,180.981029 126.47113,181.243124 126.998261,181.243124 C128.572348,181.156571 130.151304,181.066362 131.645043,180.981029 C133.21913,180.895695 134.798087,181.066362 136.285739,181.418667 C136.814087,181.510095 137.341217,181.595429 137.864696,181.595429 C138.393043,181.595429 138.915304,181.680762 139.443652,181.857524 C139.795478,181.947733 140.232522,182.123276 140.580696,182.295162 C141.022609,182.562133 141.369565,182.824229 141.721391,183.176533 C142.073217,183.523962 142.420174,183.876267 142.596696,184.313905 C142.863304,184.752762 142.948522,185.195276 142.948522,185.719467 C142.948522,186.157105 142.948522,186.50941 143.033739,186.861714 C143.123826,187.209143 143.123826,187.652876 143.033739,188.000305 C142.948522,188.267276 142.863304,188.528152 142.686783,188.880457 C142.510261,189.142552 142.249739,189.319314 142.073217,189.404648 C141.546087,189.58141 141.022609,189.671619 140.494261,189.756952 C139.96713,189.842286 139.443652,189.842286 138.915304,189.933714 C138.301739,190.019048 137.689391,190.019048 137.075826,189.933714 C136.462261,189.933714 135.848696,189.842286 135.23513,189.671619 C133.746261,189.229105 132.258609,189.057219 130.679652,189.142552 C129.100696,189.229105 127.611826,189.142552 126.03287,189.057219 C125.419304,189.057219 124.720522,189.057219 124.106957,189.142552 C123.403304,189.229105 122.704522,189.319314 122.00087,189.404648 C122.00087,189.494857 121.915652,189.842286 121.649043,190.371352 C121.387304,190.900419 121.210783,191.514819 120.950261,192.214552 C120.688522,192.914286 120.512,193.528686 120.250261,194.147962 C119.98487,194.762362 119.898435,195.10979 119.808348,195.285333 C119.72313,195.547429 119.546609,195.8144 119.28487,196.076495 C119.024348,196.33859 118.933043,196.604343 119.024348,196.951771 C119.109565,197.0432 119.024348,197.128533 118.847826,197.218743 C118.671304,197.305295 118.496,197.390629 118.410783,197.480838 C118.581217,197.918476 118.581217,198.180571 118.581217,198.357333 C118.496,198.532876 118.319478,198.709638 117.967652,198.885181 C117.882435,199.061943 117.70713,199.233829 117.445391,199.499581 C117.354087,199.586133 117.26887,199.676343 117.093565,199.761676 C116.917043,199.848229 116.831826,199.938438 116.831826,200.023771 C116.741739,200.113981 116.831826,200.200533 116.917043,200.376076 C117.00713,200.552838 117.093565,200.638171 117.183652,200.813714 C117.093565,200.990476 117.00713,201.167238 117.00713,201.428114 C116.917043,201.695086 116.831826,201.957181 116.741739,202.219276 C116.655304,202.481371 116.565217,202.747124 116.48,203.095771 C116.393565,203.361524 116.128174,203.623619 115.78,203.885714 C115.689913,203.975924 115.604696,204.062476 115.604696,204.238019 C115.604696,204.414781 115.604696,204.500114 115.604696,204.590324 C115.338087,204.937752 115.076348,205.204724 114.901043,205.466819 C114.639304,205.728914 114.462783,205.994667 114.202261,206.256762 C114.025739,206.518857 114.025739,206.695619 114.110957,206.780952 C114.287478,207.223467 114.287478,207.485562 114.287478,207.662324 C114.202261,207.747657 114.025739,207.9232 113.588696,208.185295 C113.764,208.629029 113.764,208.889905 113.673913,209.066667 C113.588696,209.243429 113.412174,209.414095 113.150435,209.504305 C112.885043,209.590857 112.623304,209.681067 112.446783,209.7664 C112.185043,209.85661 112.009739,210.028495 111.924522,210.205257 C112.185043,210.295467 112.361565,210.295467 112.53687,210.295467 C112.713391,210.295467 112.97513,210.295467 113.23687,210.295467 C112.623304,210.642895 112.185043,210.9952 111.924522,211.432838 C111.657913,211.871695 111.657913,212.224 111.924522,212.661638 C111.657913,212.92861 111.486261,213.100495 111.396174,213.190705 C111.219652,213.366248 111.044348,213.4528 110.872696,213.628343 C110.95913,213.713676 111.044348,213.805105 111.134435,213.890438 C111.219652,213.980648 111.310957,214.0672 111.396174,214.15741 C111.571478,214.595048 111.486261,214.77181 111.134435,214.77181 C110.782609,214.77181 110.52087,214.857143 110.25913,214.947352 C110.430783,215.209448 110.606087,215.471543 110.697391,215.647086 C110.430783,215.733638 110.25913,215.823848 110.083826,215.909181 C109.907304,216.00061 109.640696,216.085943 109.470261,216.176152 C109.293739,216.261486 109.203652,216.348038 109.203652,216.523581 L109.470261,216.790552 C109.817217,216.875886 110.083826,216.962438 110.345565,217.052648 C109.907304,217.052648 109.640696,217.137981 109.555478,217.404952 C109.470261,217.667048 109.470261,217.929143 109.380174,218.281448 C109.293739,218.633752 109.203652,218.981181 109.028348,219.418819 C108.856696,219.771124 108.766609,220.209981 108.680174,220.562286 C108.590087,220.647619 108.590087,220.737829 108.590087,220.824381 C108.590087,220.91459 108.590087,220.999924 108.50487,221.090133 C108.50487,221.266895 108.414783,221.52899 108.328348,221.881295 C108.153043,221.881295 108.067826,221.881295 107.891304,221.881295 C107.714783,221.881295 107.629565,221.881295 107.454261,221.881295 C107.362957,221.881295 107.362957,221.881295 107.277739,221.881295 C107.187652,221.881295 107.102435,221.881295 107.016,221.881295 C107.187652,222.14339 107.277739,222.318933 107.454261,222.404267 C107.629565,222.581029 107.714783,222.756571 107.891304,222.933333 C107.714783,223.110095 107.629565,223.280762 107.454261,223.547733 C107.277739,223.809829 107.187652,223.985371 107.102435,224.247467 C107.016,224.424229 107.016,224.599771 107.102435,224.776533 C107.187652,224.952076 107.277739,225.123962 107.362957,225.299505 C107.362957,225.390933 107.454261,225.476267 107.539478,225.566476 C107.629565,225.65181 107.629565,225.738362 107.629565,225.828571 C107.454261,226.180876 107.362957,226.528305 107.187652,226.88061 C107.016,227.232914 106.925913,227.585219 106.750609,227.933867 C106.664174,228.024076 106.574087,228.10941 106.402435,228.10941 C106.22713,228.199619 106.050609,228.199619 105.875304,228.286171 C105.960522,228.371505 105.960522,228.461714 105.960522,228.547048 C105.960522,228.638476 106.050609,228.72381 106.137043,228.814019 C105.960522,228.900571 105.78887,228.985905 105.698783,228.985905 C105.523478,229.076114 105.437043,229.076114 105.261739,229.161448 C105.523478,229.775848 105.613565,230.304914 105.523478,230.829105 C105.437043,231.356952 105.261739,231.886019 105.085217,232.323657 C105,232.671086 104.909913,233.02339 104.733391,233.285486 C104.562957,233.552457 104.471652,233.899886 104.386435,234.25219 C104.21113,234.9568 104.119826,235.5712 104.034609,236.270933 C103.949391,236.976762 103.858087,237.589943 103.77287,238.204343 C103.682783,238.55299 103.597565,238.905295 103.506261,239.2576 C103.421043,239.605029 103.330957,239.957333 103.245739,240.219429 C103.159304,240.309638 103.069217,240.394971 102.984,240.394971 C102.893913,240.485181 102.807478,240.485181 102.717391,240.571733 C102.455652,240.833829 102.280348,241.009371 102.193913,241.186133 C102.018609,241.361676 102.018609,241.623771 102.018609,241.976076 C102.103826,242.328381 102.018609,242.767238 101.842087,243.119543 C101.666783,243.557181 101.580348,243.994819 101.490261,244.433676 C101.405043,244.609219 101.405043,244.695771 101.319826,244.871314 C101.228522,245.048076 101.228522,245.138286 101.228522,245.308952 C101.319826,245.662476 101.319826,246.014781 101.405043,246.452419 C101.490261,246.804724 101.490261,247.242362 101.405043,247.594667 C101.319826,247.856762 101.228522,248.118857 101.228522,248.385829 C101.228522,248.647924 101.143304,248.910019 101.053217,249.085562 C100.876696,249.614629 100.876696,250.1376 100.968,250.489905 C101.053217,250.928762 101.319826,251.281067 101.666783,251.628495 C101.75687,251.718705 101.842087,251.805257 101.932174,251.895467 C102.018609,251.9808 102.103826,252.07101 102.280348,252.242895 C101.580348,252.509867 100.968,252.418438 100.614957,252.07101 C100.177913,251.718705 99.7408696,251.45661 99.3026087,251.3664 C99.0372174,251.281067 98.9507826,251.104305 98.7754783,250.752 C98.6890435,250.399695 98.5989565,250.1376 98.5137391,249.876724 C98.4236522,249.614629 98.252,249.437867 97.9853913,249.347657 C97.7236522,249.170895 97.7236522,249.000229 97.9853913,248.733257 C97.810087,248.295619 97.6384348,247.943314 97.4631304,247.594667 C97.2866087,247.242362 97.1965217,246.890057 97.1113043,246.537752 C97.0248696,245.752686 96.9347826,244.961524 96.9347826,244.171581 C96.9347826,243.380419 96.9347826,242.590476 96.9347826,241.800533 C96.9347826,241.276343 97.0248696,240.833829 97.1113043,240.394971 C97.1965217,239.957333 97.2866087,239.518476 97.3718261,239.080838 C97.4631304,238.6432 97.5483478,238.290895 97.5483478,237.852038 C97.5483478,237.4144 97.6384348,237.062095 97.7236522,236.623238 C97.9853913,235.5712 98.161913,234.519162 98.3372174,233.375695 C98.5137391,232.323657 98.6890435,231.271619 98.9507826,230.128152 C99.4791304,227.847314 100.092696,225.476267 100.791478,223.110095 C101.053217,222.318933 101.228522,221.52899 101.490261,220.737829 C101.75687,219.947886 102.018609,219.156724 102.280348,218.366781 C102.807478,216.790552 103.330957,215.209448 103.858087,213.713676 C104.386435,212.138667 104.909913,210.642895 105.437043,209.066667 C105.698783,208.452267 105.875304,207.9232 106.137043,207.395352 C106.402435,206.871162 106.574087,206.256762 106.840696,205.728914 C107.187652,204.937752 107.454261,204.152686 107.801217,203.361524 C108.153043,202.571581 108.414783,201.780419 108.766609,200.990476 C109.118435,200.113981 109.470261,199.233829 109.907304,198.272 C110.25913,197.390629 110.697391,196.4288 111.044348,195.547429 C111.134435,195.376762 111.219652,195.10979 111.396174,194.49539 C111.571478,193.9712 111.748,193.3568 111.924522,192.7424 C112.099826,192.128 112.271478,191.600152 112.361565,191.071086 C112.446783,190.548114 112.446783,190.371352 112.271478,190.371352 C111.924522,190.286019 111.571478,190.286019 111.219652,190.286019 C110.872696,190.286019 110.606087,190.109257 110.345565,189.842286 C110.25913,189.756952 110.083826,189.756952 109.907304,189.842286 C109.732,189.933714 109.470261,190.019048 109.293739,190.019048 L108.856696,189.671619 Z M104.21113,219.68579 C104.119826,219.947886 104.119826,220.123429 104.119826,220.209981 C104.119826,220.385524 104.119826,220.562286 104.034609,220.737829 C104.119826,220.824381 104.21113,220.824381 104.386435,220.824381 C104.471652,220.647619 104.562957,220.475733 104.562957,220.30019 C104.562957,220.123429 104.648174,219.947886 104.733391,219.771124 L104.21113,219.771124 C104.21113,219.595581 104.21113,219.509029 104.21113,219.333486 C104.21113,219.156724 104.21113,219.07139 104.21113,218.894629 C104.648174,218.981181 105.085217,219.07139 105.523478,219.156724 C105.437043,218.804419 105.346957,218.542324 105.346957,218.366781 C105.261739,218.190019 105.261739,218.019352 105.176522,217.929143 C105.346957,217.752381 105.437043,217.575619 105.523478,217.490286 C105.613565,217.404952 105.698783,217.22819 105.78887,217.137981 C105.523478,216.962438 105.261739,216.790552 105.085217,216.700343 C105.261739,216.261486 105.437043,215.909181 105.523478,215.471543 C105.698783,215.033905 105.78887,214.680381 105.960522,214.15741 C106.050609,214.242743 106.050609,214.242743 106.137043,214.242743 C106.050609,214.504838 105.960522,214.77181 105.875304,215.033905 C105.78887,215.294781 105.698783,215.561752 105.613565,215.823848 C105.523478,215.909181 105.523478,216.00061 105.523478,216.085943 C105.523478,216.176152 105.523478,216.261486 105.437043,216.348038 C105.523478,216.261486 105.613565,216.176152 105.78887,216.085943 C105.960522,216.00061 106.050609,215.909181 106.050609,215.823848 C106.312348,215.38621 106.48887,215.033905 106.750609,214.504838 C107.016,214.0672 107.187652,213.54301 107.454261,213.013943 C107.187652,213.100495 107.016,213.190705 106.925913,213.276038 C106.750609,213.366248 106.574087,213.4528 106.402435,213.54301 C106.312348,213.4528 106.312348,213.4528 106.312348,213.4528 C106.312348,213.4528 106.312348,213.366248 106.22713,213.366248 C106.402435,213.190705 106.574087,213.100495 106.840696,212.92861 C106.925913,212.8384 107.016,212.751848 107.187652,212.661638 C107.362957,212.576305 107.454261,212.486095 107.539478,212.399543 C107.801217,211.871695 107.976522,211.432838 108.067826,210.909867 C108.24313,210.3808 108.414783,209.85661 108.590087,209.328762 C108.50487,209.243429 108.414783,209.243429 108.24313,209.243429 C108.067826,209.243429 107.891304,209.152 107.714783,209.066667 C108.067826,208.452267 108.414783,207.747657 108.766609,207.133257 C108.941913,207.310019 109.028348,207.395352 109.118435,207.570895 C110.083826,206.780952 110.430783,206.081219 110.083826,205.381486 C109.993739,205.466819 109.907304,205.552152 109.732,205.552152 C109.555478,205.642362 109.470261,205.642362 109.380174,205.728914 C109.380174,205.728914 109.293739,205.728914 109.203652,205.642362 C109.555478,204.767086 109.907304,203.975924 110.25913,203.095771 C110.606087,202.309486 110.95913,201.428114 111.310957,200.552838 L111.486261,200.552838 C111.486261,200.813714 111.486261,200.990476 111.486261,201.080686 C111.486261,201.252571 111.486261,201.428114 111.486261,201.604876 C111.571478,201.604876 111.571478,201.604876 111.571478,201.604876 C111.571478,201.604876 111.657913,201.604876 111.657913,201.604876 C111.833217,201.342781 112.009739,201.167238 112.185043,200.905143 C112.361565,200.638171 112.446783,200.376076 112.623304,200.113981 C112.713391,200.023771 112.623304,200.023771 112.623304,199.938438 C112.53687,199.848229 112.446783,199.761676 112.361565,199.761676 C112.271478,199.676343 112.009739,199.761676 111.657913,199.938438 C111.571478,199.676343 111.486261,199.499581 111.486261,199.409371 C111.748,198.709638 111.924522,198.005029 112.185043,197.305295 C112.446783,196.604343 112.623304,195.899733 112.885043,195.2 C112.97513,194.933029 113.060348,194.762362 113.060348,194.49539 C113.060348,194.233295 113.150435,194.057752 113.150435,193.795657 C113.23687,193.704229 113.150435,193.704229 113.150435,193.618895 C113.060348,193.528686 112.97513,193.528686 112.885043,193.528686 C112.623304,193.528686 112.53687,193.618895 112.446783,193.704229 C112.099826,194.147962 111.833217,194.670933 111.571478,195.376762 C111.134435,196.4288 110.697391,197.566171 110.25913,198.619429 C109.817217,199.676343 109.380174,200.813714 108.941913,201.866971 C108.680174,202.571581 108.414783,203.271314 108.067826,203.975924 C107.801217,204.675657 107.539478,205.381486 107.187652,206.081219 C106.925913,206.780952 106.664174,207.485562 106.312348,208.185295 C106.050609,208.889905 105.698783,209.590857 105.437043,210.205257 L104.823478,211.785143 C104.648174,212.31421 104.471652,212.751848 104.296348,213.276038 C104.119826,213.713676 103.949391,214.242743 103.682783,214.680381 C103.069217,216.523581 102.455652,218.366781 101.842087,220.30019 C101.580348,220.91459 101.405043,221.52899 101.228522,222.14339 C101.053217,222.756571 100.876696,223.280762 100.706261,223.985371 C100.529739,224.599771 100.439652,225.123962 100.354435,225.738362 C100.26313,226.352762 100.092696,226.88061 99.826087,227.319467 C99.4791304,227.933867 99.3890435,228.638476 99.3026087,229.252876 C99.3026087,229.95261 99.1273043,230.56701 98.9507826,231.18141 C98.6890435,231.79581 98.5137391,232.500419 98.5137391,233.200152 C98.5137391,233.899886 98.3372174,234.604495 98.161913,235.304229 C97.9001739,235.918629 97.810087,236.623238 97.9001739,237.237638 C97.9001739,237.93859 97.810087,238.55299 97.5483478,239.166171 C97.4631304,239.342933 97.4631304,239.433143 97.5483478,239.605029 C97.6384348,239.780571 97.6384348,239.957333 97.6384348,240.219429 C97.810087,240.047543 97.9853913,239.872 98.0754783,239.780571 C98.161913,239.605029 98.252,239.518476 98.4236522,239.342933 C98.5989565,240.219429 98.252,240.661943 97.4631304,240.661943 C97.7236522,240.747276 97.9001739,240.833829 98.0754783,240.924038 C98.252,241.009371 98.5137391,241.099581 98.6890435,241.186133 C99.1273043,240.485181 99.3026087,239.780571 99.3890435,239.080838 C99.4791304,238.376229 99.2125217,237.761829 98.8655652,237.062095 C99.5643478,236.623238 100.177913,236.1856 100.614957,235.833295 C100.354435,235.656533 100.177913,235.48099 100.002609,235.304229 C99.826087,235.133562 99.826087,234.86659 100.177913,234.519162 C100.26313,234.3424 100.177913,234.166857 100.092696,233.990095 C99.826087,233.728 99.7408696,233.552457 99.9161739,233.375695 C100.002609,233.200152 100.092696,233.02339 100.26313,232.938057 C100.26313,232.671086 100.26313,232.500419 100.26313,232.323657 C100.26313,232.148114 100.26313,231.971352 100.26313,231.79581 C100.177913,231.709257 100.092696,231.709257 100.002609,231.619048 C99.9161739,231.533714 99.826087,231.533714 99.7408696,231.442286 C100.002609,231.356952 100.26313,231.271619 100.439652,231.271619 C100.706261,231.18141 100.791478,231.18141 100.876696,231.094857 C101.143304,230.657219 101.319826,230.304914 101.405043,229.866057 C101.580348,229.428419 101.75687,228.985905 101.932174,228.547048 C101.75687,228.547048 101.666783,228.547048 101.490261,228.547048 C101.319826,228.547048 101.228522,228.547048 101.053217,228.547048 C101.053217,228.461714 101.053217,228.371505 100.968,228.371505 C101.143304,228.286171 101.319826,228.199619 101.405043,228.10941 C101.580348,228.024076 101.666783,227.933867 101.842087,227.847314 C101.75687,227.409676 101.75687,226.967162 101.842087,226.442971 C101.842087,226.005333 101.580348,225.566476 100.968,225.299505 C101.319826,225.214171 101.580348,225.214171 101.666783,225.299505 C101.75687,225.390933 101.842087,225.476267 101.932174,225.566476 C102.018609,225.65181 102.103826,225.738362 102.193913,225.828571 C102.103826,225.390933 102.103826,225.123962 102.193913,225.038629 C102.280348,224.861867 102.455652,224.685105 102.807478,224.337676 C102.893913,224.247467 102.893913,224.247467 102.893913,224.247467 C102.893913,224.247467 102.893913,224.162133 102.984,224.162133 C103.159304,223.547733 103.330957,222.933333 103.506261,222.404267 C103.682783,221.881295 103.858087,221.266895 104.034609,220.737829 C104.034609,220.737829 103.949391,220.647619 103.858087,220.475733 C103.77287,220.562286 103.682783,220.647619 103.597565,220.647619 C103.506261,220.647619 103.421043,220.737829 103.330957,220.824381 C103.245739,220.737829 103.245739,220.737829 103.245739,220.737829 C103.245739,220.737829 103.159304,220.737829 103.159304,220.647619 C103.330957,220.385524 103.421043,220.123429 103.597565,219.861333 C103.77287,219.595581 103.949391,219.333486 104.119826,219.07139 L104.21113,219.68579 Z M110.782609,207.395352 C110.697391,207.662324 110.606087,207.837867 110.52087,208.099962 C110.430783,208.362057 110.345565,208.629029 110.169043,208.799695 C109.907304,209.328762 109.555478,209.85661 109.203652,210.3808 C108.856696,210.909867 108.590087,211.432838 108.50487,212.047238 C108.414783,212.31421 108.328348,212.576305 108.24313,212.92861 C108.153043,213.190705 108.067826,213.4528 107.976522,213.713676 C107.362957,214.680381 106.925913,215.733638 106.574087,216.790552 C106.312348,217.84259 105.960522,218.894629 105.698783,219.947886 C105.523478,220.385524 105.437043,220.824381 105.437043,221.266895 C105.346957,221.704533 105.176522,222.14339 104.823478,222.581029 C104.648174,222.843124 104.471652,223.110095 104.386435,223.370971 C104.296348,223.723276 104.21113,223.985371 104.119826,224.247467 C104.034609,224.776533 103.949391,225.214171 103.949391,225.65181 C103.858087,226.090667 103.77287,226.618514 103.597565,227.057371 C103.421043,227.585219 103.330957,228.024076 103.245739,228.638476 C103.159304,229.161448 102.807478,229.600305 102.193913,229.95261 C102.280348,230.214705 102.370435,230.390248 102.455652,230.657219 C102.545739,230.919314 102.632174,231.18141 102.807478,231.442286 C103.069217,231.004648 103.245739,230.657219 103.245739,230.480457 C103.597565,229.428419 103.949391,228.461714 104.21113,227.409676 C104.562957,226.352762 104.823478,225.390933 105.176522,224.337676 L106.402435,220.737829 C106.48887,220.475733 106.574087,220.209981 106.664174,219.947886 C106.750609,219.68579 106.925913,219.418819 107.016,219.156724 C107.187652,218.804419 107.277739,218.45699 107.539478,218.190019 C107.714783,217.929143 107.891304,217.575619 107.891304,217.22819 C107.976522,216.700343 108.067826,216.261486 108.153043,215.733638 C108.24313,215.209448 108.50487,214.77181 108.856696,214.332952 C108.941913,214.242743 108.941913,214.242743 108.941913,214.15741 C108.941913,214.0672 108.941913,214.0672 109.028348,213.980648 C109.118435,213.805105 109.118435,213.628343 109.203652,213.4528 C109.293739,213.276038 109.293739,213.013943 109.380174,212.751848 C109.293739,212.486095 109.293739,212.138667 109.555478,211.6096 C109.732,211.08541 109.993739,210.642895 110.25913,210.295467 C110.606087,209.85661 110.782609,209.414095 110.782609,208.976457 C110.782609,208.5376 110.872696,208.014629 110.95913,207.570895 C111.044348,207.570895 110.95913,207.485562 110.697391,207.395352 L110.782609,207.395352 Z M106.750609,185.367162 C106.750609,185.195276 106.750609,185.105067 106.664174,185.018514 C106.312348,185.018514 106.137043,185.018514 105.875304,185.105067 L103.858087,185.542705 C103.421043,185.632914 103.069217,185.719467 102.717391,185.719467 C102.370435,185.719467 101.932174,185.809676 101.580348,185.89501 C101.053217,185.980343 100.614957,186.071771 100.092696,186.157105 C99.5643478,186.247314 99.0372174,186.333867 98.5989565,186.50941 C97.4631304,186.771505 96.3212174,186.947048 95.1805217,187.12381 C94.1286957,187.300571 92.9928696,187.561448 91.7657391,187.828419 C90.9756522,188.090514 90.1867826,188.267276 89.397913,188.528152 C88.6078261,188.790248 87.8189565,189.057219 87.0288696,189.229105 C86.5066087,189.404648 85.9782609,189.671619 85.6313043,189.933714 C85.1893913,190.19581 84.9276522,190.456686 84.7511304,190.723657 C85.3646957,190.456686 86.0683478,190.286019 86.681913,190.109257 C87.3806957,189.933714 87.9942609,189.756952 88.6078261,189.494857 C89.5732174,189.229105 90.4485217,189.057219 91.413913,188.790248 C92.2892174,188.528152 93.2546087,188.35261 94.22,188.090514 C95.094087,187.828419 95.9693913,187.652876 96.9347826,187.561448 C97.810087,187.385905 98.7754783,187.209143 99.6495652,187.038476 C100.529739,186.771505 101.319826,186.594743 102.193913,186.424076 C102.984,186.247314 103.858087,186.071771 104.733391,185.980343 C105.085217,185.89501 105.437043,185.809676 105.78887,185.719467 C106.137043,185.542705 106.48887,185.457371 106.840696,185.28061 L106.750609,185.367162 Z M112.53687,186.247314 C112.361565,186.157105 112.185043,186.071771 112.099826,185.980343 C111.924522,185.89501 111.833217,185.89501 111.657913,185.980343 C111.134435,186.071771 110.697391,186.157105 110.169043,186.333867 C109.640696,186.50941 109.118435,186.594743 108.680174,186.771505 C108.24313,186.861714 107.891304,186.947048 107.539478,186.947048 C107.187652,186.947048 106.750609,187.038476 106.402435,187.12381 C105.613565,187.300571 104.823478,187.385905 103.949391,187.476114 C103.159304,187.561448 102.280348,187.652876 101.405043,187.73821 C101.228522,187.828419 101.053217,187.828419 100.876696,187.913752 C100.706261,188.000305 100.529739,188.000305 100.26313,188.090514 L96.6730435,188.704914 C96.4064348,188.790248 96.236,188.790248 96.0594783,188.790248 C95.8841739,188.790248 95.6224348,188.880457 95.445913,188.880457 C95.3558261,188.96701 95.2706087,189.057219 95.1805217,189.142552 C95.094087,189.229105 95.0088696,189.404648 94.9187826,189.494857 C95.2706087,189.671619 95.5323478,189.756952 95.7076522,189.756952 C95.8841739,189.756952 96.145913,189.671619 96.4977391,189.494857 C96.7582609,189.319314 96.9347826,189.319314 97.2866087,189.229105 C97.5483478,189.229105 97.810087,189.142552 98.161913,189.142552 C98.5137391,189.057219 98.8655652,189.142552 99.2125217,189.229105 C99.5643478,189.319314 99.826087,189.142552 100.002609,188.790248 C100.791478,188.704914 101.490261,188.614705 102.193913,188.614705 C102.893913,188.528152 103.597565,188.442819 104.21113,188.175848 C105,187.828419 105.78887,187.73821 106.574087,187.73821 C107.362957,187.828419 108.153043,187.652876 108.941913,187.300571 C109.640696,187.038476 110.345565,186.861714 111.044348,186.771505 C111.748,186.686171 112.53687,186.594743 113.23687,186.50941 C113.412174,186.424076 113.588696,186.333867 113.764,186.071771 C113.764,185.980343 113.764,185.980343 113.673913,185.89501 L113.497391,185.719467 C113.150435,185.719467 112.97513,185.719467 112.885043,185.809676 C112.798609,185.89501 112.713391,185.89501 112.713391,185.980343 C112.623304,186.071771 112.623304,186.071771 112.53687,186.157105 L112.53687,186.247314 Z M111.748,207.133257 C111.748,206.609067 111.833217,206.166552 112.009739,205.728914 C112.185043,205.290057 112.361565,204.767086 112.623304,204.323352 C112.885043,203.885714 113.060348,203.448076 113.23687,202.923886 C113.412174,202.481371 113.497391,201.957181 113.497391,201.519543 C113.060348,202.042514 112.713391,202.656914 112.446783,203.448076 C112.185043,203.975924 112.009739,204.414781 111.833217,204.852419 C111.657913,205.290057 111.486261,205.728914 111.219652,206.166552 C110.782609,206.780952 110.95913,207.047924 111.748,207.133257 Z M97.4631304,245.400381 C97.5483478,244.961524 97.6384348,244.523886 97.6384348,244.081371 C97.7236522,243.642514 97.7236522,243.204876 97.810087,242.767238 C97.9853913,243.028114 98.0754783,243.204876 98.0754783,243.295086 C98.161913,243.466971 98.252,243.557181 98.3372174,243.733943 C98.4236522,243.642514 98.5137391,243.642514 98.5989565,243.642514 C98.5989565,243.380419 98.5989565,243.204876 98.5989565,242.942781 C98.5989565,242.680686 98.5137391,242.590476 98.4236522,242.505143 C98.161913,242.413714 98.0754783,242.328381 97.9001739,242.152838 C97.810087,241.976076 97.7236522,241.800533 97.6384348,241.623771 C97.5483478,241.713981 97.4631304,241.800533 97.3718261,241.800533 C97.2866087,241.890743 97.1965217,241.890743 97.1965217,241.976076 C97.1965217,242.238171 97.1965217,242.413714 97.1965217,242.505143 C97.1965217,242.680686 97.1965217,242.852571 97.1965217,243.028114 C97.1113043,243.380419 97.1113043,243.733943 97.1113043,243.994819 C97.1113043,244.256914 97.0248696,244.609219 96.9347826,244.871314 C96.9347826,244.785981 97.1113043,244.961524 97.3718261,245.223619 L97.4631304,245.400381 Z M102.632174,231.619048 C102.632174,231.619048 102.545739,231.533714 102.455652,231.442286 C102.370435,231.619048 102.280348,231.709257 102.103826,231.886019 C101.932174,232.056686 101.932174,232.148114 101.932174,232.148114 C102.193913,232.500419 102.193913,232.847848 101.932174,233.114819 C101.666783,233.375695 101.490261,233.728 101.405043,233.990095 C101.405043,234.076648 101.405043,234.166857 101.405043,234.3424 C101.405043,234.519162 101.405043,234.604495 101.405043,234.691048 C101.405043,234.781257 101.490261,234.781257 101.580348,234.781257 C101.666783,234.781257 101.75687,234.781257 101.75687,234.781257 C101.932174,234.691048 102.018609,234.604495 102.193913,234.428952 C102.370435,234.25219 102.370435,234.166857 102.370435,234.076648 C102.455652,233.63779 102.545739,233.200152 102.545739,232.762514 C102.545739,232.323657 102.632174,231.971352 102.632174,231.442286 L102.632174,231.619048 Z M100.968,237.676495 C101.053217,237.676495 101.053217,237.676495 101.053217,237.676495 C101.053217,237.676495 101.143304,237.676495 101.143304,237.676495 C101.319826,237.32419 101.405043,236.976762 101.580348,236.70979 C101.75687,236.362362 101.842087,236.09539 101.932174,235.747962 C101.932174,235.656533 101.842087,235.48099 101.666783,235.218895 C101.580348,235.304229 101.490261,235.395657 101.405043,235.395657 C101.319826,235.48099 101.228522,235.48099 101.228522,235.5712 C101.143304,235.833295 101.053217,236.09539 100.968,236.362362 C100.876696,236.623238 100.876696,236.885333 100.791478,237.147429 C100.706261,237.237638 100.791478,237.32419 100.791478,237.4144 C100.876696,237.499733 100.876696,237.589943 100.968,237.676495 Z M109.907304,184.580876 C109.470261,184.66621 109.028348,184.752762 108.590087,184.752762 C108.153043,184.842971 107.801217,184.842971 107.277739,184.928305 L107.277739,185.105067 C107.629565,185.28061 107.891304,185.367162 107.976522,185.457371 C108.328348,185.28061 108.680174,185.195276 108.941913,185.105067 C109.203652,185.018514 109.470261,184.842971 109.817217,184.752762 L109.817217,184.580876 L109.907304,184.580876 Z M98.5137391,244.433676 C98.4236522,244.523886 98.3372174,244.523886 98.161913,244.523886 C98.0754783,244.785981 97.9853913,245.048076 97.9001739,245.308952 C97.810087,245.575924 98.0754783,245.752686 98.5137391,246.014781 C98.5137391,245.752686 98.5137391,245.485714 98.5137391,245.223619 C98.5137391,244.961524 98.5137391,244.695771 98.5137391,244.433676 Z M94.3953043,189.057219 C94.0434783,189.142552 93.7817391,189.229105 93.5151304,189.229105 C93.2546087,189.319314 92.9015652,189.319314 92.6410435,189.404648 C92.6410435,189.494857 92.6410435,189.58141 92.6410435,189.58141 C92.6410435,189.671619 92.6410435,189.671619 92.6410435,189.756952 C92.9015652,189.671619 93.1681739,189.58141 93.5151304,189.58141 C93.7817391,189.58141 94.1286957,189.494857 94.3953043,189.404648 L94.3953043,188.96701 L94.3953043,189.057219 Z M105.346957,227.319467 C105.698783,227.057371 106.050609,226.795276 106.48887,226.442971 C106.050609,226.352762 105.698783,226.352762 105.523478,226.442971 C105.346957,226.528305 105.261739,226.795276 105.346957,227.319467 Z M106.664174,211.432838 C106.750609,211.08541 106.840696,210.819657 106.925913,210.557562 C107.016,210.295467 107.102435,210.028495 107.187652,209.7664 C107.277739,209.85661 107.362957,209.85661 107.362957,209.85661 C107.454261,209.85661 107.454261,209.85661 107.539478,209.943162 L106.925913,211.524267 C106.840696,211.524267 106.750609,211.524267 106.750609,211.524267 C106.664174,211.524267 106.664174,211.524267 106.574087,211.524267 L106.664174,211.432838 Z"/>
    <path fill="#343F33" d="M97.9853913,77.594819 C97.9001739,79.7903238 97.7236522,81.9809524 97.7236522,84.2666667 C97.7236522,130.690438 135.325217,168.518705 181.862435,168.518705 C200.270609,168.518705 217.446783,162.638019 231.294609,152.456533 L261.881565,168.1664 L251.628696,131.219505 C260.654435,117.790476 265.828348,101.642971 265.828348,84.2666667 C265.828348,81.9809524 265.738261,79.7903238 265.562957,77.594819 L248.823826,77.594819 C249.084348,79.7903238 249.175652,81.9809524 249.175652,84.2666667 C249.175652,121.567086 219.025739,151.7568 181.776,151.7568 C144.527478,151.7568 114.377565,121.567086 114.377565,84.2666667 C114.377565,81.9809524 114.462783,79.7903238 114.724522,77.594819 L97.810087,77.594819 L97.9853913,77.594819 Z"/>
    <path fill="#82C745" d="M181.776,0.00975238095 C140.932522,0.00975238095 106.925913,29.0620952 99.3026087,67.6766476 L116.393565,67.6766476 C123.75513,38.3622095 150.223652,16.5997714 181.862435,16.5997714 C213.414783,16.5997714 239.973391,38.3622095 247.334957,67.6766476 L264.425913,67.6766476 C256.622435,29.0620952 222.615826,0.00975238095 181.776,0.00975238095 Z"/>
    <path fill="#82C745" d="M192.557217,91.9856762 C201.497739,94.004419 206.752,99.2719238 206.928522,109.714286 C206.928522,114.280838 207.193913,128.4096 207.193913,141.137676 C199.480522,144.647314 190.801739,146.575848 181.776,146.575848 C172.745391,146.575848 164.157913,144.647314 156.359304,141.137676 C156.444522,128.585143 156.619826,114.4576 156.619826,109.714286 C156.71113,99.0951619 162.055478,93.9190857 170.996,91.9856762 C169.417043,90.0571429 168.189913,89.9718095 166.610957,87.8616381 C155.654435,74.4338286 164.946783,55.7433905 180.810609,55.476419 L182.736522,55.476419 C198.691652,55.7433905 208.069217,74.4338286 196.937391,87.8616381 C195.358435,89.880381 194.131304,89.880381 192.557217,91.9856762 Z"/>
    <path fill="#343F33" d="M149.958261,99.7095619 C151.537217,100.061867 152.939652,100.590933 154.166783,101.205333 C153.291478,103.747048 152.854435,106.642286 152.854435,109.804495 C152.76313,119.547124 152.587826,129.461638 152.587826,139.290819 C139.353565,132.18621 128.838957,120.33341 123.579826,106.119314 C125.505739,102.69501 128.74887,100.766476 133.132696,99.7997714 C131.906783,98.2186667 130.941391,98.2186667 129.627826,96.5522286 C120.950261,85.9331048 128.310609,71.1862857 140.932522,70.9241905 L142.334957,70.9241905 C154.955652,71.1862857 162.317217,85.9331048 153.643304,96.5522286 C152.064348,98.2186667 151.189043,98.2186667 149.871826,99.7997714 L149.958261,99.7095619 Z"/>
    <path fill="#82C745" d="M171.081217,91.9856762 C162.141913,94.004419 156.881565,99.2719238 156.71113,109.714286 C156.71113,114.280838 156.444522,128.4096 156.444522,141.137676 C164.157913,144.647314 172.836696,146.575848 181.862435,146.575848 C190.893043,146.575848 199.480522,144.647314 207.280348,141.137676 C207.193913,128.585143 207.018609,114.4576 207.018609,109.714286 C206.928522,99.0951619 201.582957,93.9190857 192.642435,91.9856762 C194.221391,90.0571429 195.448522,89.9718095 197.027478,87.8616381 C207.97913,74.4338286 198.691652,55.7433905 182.827826,55.476419 L181.072348,55.476419 C165.123304,55.7433905 155.745739,74.4338286 166.877565,87.8616381 C168.366435,89.880381 169.417043,89.880381 170.996,91.9856762 L171.081217,91.9856762 Z"/>
    <path fill="#343F33" d="M213.590087,99.7095619 C212.01113,100.061867 210.608696,100.590933 209.381565,101.205333 C210.261739,103.747048 210.698783,106.642286 210.698783,109.804495 C210.785217,119.547124 210.960522,129.461638 210.960522,139.290819 C224.194783,132.18621 234.714261,120.33341 239.973391,106.119314 C238.042609,102.69501 234.799478,100.766476 230.419304,99.7997714 C231.646435,98.2186667 232.606957,98.2186667 233.924174,96.5522286 C242.598087,85.9331048 235.236522,71.1862857 222.615826,70.9241905 L221.213391,70.9241905 C208.592696,71.1862857 201.23113,85.9331048 209.909913,96.5522286 C211.48887,98.2186667 212.449391,98.2186667 213.676522,99.7997714 L213.590087,99.7095619 Z"/>
  </g>
</svg>
