<?xml version="1.0" encoding="UTF-8"?>
<!DOCTYPE svg PUBLIC "-//W3C//DTD SVG 1.1//EN" "http://www.w3.org/Graphics/SVG/1.1/DTD/svg11.dtd">
<!-- Creator: CorelDRAW 2017 -->
<svg xmlns="http://www.w3.org/2000/svg" xml:space="preserve" width="4.14965in" height="2.91101in" version="1.1" style="shape-rendering:geometricPrecision; text-rendering:geometricPrecision; image-rendering:optimizeQuality; fill-rule:evenodd; clip-rule:evenodd"
viewBox="0 0 4150 2911"
 xmlns:xlink="http://www.w3.org/1999/xlink">
 <defs>
  <style type="text/css">
   <![CDATA[
    .fil0 {fill:#343F33}
    .fil2 {fill:#82C745}
    .fil1 {fill:#82C745;fill-rule:nonzero}
   ]]>
  </style>
 </defs>
 <g id="Layer_x0020_1">
  <metadata id="CorelCorpID_0Corel-Layer"/>
  <g id="_1517899010384">
   <g>
    <path class="fil0" d="M1358 2391c56,-6 53,18 53,87l0 262 38 0 0 -220c0,-78 48,-130 126,-130 78,0 101,58 101,130l0 220 38 0 0 -220c0,-77 45,-130 123,-131 75,0 97,58 97,126l0 139c0,69 18,101 92,87l0 -30c-58,10 -55,-18 -55,-62l0 -133c0,-84 -27,-158 -124,-158 -69,0 -125,32 -146,91 -13,-54 -48,-91 -116,-91 -66,0 -113,27 -138,80 0,-54 -22,-87 -88,-73l0 28 0 0z"/>
    <path class="fil0" d="M2431 2393c-46,-22 -95,-35 -145,-35 -120,0 -203,70 -205,191 0,105 58,197 171,197 66,0 120,-30 148,-92l0 18c0,55 20,78 82,70l-1 -33c-49,6 -48,-18 -48,-58l0 -257 -1 0zm-35 158c0,94 -51,159 -138,159 -91,0 -140,-74 -140,-161 2,-101 70,-160 167,-160 34,0 74,9 111,27l0 135 0 0z"/>
    <path class="fil0" d="M2908 2469c-25,-75 -96,-112 -169,-112 -98,-1 -200,66 -200,195 0,129 98,195 195,195 75,0 152,-41 177,-124l-38 0c-24,60 -80,89 -138,89 -78,0 -160,-55 -160,-161 0,-106 84,-161 163,-161 55,0 108,26 131,78l38 0 0 1z"/>
    <path class="fil0" d="M3046 2519c0,-77 51,-131 129,-131 85,0 123,40 123,128l0 152c0,62 27,85 92,72l-1 -31c-48,9 -53,-10 -53,-43l0 -149c0,-101 -53,-161 -155,-161 -53,0 -105,22 -135,72l0 -257 -38 0 0 570 39 0 0 -220 -1 0z"/>
    <path class="fil0" d="M3777 2686c-40,18 -85,27 -126,27 -112,0 -180,-66 -169,-173 41,33 108,45 161,45 67,0 145,-27 152,-104 9,-86 -81,-124 -155,-124 -106,1 -181,62 -192,169 -15,138 65,223 202,223 43,0 87,-8 128,-26l0 -37 -1 0zm-291 -181c16,-77 74,-115 153,-115 55,0 124,24 117,87 -4,58 -69,72 -118,72 -49,0 -117,-12 -152,-44l0 0z"/>
    <path class="fil0" d="M3940 2415c0,-44 -26,-59 -86,-49l1 32c47,-6 48,17 48,54l0 289 38 0 0 -243c0,-63 54,-103 110,-103 30,0 61,8 86,26l13 -32c-25,-18 -59,-29 -96,-30 -43,-3 -89,13 -114,57l0 0z"/>
    <g>
     <path class="fil1" d="M628 2427c4,4 5,8 3,12 -1,4 -2,8 -3,12 0,1 0,2 -1,2 -1,1 -1,1 -2,2l-18 30c-3,6 -6,11 -10,16 -3,5 -6,10 -10,16 -3,5 -6,10 -9,15 -3,5 -6,9 -9,15 -3,5 -5,9 -8,14 -3,5 -5,9 -8,15 -2,3 -3,5 -3,8 -1,3 -2,6 -3,9 -2,1 -4,1 -6,1 1,3 1,5 1,7 0,2 0,5 0,7 0,1 -1,2 -2,3 -2,1 -3,2 -3,3 -2,4 -4,7 -5,11 -1,4 -4,7 -8,9 -1,1 -1,2 -1,3 0,2 0,3 0,5 -3,6 -6,12 -9,18 -3,6 -6,12 -8,19 -2,4 -3,7 -4,10 -1,3 -2,7 -3,10l0 4c-4,3 -6,7 -6,11 0,5 -1,9 -3,13 -2,6 -4,11 -6,17 -2,6 -4,12 -6,17 -2,5 -3,10 -4,15 -1,5 -2,10 -3,16 -1,3 -1,5 -2,8 -1,3 -1,5 -1,8 -1,2 0,4 1,8 -1,1 -2,1 -3,2 -1,1 -2,1 -3,2 1,7 2,14 3,22 1,7 -1,15 -5,22 2,2 3,3 4,5 1,2 1,5 -2,8 -1,2 -1,3 -1,6 1,2 3,4 6,5 2,1 4,2 5,3 2,2 3,3 4,4 0,2 -1,3 -2,4 -2,1 -3,2 -4,3 -1,1 -2,2 -3,3 -1,1 -1,3 0,6 -5,-1 -9,-2 -14,-3 -5,-1 -9,-2 -11,-5 -6,-5 -11,-10 -15,-16 -5,-6 -9,-11 -12,-18 -3,-6 -5,-11 -6,-18 -2,-6 -3,-12 -5,-18 -2,-7 -2,-14 -2,-21 0,-12 0,-23 1,-34 1,-11 2,-22 5,-33 1,-2 0,-4 -1,-6 -1,-2 -1,-4 -1,-6 2,-4 3,-8 5,-13 2,-4 3,-9 5,-13 1,-3 2,-6 3,-10 1,-3 2,-7 3,-10 4,-11 8,-22 11,-34 4,-11 7,-22 11,-34 5,-13 9,-25 14,-38 5,-12 10,-25 15,-39 10,-26 20,-53 32,-80 5,-11 10,-22 16,-33 5,-11 11,-22 16,-34 1,-2 2,-4 2,-5 0,-3 -1,-4 -2,-5 -2,-1 -3,-1 -5,2 -6,5 -11,10 -17,15 -6,5 -11,10 -18,15 -10,9 -19,19 -27,31 -1,1 -1,1 -2,1 -1,0 -1,1 -2,1 -5,3 -9,7 -13,11 -3,4 -6,9 -10,13 -2,3 -3,5 -5,6 -2,2 -4,4 -6,6 -3,4 -5,7 -8,11 -3,4 -5,7 -8,11 -2,2 -2,3 -1,3 2,4 1,7 -2,10 -3,3 -5,5 -7,8 -3,4 -5,7 -8,10 -3,3 -5,6 -8,10 -3,3 -5,6 -6,10 -2,4 -4,7 -6,10 -4,6 -7,11 -11,17 -4,6 -7,11 -11,17 -3,4 -5,7 -7,11 -2,4 -5,7 -7,11 -1,1 -1,1 -1,1 0,0 0,1 -1,1 -5,5 -9,11 -12,17 -3,6 -6,12 -9,18 -4,6 -7,11 -10,18 -3,6 -7,12 -10,18 -4,7 -7,13 -10,19 -3,6 -7,12 -10,18 -2,4 -4,8 -5,12 -2,4 -4,8 -6,11 -3,4 -5,7 -8,10 -3,3 -6,6 -9,9 -1,1 -1,2 -1,3 0,1 -1,2 -2,3l0 1c-1,2 -2,3 -3,5 -1,2 -3,4 -4,6 -2,-1 -5,-1 -8,-1 -3,0 -6,-1 -8,-3 -4,-3 -8,-6 -11,-9 -4,-4 -6,-7 -8,-11 -2,-5 -4,-10 -7,-16 -3,-5 -2,-11 2,-17l-6 0c-1,-3 -1,-5 -1,-7 0,-2 0,-4 0,-6 0,-3 0,-5 0,-8 0,-3 0,-5 1,-8 1,-4 1,-7 2,-10 1,-3 1,-7 2,-10 1,-3 2,-6 2,-10 0,-4 1,-7 2,-10 5,-16 9,-32 14,-48 5,-16 9,-32 14,-48 1,-2 3,-6 5,-11 4,-10 8,-20 12,-30 4,-10 8,-20 12,-30 4,-9 7,-17 11,-25 4,-8 7,-17 11,-25 6,-12 11,-25 17,-37 6,-13 12,-25 17,-37 5,-9 9,-18 14,-27 5,-9 9,-18 14,-27 5,-9 9,-18 14,-27 5,-9 10,-18 14,-27 1,-2 2,-4 4,-6 2,-2 3,-4 4,-6 2,-4 3,-7 3,-10 -6,3 -10,7 -14,11 -4,5 -8,9 -12,15 -1,-1 -1,-1 -1,-1 0,0 -1,0 -1,-1 1,-2 2,-4 3,-6 1,-2 2,-4 4,-6 6,-6 12,-11 18,-17 6,-6 12,-12 18,-18 3,-3 5,-5 6,-9 2,-3 3,-6 5,-10 3,-5 6,-7 10,-6 3,1 6,2 9,3 3,1 7,2 11,3 4,-3 8,-2 10,1 3,3 6,6 9,9 4,5 8,9 13,13 2,2 2,3 2,3 2,8 4,15 8,21 4,7 5,14 4,23 -2,5 -4,10 -8,15 -3,4 -6,8 -10,12 -3,4 -6,8 -9,12 -3,4 -5,7 -7,11 -2,4 -4,7 -7,11 -1,2 -2,3 -3,5 -1,2 -2,3 -3,4 -5,3 -8,6 -10,10 -1,4 -2,9 -3,13 0,2 -1,3 -2,4 -4,3 -6,5 -8,9 -2,3 -3,7 -5,10 -2,4 -5,8 -8,12 -3,4 -6,8 -8,12 -3,4 -5,8 -7,13 -2,4 -4,9 -6,13 -3,5 -5,9 -7,14 -2,5 -5,10 -7,15 -1,1 -1,2 -1,3 0,1 -1,1 -1,2 -4,3 -7,5 -8,9 -1,3 -2,6 -3,10 -1,1 -3,3 -7,6 1,1 1,2 1,3 0,1 1,2 1,3 -1,2 -2,3 -4,5 -2,2 -3,4 -4,6 -1,1 -1,2 -2,4 -1,2 -1,3 -1,4 -1,3 -2,5 -3,8 -1,3 -3,3 -7,2 4,7 2,13 -5,18 -1,1 -2,3 -2,5 0,2 -1,4 -2,6 -1,2 -2,3 -3,5 -1,2 -2,3 -3,3 -4,-1 -6,-1 -6,1 0,2 0,3 1,5 -2,1 -4,2 -6,3 -2,1 -3,2 -5,3 2,1 3,2 4,3 1,1 3,2 4,3 -1,1 -1,2 -2,4 -1,2 -1,4 -2,6l-1 0c-1,0 -1,0 -1,0 0,0 -1,0 -1,0 -3,2 -4,3 -5,3 0,1 0,1 0,2 0,1 1,2 2,2 4,3 4,6 0,10 -4,3 -6,7 -7,11 -1,5 -2,9 -3,13 -1,1 -1,2 -1,4 0,2 -1,3 -2,4 -4,3 -7,7 -8,11 -1,4 -3,9 -5,13 -1,1 0,2 2,5 2,-3 3,-5 4,-6 1,-2 2,-4 3,-6 3,-4 5,-7 6,-10 2,-3 4,-7 6,-10 3,-4 5,-8 8,-12 3,-4 6,-8 8,-12 2,-3 4,-5 5,-7 1,-2 3,-5 4,-7 3,-5 5,-9 7,-15 2,-5 5,-9 9,-12 4,-4 7,-8 8,-12 1,-4 4,-8 7,-12 3,-4 6,-8 9,-12 3,-4 6,-8 9,-12 1,-2 3,-3 5,-5 2,-2 4,-1 7,2 1,1 2,1 4,0 2,-1 2,-1 2,-2 1,-3 3,-5 5,-7 2,-2 4,-4 7,-6 3,-3 6,-5 8,-9 2,-3 5,-6 7,-10 1,-1 1,-1 1,-2 0,-1 1,-1 2,-2 2,-3 3,-4 5,-5 2,-1 5,1 8,5 -4,-4 -5,-7 -3,-10 2,-3 4,-5 7,-8 6,-6 12,-11 18,-17 6,-6 12,-12 18,-18 4,-4 7,-8 11,-11 4,-4 7,-7 11,-11 2,-2 3,-3 5,-4 2,-1 4,-3 6,-4 2,-1 4,-3 7,-6 1,-1 2,-2 3,-3 1,-1 3,-1 6,1 0,0 2,-1 5,-2 -1,-1 -2,-2 -3,-2 -1,-1 -2,-1 -3,-2 1,-1 3,-3 5,-6 -1,-1 -2,-1 -3,-1 -1,0 -2,-1 -4,-2l17 0c1,-1 1,-1 1,-2 -3,-2 -6,-4 -8,-5 1,-1 2,-1 3,-2 1,-1 2,-1 3,0 4,1 7,0 10,-2 2,-2 5,-5 7,-7 5,-6 11,-8 18,-5 2,1 6,1 11,2 1,1 2,1 3,1 1,0 2,1 1,4 0,1 1,1 2,2 1,1 2,1 3,0 6,-1 10,0 13,3 3,3 6,6 10,8 3,3 5,5 6,9 2,3 4,6 6,9 5,5 7,9 8,15 1,5 1,11 2,16 0,3 0,4 0,4zm-411 283c2,-6 3,-12 5,-18 -4,0 -6,0 -8,1 -1,0 -1,1 -2,2 -1,1 -1,2 -1,3 -1,4 -2,8 -2,13 0,4 -1,9 -1,14 4,-1 5,-3 6,-6 0,-3 1,-5 2,-8zm17 -66c4,-3 4,-7 -2,-11 -2,3 -3,5 -3,5 1,3 1,4 -1,6 -2,1 -3,3 -4,4 -3,3 -4,6 -4,11 0,4 -1,7 -2,10 -1,3 -2,6 -3,10 0,1 0,2 1,3 1,1 1,3 2,5 3,-4 4,-6 6,-9 1,-2 2,-5 3,-7 0,0 0,-1 0,-3 0,-4 0,-8 0,-13 0,-4 2,-8 6,-12zm8 -37c3,-2 4,-3 5,-3 2,-4 3,-7 4,-11 0,-1 -1,-3 -2,-6 -1,0 -2,0 -2,1l-7 14c-1,1 0,3 2,5zm10 69c1,-3 2,-5 3,-6 1,-2 2,-3 3,-5 0,0 -1,-1 -4,-4 -1,2 -2,3 -3,5 -1,2 -2,3 -3,5 1,0 2,2 3,5zm18 -55c2,-3 3,-6 4,-8 1,-3 2,-5 3,-8 -9,2 -12,7 -8,16zm-83 -119c1,0 4,1 8,2 -4,4 -7,8 -10,13 -3,4 -6,9 -10,13 -1,2 -1,3 -1,5 0,2 0,3 -1,5 -3,6 -6,11 -9,16 -3,5 -6,10 -10,16 -1,3 -2,5 -4,7 -2,2 -3,4 -5,7 -3,4 -5,7 -6,10 -2,3 -4,7 -6,10 -7,12 -14,23 -21,35 -7,12 -14,23 -21,35 -4,7 -7,13 -11,17 -4,4 -10,8 -17,11 -1,1 -2,1 -3,0 -1,-1 -2,-1 -3,-2 -2,-1 -4,-1 -5,-2 -2,-1 -3,-1 -5,-2 -4,-2 -7,-4 -8,-8 -2,-4 -3,-7 -4,-11 -2,-4 -4,-7 -7,-10 -2,-2 -2,-4 -2,-7 0,-3 0,-6 0,-10 -2,-1 -3,-3 -4,-6 -1,-3 -4,-3 -8,-1l-2 -2c-1,-1 -1,-2 -2,-4 -1,-2 -2,-4 -2,-6 -1,-2 -1,-4 -2,-6 -1,-2 -1,-3 -2,-5 -1,-2 -1,-3 0,-4 3,-9 6,-17 9,-25 3,-8 6,-16 8,-25 3,-9 5,-17 8,-25 3,-8 5,-16 8,-25 3,-9 5,-17 7,-25 2,-8 4,-17 6,-25 3,-16 6,-33 9,-49 3,-17 6,-33 8,-49 3,-21 4,-43 3,-66 0,-9 -1,-17 -3,-25 -2,-8 -7,-15 -15,-20 -5,-4 -6,-9 -3,-16 4,0 7,0 9,1 3,1 6,2 10,2 3,0 7,0 10,0 4,1 8,3 12,5 4,2 8,4 12,6 2,1 5,3 8,5 1,0 2,0 2,1 4,7 9,13 15,18 6,6 9,13 10,22 0,4 1,8 2,12 1,4 2,8 3,12 1,6 2,11 2,17 1,6 1,12 2,17 1,5 1,9 1,13 0,4 0,9 0,13 0,3 0,5 0,7 0,2 -1,5 -1,7 -1,5 -2,10 -2,15 -1,5 -1,10 -2,14 0,2 -1,3 -2,3 -5,1 -7,2 -6,4 1,2 1,4 2,7 1,3 0,7 -1,12 0,1 0,1 0,1 0,0 0,1 0,1 2,4 1,7 -1,8 -2,1 -5,2 -8,3 4,4 6,7 6,10 0,3 -1,7 -3,11 -1,2 -2,3 -2,5 0,2 -1,3 -1,5 -1,2 -2,4 -3,6 -1,2 -2,5 -3,8 -1,3 -2,7 -2,12 1,8 -1,16 -5,22 -3,4 -4,8 -5,12 -1,5 -1,9 -2,13 1,1 1,1 2,1 1,0 1,0 2,1 4,-5 7,-9 10,-13 6,-9 11,-17 17,-26 6,-9 12,-17 17,-26 4,-7 8,-13 12,-19 4,-6 8,-13 12,-19 4,-5 7,-10 10,-15 3,-5 6,-10 10,-15 1,-1 2,-2 2,-2 1,-1 1,-1 2,-2 1,1 2,2 2,2 -6,9 -11,17 -17,26 -6,9 -11,18 -18,27 2,-1 4,-2 7,-4 3,-2 5,-5 8,-8 2,-3 4,-5 6,-8 2,-3 3,-5 3,-6 1,-2 2,-3 3,-5 1,-2 2,-3 3,-5 3,-4 6,-8 9,-11 3,-3 6,-7 8,-11 3,-4 5,-7 8,-10 3,-3 5,-7 8,-11 1,-2 2,-3 4,-5 2,-2 3,-3 5,-5 2,-3 4,-5 5,-8 2,-3 3,-5 5,-8 4,-5 8,-10 11,-15 4,-5 7,-9 11,-15 5,-6 9,-12 13,-18 4,-6 9,-12 13,-18 2,-1 4,-2 5,-3 2,-1 4,-2 5,-4 4,-5 8,-10 13,-15 4,-5 9,-10 13,-15l11 -14c1,-1 2,-2 3,-2 1,0 2,0 3,-1 0,1 1,2 2,2 -2,3 -3,5 -5,7 -2,2 -3,4 -5,6 -5,6 -9,11 -14,17 -5,6 -10,12 -14,17 -5,6 -9,12 -14,18 -5,6 -9,12 -15,18 -3,4 -5,8 -8,12 -3,4 -6,8 -8,12 -5,7 -10,14 -14,21 -4,7 -9,13 -13,21 -3,4 -6,8 -10,13 -3,4 -6,9 -10,13 -1,2 -3,4 -5,8 -5,7 -9,14 -14,21 -5,7 -10,14 -15,21zm212 -17c2,-3 4,-5 6,-7 2,-2 5,-4 8,-7 -1,2 -1,3 -1,5 0,2 -1,3 -2,4 -2,3 -4,5 -7,6 -3,2 -5,4 -7,6 -3,4 -5,7 -8,11 -3,4 -5,7 -8,11 -1,2 -3,3 -5,4 0,-2 0,-3 0,-3 4,-5 8,-10 11,-15 3,-5 7,-10 11,-15zm29 -34c-1,11 -6,16 -15,16 3,-3 6,-6 8,-8 2,-3 4,-5 7,-8zm21 -15c-1,-1 -2,-2 -2,-3 3,-2 5,-3 6,-5 2,-2 4,-3 6,-5l2 2c-2,2 -4,4 -6,5 -2,2 -4,3 -6,5zm-244 -4c-1,-1 -1,-1 -1,-1 0,0 0,-1 -1,-1 2,-2 4,-4 6,-6 2,-2 4,-4 6,-7 0,0 1,1 2,2l-11 14z"/>
     <path class="fil1" d="M927 2482c5,-5 9,-9 14,-13 5,-4 9,-9 15,-13 4,-4 8,-8 12,-12 4,-4 8,-8 12,-12l2 2c-5,6 -10,11 -15,17 -5,6 -10,12 -16,17 2,2 4,3 5,2 1,-1 2,-2 3,-3 1,-1 2,-2 3,-3 1,-1 3,-1 4,0 -8,8 -15,16 -22,24 -7,8 -15,15 -23,21 -2,3 -3,5 -4,6 -1,2 -2,4 -3,6l-9 14c-2,2 -3,3 -5,5 -2,2 -3,4 -5,6 -2,2 -3,4 -5,6 -2,2 -3,4 -5,6 -3,3 -5,6 -8,9 -3,3 -5,5 -8,8 -2,2 -3,3 -4,5 -2,7 -4,13 -9,17 -4,5 -8,9 -12,15 -4,6 -8,11 -12,16 -4,5 -8,10 -12,16 -4,6 -8,11 -12,16 -4,5 -8,10 -12,16 -6,8 -12,16 -18,24 -6,8 -12,16 -19,23 -7,9 -14,18 -21,27 -7,10 -15,18 -24,25 -3,3 -6,5 -10,7 -4,2 -7,4 -11,6 -2,1 -4,1 -8,0 -4,0 -8,0 -11,0 -3,0 -7,-1 -11,-1 -1,0 -2,0 -3,0 -1,0 -1,0 -2,0 -12,-8 -22,-17 -31,-27 -9,-10 -13,-23 -13,-38 -1,-7 0,-14 1,-21 1,-6 2,-13 3,-20 1,-7 2,-14 3,-21 1,-7 3,-14 5,-21 4,-13 8,-25 12,-38 4,-12 8,-25 12,-38 3,-8 5,-16 8,-24 3,-8 6,-16 9,-24 4,-8 7,-15 10,-23 3,-8 7,-16 11,-24 7,-16 15,-31 22,-47 8,-16 15,-31 23,-47 8,-16 15,-32 23,-48 8,-16 16,-31 23,-48 1,-3 2,-5 4,-7 2,-2 3,-4 5,-6 3,-3 6,-4 9,-3 3,1 6,2 9,4 2,1 4,2 8,2 3,-1 5,-1 7,-1 2,0 3,2 4,6 1,3 3,4 7,4 2,1 4,1 6,0 2,-1 4,-1 6,0 7,1 13,5 18,11 5,6 8,13 9,20 1,7 1,13 -1,18 -2,6 -4,11 -6,17 -3,7 -6,14 -10,21 -4,7 -8,13 -12,21 -4,7 -8,13 -13,19 -5,6 -9,13 -13,19 -2,3 -4,5 -6,8 -2,3 -4,6 -5,9 -1,4 -3,7 -5,9 -2,3 -3,6 -2,10 0,2 -1,3 -2,4 -7,5 -11,11 -13,19 -2,7 -6,14 -11,19 -4,5 -7,10 -10,16 -2,6 -5,12 -10,17 -1,2 -2,3 -2,5 0,2 -1,4 -2,6 -3,6 -5,12 -8,18 -3,6 -5,12 -8,17 -1,2 -2,4 -2,5l-12 24 4 4c-2,3 -3,6 -5,9 -2,3 -3,7 -5,10 -1,1 -1,2 -2,2 -1,1 -1,1 -1,2 2,5 1,9 -2,12 -3,4 -5,7 -6,11 -11,23 -18,45 -20,68 -1,3 -1,7 -2,11 -1,4 -2,7 -3,11 -1,1 -1,2 0,4 0,2 0,3 0,4 1,-1 2,-2 3,-2 1,0 2,-1 3,-2 10,-13 20,-25 30,-38 10,-12 20,-25 30,-37 9,-12 18,-23 27,-34 9,-11 18,-22 27,-32 8,-10 16,-19 24,-28 8,-9 16,-18 24,-27 2,-3 4,-5 5,-7 2,-2 3,-5 5,-7 1,1 1,1 2,1 1,0 1,1 2,1 -3,4 -5,8 -8,11 -3,4 -6,7 -8,11l2 2c2,-2 4,-3 6,-4 2,-1 4,-3 6,-5 3,-4 6,-7 8,-11 2,-4 5,-8 7,-11 3,-3 5,-6 8,-8 3,-3 6,-5 8,-8 4,-4 8,-8 11,-12 3,-4 6,-8 10,-12 3,-3 5,-5 6,-8 2,-3 4,-5 6,-8zm-98 117c3,-5 5,-10 8,-14 3,-4 8,-7 15,-7 -3,-2 -5,-4 -6,-5 -2,-1 -4,-1 -6,2 -3,3 -5,5 -7,7 -2,2 -4,5 -6,7 -4,4 -3,7 2,10zm-144 -59c1,2 2,3 4,3 2,1 3,-1 4,-4 2,-4 3,-8 5,-13 2,-5 3,-9 5,-13 0,-1 0,-1 -1,-2 -1,-1 -1,-1 -2,-2 -3,6 -5,11 -7,16 -2,5 -5,10 -7,15zm-8 33c-2,0 -3,0 -3,-1 -4,4 -6,9 -8,15 -2,6 -2,11 0,14 2,-5 4,-10 6,-15 2,-5 4,-9 6,-14zm277 213c-4,-1 -7,-2 -10,-3 -3,-1 -6,-2 -9,-3 -6,-4 -10,-9 -13,-16 -3,-6 -6,-13 -9,-19 -5,-11 -7,-22 -7,-34 1,-11 1,-23 2,-34 3,-33 11,-65 24,-97 4,-9 7,-17 9,-26 3,-9 6,-17 9,-26 4,-12 9,-23 13,-35 5,-12 10,-23 15,-35 1,-1 1,-2 0,-4 0,-2 0,-4 0,-6 1,-2 2,-4 4,-7 2,-3 3,-5 5,-8 1,-2 2,-4 2,-5 1,-2 2,-4 2,-5 -2,0 -4,0 -5,1 -3,0 -7,1 -12,2 -1,-1 -1,-2 -1,-4l9 -2c-2,-4 -1,-7 2,-8 3,-2 5,-3 7,-5 5,-4 10,-8 14,-12 4,-4 8,-9 10,-15 3,-10 9,-15 18,-15 2,0 3,0 4,-1 1,-1 2,-1 3,-2 2,0 4,0 6,-1 2,-1 3,0 4,1 3,1 6,3 9,5 3,2 6,4 9,5 3,2 5,3 8,4 3,1 5,3 7,5 4,4 8,8 12,12 4,4 7,8 10,13 2,4 3,9 3,13 0,5 -1,9 -2,13 -1,6 -3,11 -6,16 -3,5 -6,10 -9,14 -3,6 -6,11 -10,15 -4,5 -6,10 -7,17 -1,2 -2,3 -4,4 -2,1 -5,2 -7,3 -9,17 -17,34 -26,52 -9,17 -17,34 -26,52 0,0 0,0 -1,-1 0,4 0,7 -1,9 -1,4 -3,7 -5,9 -2,3 -2,6 -1,10 0,0 0,0 -1,1 -6,4 -9,8 -9,14 0,6 -1,11 -3,17 -4,7 -7,15 -8,24 -1,9 -3,17 -6,25 -2,4 -3,8 -3,12 -1,4 -1,8 -2,12 -1,4 -1,8 -2,12 -1,4 -3,7 -6,10 -6,6 -8,12 -7,20 0,2 -1,3 -2,5 -1,2 -2,3 -2,4zm-27 -305c-2,1 -4,2 -6,3 -2,1 -4,2 -7,3 -2,1 -4,2 -7,3 6,-6 11,-11 16,-16 5,-5 10,-10 15,-16 1,0 1,0 2,1 -2,3 -4,5 -6,7 -2,2 -4,4 -6,7 -1,1 -1,3 -1,7zm-44 41c-3,3 -5,6 -8,9 -3,3 -6,6 -9,9l-2 -2c3,-3 5,-6 8,-9 3,-3 6,-6 9,-9l2 2zm24 -31c-1,6 -4,11 -8,15 -4,4 -8,7 -12,11 -1,0 -2,-1 -2,-2 4,-4 7,-8 11,-12 4,-4 7,-8 11,-12z"/>
     <path class="fil1" d="M1242 2161c-3,-5 -6,-6 -11,-5 -5,2 -9,3 -11,4 -4,2 -8,3 -12,4 -4,1 -8,1 -12,2 -3,1 -6,1 -9,2 -3,1 -6,2 -9,3 -2,1 -4,2 -5,2 -10,-2 -20,-1 -29,2 -9,3 -19,5 -29,6 -5,1 -10,1 -15,2 -5,1 -10,-1 -15,-5 -1,-2 -2,-2 -5,-1 -10,3 -20,5 -30,8 -10,3 -20,5 -30,8 -7,2 -14,3 -21,4 -7,1 -14,2 -21,3 -6,1 -11,2 -16,3 -5,1 -10,2 -16,3l-8 -8c6,-14 15,-24 26,-32 11,-7 23,-13 37,-17 10,-3 19,-6 29,-10 9,-3 19,-6 29,-9 13,-4 27,-7 40,-9 13,-3 27,-5 40,-8 10,-2 19,-4 29,-6 9,-2 19,-4 29,-6 10,-2 20,-4 29,-5 9,-1 19,-3 29,-5 10,-2 20,-4 30,-6 10,-2 20,-4 30,-6 5,-1 9,-4 11,-9l50 -115c4,-7 7,-14 11,-22 4,-7 7,-15 11,-22 3,-5 6,-8 9,-10 4,-1 8,-1 12,0 4,1 8,2 13,2 4,1 9,1 13,2 1,1 2,1 3,1 1,0 2,1 3,2 5,4 10,7 16,10 5,3 10,7 13,12 2,3 3,5 5,8 2,3 4,5 5,8 1,3 2,5 2,9 0,3 -1,7 -4,10 0,0 0,1 0,3 4,6 5,11 2,16 -3,5 -7,9 -12,13 0,0 -1,0 -2,1 -4,7 -8,14 -12,21 -4,7 -8,13 -12,21 -3,6 -7,12 -12,17 -1,5 3,8 9,8 18,-1 36,-2 53,-3 18,-1 36,1 53,5 6,1 12,2 18,2 6,0 12,1 18,3 4,1 9,3 13,5 5,3 9,6 13,10 4,4 8,8 10,13 3,5 4,10 4,16 0,5 0,9 1,13 1,4 1,9 0,13 -1,3 -2,6 -4,10 -2,3 -5,5 -7,6 -6,2 -12,3 -18,4 -6,1 -12,1 -18,2 -7,1 -14,1 -21,0 -7,0 -14,-1 -21,-3 -17,-5 -34,-7 -52,-6 -18,1 -35,0 -53,-1 -7,0 -15,0 -22,1 -8,1 -16,2 -24,3 0,1 -1,5 -4,11 -3,6 -5,13 -8,21 -3,8 -5,15 -8,22 -3,7 -4,11 -5,13 -1,3 -3,6 -6,9 -3,3 -4,6 -3,10 1,1 0,2 -2,3 -2,1 -4,2 -5,3 2,5 2,8 2,10 -1,2 -3,4 -7,6 -1,2 -3,4 -6,7 -1,1 -2,2 -4,3 -2,1 -3,2 -3,3 -1,1 0,2 1,4 1,2 2,3 3,5 -1,2 -2,4 -2,7 -1,3 -2,6 -3,9 -1,3 -2,6 -3,10 -1,3 -4,6 -8,9 -1,1 -2,2 -2,4 0,2 0,3 0,4 -3,4 -6,7 -8,10 -3,3 -5,6 -8,9 -2,3 -2,5 -1,6 2,5 2,8 2,10 -1,1 -3,3 -8,6 2,5 2,8 1,10 -1,2 -3,4 -6,5 -3,1 -6,2 -8,3 -3,1 -5,3 -6,5 3,1 5,1 7,1 2,0 5,0 8,0 -7,4 -12,8 -15,13 -3,5 -3,9 0,14 -3,3 -5,5 -6,6 -2,2 -4,3 -6,5 1,1 2,2 3,3 1,1 2,2 3,3 2,5 1,7 -3,7 -4,0 -7,1 -10,2 2,3 4,6 5,8 -3,1 -5,2 -7,3 -2,1 -5,2 -7,3 -2,1 -3,2 -3,4l3 3c4,1 7,2 10,3 -5,0 -8,1 -9,4 -1,3 -1,6 -2,10 -1,4 -2,8 -4,13 -2,4 -3,9 -4,13 -1,1 -1,2 -1,3 0,1 0,2 -1,3 0,2 -1,5 -2,9 -2,0 -3,0 -5,0 -2,0 -3,0 -5,0 -1,0 -1,0 -2,0 -1,0 -2,0 -3,0 2,3 3,5 5,6 2,2 3,4 5,6 -2,2 -3,4 -5,7 -2,3 -3,5 -4,8 -1,2 -1,4 0,6 1,2 2,4 3,6 0,1 1,2 2,3 1,1 1,2 1,3 -2,4 -3,8 -5,12 -2,4 -3,8 -5,12 -1,1 -2,2 -4,2 -2,1 -4,1 -6,2 1,1 1,2 1,3 0,1 1,2 2,3 -2,1 -4,2 -5,2 -2,1 -3,1 -5,2 3,7 4,13 3,19 -1,6 -3,12 -5,17 -1,4 -2,8 -4,11 -2,3 -3,7 -4,11 -2,8 -3,15 -4,23 -1,8 -2,15 -3,22 -1,4 -2,8 -3,12 -1,4 -2,8 -3,11 -1,1 -2,2 -3,2 -1,1 -2,1 -3,2 -3,3 -5,5 -6,7 -2,2 -2,5 -2,9 1,4 0,9 -2,13 -2,5 -3,10 -4,15 -1,2 -1,3 -2,5 -1,2 -1,3 -1,5 1,4 1,8 2,13 1,4 1,9 0,13 -1,3 -2,6 -2,9 0,3 -1,6 -2,8 -2,6 -2,12 -1,16 1,5 4,9 8,13 1,1 2,2 3,3 1,1 2,2 4,4 -8,3 -15,2 -19,-2 -5,-4 -10,-7 -15,-8 -3,-1 -4,-3 -6,-7 -1,-4 -2,-7 -3,-10 -1,-3 -3,-5 -6,-6 -3,-2 -3,-4 0,-7 -2,-5 -4,-9 -6,-13 -2,-4 -3,-8 -4,-12 -1,-9 -2,-18 -2,-27 0,-9 0,-18 0,-27 0,-6 1,-11 2,-16 1,-5 2,-10 3,-15 1,-5 2,-9 2,-14 0,-5 1,-9 2,-14 3,-12 5,-24 7,-37 2,-12 4,-24 7,-37 6,-26 13,-53 21,-80 3,-9 5,-18 8,-27 3,-9 6,-18 9,-27 6,-18 12,-36 18,-53 6,-18 12,-35 18,-53 3,-7 5,-13 8,-19 3,-6 5,-13 8,-19 4,-9 7,-18 11,-27 4,-9 7,-18 11,-27 4,-10 8,-20 13,-31 4,-10 9,-21 13,-31 1,-2 2,-5 4,-12 2,-6 4,-13 6,-20 2,-7 4,-13 5,-19 1,-6 1,-8 -1,-8 -4,-1 -8,-1 -12,-1 -4,0 -7,-2 -10,-5 -1,-1 -3,-1 -5,0 -2,1 -5,2 -7,2zm-53 342c-1,3 -1,5 -1,6 0,2 0,4 -1,6 1,1 2,1 4,1 1,-2 2,-4 2,-6 0,-2 1,-4 2,-6l-6 0c0,-2 0,-3 0,-5 0,-2 0,-3 0,-5 5,1 10,2 15,3 -1,-4 -2,-7 -2,-9 -1,-2 -1,-4 -2,-5 2,-2 3,-4 4,-5 1,-1 2,-3 3,-4 -3,-2 -6,-4 -8,-5 2,-5 4,-9 5,-14 2,-5 3,-9 5,-15 1,1 1,1 2,1 -1,3 -2,6 -3,9 -1,3 -2,6 -3,9 -1,1 -1,2 -1,3 0,1 0,2 -1,3 1,-1 2,-2 4,-3 2,-1 3,-2 3,-3 3,-5 5,-9 8,-15 3,-5 5,-11 8,-17 -3,1 -5,2 -6,3 -2,1 -4,2 -6,3 -1,-1 -1,-1 -1,-1 0,0 0,-1 -1,-1 2,-2 4,-3 7,-5 1,-1 2,-2 4,-3 2,-1 3,-2 4,-3 3,-6 5,-11 6,-17 2,-6 4,-12 6,-18 -1,-1 -2,-1 -4,-1 -2,0 -4,-1 -6,-2 4,-7 8,-15 12,-22 2,2 3,3 4,5 11,-9 15,-17 11,-25 -1,1 -2,2 -4,2 -2,1 -3,1 -4,2 0,0 -1,0 -2,-1 4,-10 8,-19 12,-29 4,-9 8,-19 12,-29l2 0c0,3 0,5 0,6 0,2 0,4 0,6 1,0 1,0 1,0 0,0 1,0 1,0 2,-3 4,-5 6,-8 2,-3 3,-6 5,-9 1,-1 0,-1 0,-2 -1,-1 -2,-2 -3,-2 -1,-1 -4,0 -8,2 -1,-3 -2,-5 -2,-6 3,-8 5,-16 8,-24 3,-8 5,-16 8,-24 1,-3 2,-5 2,-8 0,-3 1,-5 1,-8 1,-1 0,-1 0,-2 -1,-1 -2,-1 -3,-1 -3,0 -4,1 -5,2 -4,5 -7,11 -10,19 -5,12 -10,25 -15,37 -5,12 -10,25 -15,37 -3,8 -6,16 -10,24 -3,8 -6,16 -10,24 -3,8 -6,16 -10,24 -3,8 -7,16 -10,23l-7 18c-2,6 -4,11 -6,17 -2,5 -4,11 -7,16 -7,21 -14,42 -21,64 -3,7 -5,14 -7,21 -2,7 -4,13 -6,21 -2,7 -3,13 -4,20 -1,7 -3,13 -6,18 -4,7 -5,15 -6,22 0,8 -2,15 -4,22 -3,7 -5,15 -5,23 0,8 -2,16 -4,24 -3,7 -4,15 -3,22 0,8 -1,15 -4,22 -1,2 -1,3 0,5 1,2 1,4 1,7 2,-2 4,-4 5,-5 1,-2 2,-3 4,-5 2,10 -2,15 -11,15 3,1 5,2 7,3 2,1 5,2 7,3 5,-8 7,-16 8,-24 1,-8 -2,-15 -6,-23 8,-5 15,-10 20,-14 -3,-2 -5,-4 -7,-6 -2,-2 -2,-5 2,-9 1,-2 0,-4 -1,-6 -3,-3 -4,-5 -2,-7 1,-2 2,-4 4,-5 0,-3 0,-5 0,-7 0,-2 0,-4 0,-6 -1,-1 -2,-1 -3,-2 -1,-1 -2,-1 -3,-2 3,-1 6,-2 8,-2 3,-1 4,-1 5,-2 3,-5 5,-9 6,-14 2,-5 4,-10 6,-15 -2,0 -3,0 -5,0 -2,0 -3,0 -5,0 0,-1 0,-2 -1,-2 2,-1 4,-2 5,-3 2,-1 3,-2 5,-3 -1,-5 -1,-10 0,-16 0,-5 -3,-10 -10,-13 4,-1 7,-1 8,0 1,1 2,2 3,3 1,1 2,2 3,3 -1,-5 -1,-8 0,-9 1,-2 3,-4 7,-8 1,-1 1,-1 1,-1 0,0 0,-1 1,-1 2,-7 4,-14 6,-20 2,-6 4,-13 6,-19 0,0 -1,-1 -2,-3 -1,1 -2,2 -3,2 -1,0 -2,1 -3,2 -1,-1 -1,-1 -1,-1 0,0 -1,0 -1,-1 2,-3 3,-6 5,-9 2,-3 4,-6 6,-9zm75 -140c-1,3 -2,5 -3,8 -1,3 -2,6 -4,8 -3,6 -7,12 -11,18 -4,6 -7,12 -8,19 -1,3 -2,6 -3,10 -1,3 -2,6 -3,9 -7,11 -12,23 -16,35 -3,12 -7,24 -10,36 -2,5 -3,10 -3,15 -1,5 -3,10 -7,15 -2,3 -4,6 -5,9 -1,4 -2,7 -3,10 -1,6 -2,11 -2,16 -1,5 -2,11 -4,16 -2,6 -3,11 -4,18 -1,6 -5,11 -12,15 1,3 2,5 3,8 1,3 2,6 4,9 3,-5 5,-9 5,-11 4,-12 8,-23 11,-35 4,-12 7,-23 11,-35l14 -41c1,-3 2,-6 3,-9 1,-3 3,-6 4,-9 2,-4 3,-8 6,-11 2,-3 4,-7 4,-11 1,-6 2,-11 3,-17 1,-6 4,-11 8,-16 1,-1 1,-1 1,-2 0,-1 0,-1 1,-2 1,-2 1,-4 2,-6 1,-2 1,-5 2,-8 -1,-3 -1,-7 2,-13 2,-6 5,-11 8,-15 4,-5 6,-10 6,-15 0,-5 1,-11 2,-16 1,0 0,-1 -3,-2zm-46 -251c0,-2 0,-3 -1,-4 -4,0 -6,0 -9,1l-23 5c-5,1 -9,2 -13,2 -4,0 -9,1 -13,2 -6,1 -11,2 -17,3 -6,1 -12,2 -17,4 -13,3 -26,5 -39,7 -12,2 -25,5 -39,8 -9,3 -18,5 -27,8 -9,3 -18,6 -27,8 -6,2 -12,5 -16,8 -5,3 -8,6 -10,9 7,-3 15,-5 22,-7 8,-2 15,-4 22,-7 11,-3 21,-5 32,-8 10,-3 21,-5 32,-8 10,-3 20,-5 31,-6 10,-2 21,-4 31,-6 10,-3 19,-5 29,-7 9,-2 19,-4 29,-5 4,-1 8,-2 12,-3 4,-2 8,-3 12,-5zm66 10c-2,-1 -4,-2 -5,-3 -2,-1 -3,-1 -5,0 -6,1 -11,2 -17,4 -6,2 -12,3 -17,5 -5,1 -9,2 -13,2 -4,0 -9,1 -13,2 -9,2 -18,3 -28,4 -9,1 -19,2 -29,3 -2,1 -4,1 -6,2 -2,1 -4,1 -7,2l-41 7c-3,1 -5,1 -7,1 -2,0 -5,1 -7,1 -1,1 -2,2 -3,3 -1,1 -2,3 -3,4 4,2 7,3 9,3 2,0 5,-1 9,-3 3,-2 5,-2 9,-3 3,0 6,-1 10,-1 4,-1 8,0 12,1 4,1 7,-1 9,-5 9,-1 17,-2 25,-2 8,-1 16,-2 23,-5 9,-4 18,-5 27,-5 9,1 18,-1 27,-5 8,-3 16,-5 24,-6 8,-1 17,-2 25,-3 2,-1 4,-2 6,-5 0,-1 0,-1 -1,-2l-2 -2c-4,0 -6,0 -7,1 -1,1 -2,1 -2,2 -1,1 -1,1 -2,2zm-9 238c0,-6 1,-11 3,-16 2,-5 4,-11 7,-16 3,-5 5,-10 7,-16 2,-5 3,-11 3,-16 -5,6 -9,13 -12,22 -3,6 -5,11 -7,16 -2,5 -4,10 -7,15 -5,7 -3,10 6,11zm-163 436c1,-5 2,-10 2,-15 1,-5 1,-10 2,-15 2,3 3,5 3,6 1,2 2,3 3,5 1,-1 2,-1 3,-1 0,-3 0,-5 0,-8 0,-3 -1,-4 -2,-5 -3,-1 -4,-2 -6,-4 -1,-2 -2,-4 -3,-6 -1,1 -2,2 -3,2 -1,1 -2,1 -2,2 0,3 0,5 0,6 0,2 0,4 0,6 -1,4 -1,8 -1,11 0,3 -1,7 -2,10 0,-1 2,1 5,4zm59 -157c0,0 -1,-1 -2,-2 -1,2 -2,3 -4,5 -2,2 -2,3 -2,3 3,4 3,8 0,11 -3,3 -5,7 -6,10 0,1 0,2 0,4 0,2 0,3 0,4 0,1 1,1 2,1 1,0 2,0 2,0 2,-1 3,-2 5,-4 2,-2 2,-3 2,-4 1,-5 2,-10 2,-15 0,-5 1,-9 1,-15zm-19 69c1,0 1,0 1,0 0,0 1,0 1,0 2,-4 3,-8 5,-11 2,-4 3,-7 4,-11 0,-1 -1,-3 -3,-6 -1,1 -2,2 -3,2 -1,1 -2,1 -2,2 -1,3 -2,6 -3,9 -1,3 -1,6 -2,9 -1,1 0,2 0,3 1,1 1,2 2,3zm102 -605c-5,1 -10,2 -15,2 -5,1 -9,1 -15,2l0 2c4,2 7,3 8,4 4,-2 8,-3 11,-4 3,-1 6,-3 10,-4l0 -2zm-130 682c-1,1 -2,1 -4,1 -1,3 -2,6 -3,9 -1,3 2,5 7,8 0,-3 0,-6 0,-9 0,-3 0,-6 0,-9zm-47 -631c-4,1 -7,2 -10,2 -3,1 -7,1 -10,2 0,1 0,2 0,2 0,1 0,1 0,2 3,-1 6,-2 10,-2 3,0 7,-1 10,-2l0 -5zm125 436c4,-3 8,-6 13,-10 -5,-1 -9,-1 -11,0 -2,1 -3,4 -2,10zm15 -181c1,-4 2,-7 3,-10 1,-3 2,-6 3,-9 1,1 2,1 2,1 1,0 1,0 2,1l-7 18c-1,0 -2,0 -2,0 -1,0 -1,0 -2,0z"/>
    </g>
   </g>
   <g>
    <path class="fil0" d="M1118 884c-1,25 -3,50 -3,76 0,529 429,960 960,960 210,0 406,-67 564,-183l0 0 349 179 -117 -421 0 0c103,-153 162,-337 162,-535 0,-26 -1,-51 -3,-76l-191 0c3,25 4,50 4,76 0,425 -344,769 -769,769 -425,0 -769,-344 -769,-769 0,-26 1,-51 4,-76l-193 0 0 0z"/>
    <path class="fil2" d="M2074 0c-466,0 -854,331 -941,771l195 0c84,-334 386,-582 747,-582 360,0 663,248 747,582l195 0c-89,-440 -477,-771 -943,-771l0 0z"/>
    <path class="fil2" d="M2197 1048c102,23 162,83 164,202 0,52 3,213 3,358 -88,40 -187,62 -290,62 -103,0 -201,-22 -290,-62 1,-143 3,-304 3,-358 1,-121 62,-180 164,-202 -18,-22 -32,-23 -50,-47 -125,-153 -19,-366 162,-369l12 0 10 0c182,3 289,216 162,369 -18,23 -32,23 -50,47l0 0z"/>
    <path class="fil0" d="M1711 1136c18,4 34,10 48,17 -10,29 -15,62 -15,98 -1,111 -3,224 -3,336 -151,-81 -271,-216 -331,-378 22,-39 59,-61 109,-72 -14,-18 -25,-18 -40,-37 -99,-121 -15,-289 129,-292l8 0 8 0c144,3 228,171 129,292 -18,19 -28,19 -43,37l0 0z"/>
    <path class="fil2" d="M1952 1048c-102,23 -162,83 -164,202 0,52 -3,213 -3,358 88,40 187,62 290,62 103,0 201,-22 290,-62 -1,-143 -3,-304 -3,-358 -1,-121 -62,-180 -164,-202 18,-22 32,-23 50,-47 125,-153 19,-366 -162,-369l-10 0 -10 0c-182,3 -289,216 -162,369 17,23 29,23 47,47l0 0z"/>
    <path class="fil0" d="M2437 1136c-18,4 -34,10 -48,17 10,29 15,62 15,98 1,111 3,224 3,336 151,-81 271,-216 331,-378 -22,-39 -59,-61 -109,-72 14,-18 25,-18 40,-37 99,-121 15,-289 -129,-292l-8 0 -8 0c-144,3 -228,171 -129,292 18,19 29,19 43,37l0 0z"/>
   </g>
  </g>
 </g>
</svg>
